<?xml version="1.0" encoding="utf-8"?>
<!-- Generator: Adobe Illustrator 19.0.0, SVG Export Plug-In . SVG Version: 6.00 Build 0)  -->
<svg version="1.1" id="Laag_1" xmlns="http://www.w3.org/2000/svg" xmlns:xlink="http://www.w3.org/1999/xlink" x="0px" y="0px"
	 width="100%" height="100%" style="enable-background:new 0 0 515.9 728.5;" xml:space="preserve">
<style type="text/css">
	.st0{fill:none;}
	.st1{fill:#070505;}
	.st2{fill:#E57F3E;}
	.st3{fill:#FCC8A1;}
	.st4{fill:#FDDCC3;}
	.st5{fill:#FDB481;}
	.st6{fill:#090607;}
	.st7{fill:#FDA870;}
	.st8{fill:#FDC195;}
	.st9{fill:#0B090A;}
	.st10{fill:#FDA266;}
	.st11{fill:#FDB685;}
	.st12{fill:#FCC7A0;}
	.st13{fill:#FBD8BB;}
	.st14{fill:#EDB0A1;}
	.st15{fill:#FAD8BC;}
	.st16{fill:#EF6656;}
	.st17{fill:#171312;}
	.st18{fill:#2B2727;}
	.st19{fill:#2A2524;}
	.st20{fill:#3F342F;}
	.st21{fill:#2F241F;}
	.st22{fill:#433833;}
	.st23{fill:#221815;}
	.st24{fill:#2C2928;}
	.st25{fill:#39312E;}
	.st26{fill:#38251B;}
	.st27{fill:#584740;}
	.st28{fill:#8B837E;}
	.st29{fill:#261F1D;}
	.st30{fill:#1B110E;}
	.st31{fill:#433834;}
	.st32{fill:#878382;}
	.st33{fill:#534945;}
	.st34{fill:#8B8683;}
	.st35{fill:#534C49;}
	.st36{fill:#3E302B;}
	.st37{fill:#564943;}
	.st38{fill:#5C4F49;}
	.st39{fill:#544F4D;}
	.st40{fill:#302B2A;}
	.st41{fill:#594B44;}
	.st42{fill:#251610;}
	.st43{fill:#0E0B0B;}
	.st44{fill:#211F1F;}
	.st45{fill:#5D5049;}
	.st46{fill:#574A44;}
	.st47{fill:#2F2521;}
	.st48{fill:#514C4A;}
	.st49{fill:#3F3531;}
	.st50{fill:#020203;}
	.st51{fill:#EDC8B2;}
	.st52{fill:#F1DAC8;}
	.st53{fill:#EFD0BC;}
	.st54{fill:#EED1BE;}
	.st55{fill:#F1E1D2;}
	.st56{fill:#E4D6C9;}
	.st57{fill:#E5C2AE;}
	.st58{fill:#F4E3D5;}
	.st59{fill:#EFD0BB;}
	.st60{fill:#F1D8C7;}
	.st61{fill:#FD8C45;}
	.st62{fill:#F0D7C5;}
	.st63{fill:#FDCCA8;}
	.st64{fill:#FD9D5C;}
	.st65{fill:#FDA971;}
	.st66{fill:#FC8F49;}
	.st67{fill:#DFBDAA;}
	.st68{fill:#2C2725;}
	.st69{fill:#DCBCAA;}
	.st70{fill:#B4A094;}
	.st71{fill:#FDBA8B;}
	.st72{fill:#110D0D;}
	.st73{fill:#FC8C46;}
	.st74{fill:#FD9E5F;}
	.st75{fill:#FA917D;}
	.st76{fill:#EECFBB;}
	.st77{fill:#060506;}
	.st78{fill:#060405;}
	.st79{fill:#070506;}
	.st80{fill:#080606;}
	.st81{fill:#0A0809;}
	.st82{fill:#191513;}
	.st83{fill:#2A2726;}
	.st84{fill:#F1D9C7;}
	.st85{fill:#060505;}
	.st86{fill:#0B0909;}
	.st87{fill:#1F1C1C;}
	.st88{fill:#C79B8A;}
	.st89{fill:#CBA291;}
	.st90{fill:#3D3632;}
	.st91{fill:#CBA797;}
	.st92{fill:#C8A594;}
	.st93{fill:#CAA291;}
	.st94{fill:#D9BBAB;}
	.st95{fill:#161110;}
	.st96{fill:#C89D8C;}
	.st97{fill:#C59786;}
	.st98{fill:#CDA391;}
	.st99{fill:#C79D8B;}
	.st100{fill:#F6E8DC;}
	.st101{fill:#625C58;}
	.st102{fill:#FDFDFD;}
	.st103{fill:#FDFDFC;}
	.st104{fill:#ECC9B4;}
	.st105{fill:#EED9CA;}
	.st106{fill:#FCFCFC;}
	.st107{fill:#FBFBFB;}
	.st108{fill:#F3F4F4;}
	.st109{fill:#141315;}
	.st110{fill:#3E3F41;}
	.st111{fill:#F8F9F9;}
	.st112{fill:#2B2F34;}
	.st113{fill:#26282A;}
	.st114{fill:#171F18;}
	.st115{fill:#F3F6F4;}
	.st116{fill:#E7E8E7;}
	.st117{fill:#283028;}
	.st118{fill:#232E26;}
	.st119{fill:#024E88;}
	.st120{fill:#044F88;}
	.st121{fill:#307C44;}
	.st122{fill:#357F48;}
</style>
<g>
	<path class="st0" d="M258.5,507.5c-63.5,0-127,0-190.5,0.1c-3.4,0-4.1-0.7-4.1-4.1c0.1-92.3,0.1-184.7,0-277c0-3.4,0.7-4.1,4.1-4.1
		c127,0.1,254,0.1,381,0c3.4,0,4.1,0.7,4.1,4.1c-0.1,92.3-0.1,184.7,0,277c0,3.4-0.7,4.1-4.1,4.1C385.5,507.5,322,507.5,258.5,507.5
		z"/>
	<path d="M204.1,238.1c8.6,6.8,16.3,14.3,21.7,24.1c0.6,1.1,2,2.4,2.9,2.3c1-0.1,2.3-1.6,2.6-2.7c0.5-1.9,1.8-3.5,1.6-5.7
		c4.9,6.8,7.7,14.3,9.6,22.2c0.3,1.1,0.8,2.2,0.9,3.3c0.6,4.1,2.5,3.3,5,1.6c5.2-3.7,11-4.6,16.8-2c7,3.1,10,10.7,7.7,18.3
		c-1.5,4.7-3.7,9.1-6.9,12.8c-1.1,1.4-2.1,2.4-1,4.3c5.8,10.5,2.9,20.4-3,29.6c-7,10.8-14.9,20.9-25.7,28.4c-2,0.7-3.7,0.4-4.7-1.7
		c-0.1-2.2,1.7-3.1,3-4.3c7.7-7.4,15-15.1,20.6-24.2c4.6-7.4,7.8-15.1,6.1-24.1c-1.2,2.3-3,3.8-5.9,2.9c-1.7-0.6-3-1.7-3.4-3.4
		c-0.5-2,1.4-2.4,2.7-3c5.3-2.6,9.1-6.7,11.9-11.7c3.5-6.1,2.6-11.3-2.2-15.7c-4.6-4.2-9.6-4.5-15.4-0.5c-5.8,4-8.7,9.9-10.2,16.6
		c-0.6,2.7-0.2,6.5-2.7,7.7c-3.4,1.6-3.9-3.2-6.1-4.6c-3.8-2.4-5.3-6.2-5.2-10.7c0-1.8,0.1-3.7-0.4-5.4c-0.3-0.8-0.7-1.6-1.4-2.2
		c-2.1-1-4.4-1.3-6.6-1.8c-3.1-0.7-6.2-1.3-9.2-2.4c-7.6-2.8-15-1.9-22.3,1c-7.9,3.1-15.9,5.8-23.4,9.7c-2.9,1.5-5.8,2.3-9.1,2
		c-7.8-2.8-13.2-0.9-18.7,5.9c-6.5,8-13.4,15.4-17.4,25.2c-6.8,16.4-2.1,34.3,12.3,44.8c6.4,4.7,13.4,7.9,21,10
		c3.6,1,7.3,1.7,11,2.4c1.6,0.3,3.3,0.4,4.1,2.2c0.2,0.9,0,1.6-0.6,2.3c-13.6-1.2-26.2-5.2-37.8-12.5c-11.3-7.1-17.6-17.4-19.5-30.3
		c-0.6-3.9-2.5-4.8-5.4-5.8c-8.1-2.9-13.8-12.8-11.5-19.9c2.6-8.2,12.6-11.3,22.3-6.9c3.5,1.6,8.8-0.8,8.9-4.7c0-2.5-2.6-4.5-5-5.3
		c-3.5-1.2-7.2-2.1-11-2.1c-4.9,0-9.9,0-14.9-0.5c6-4.7,12.8-7.5,19.6-10.5c2.5-1.1,6.8-1.6,6.6-4.1c-0.3-2.7-4.6-3.2-7.4-3.9
		c-11.4-2.9-22.9-4.8-36.2-5.3c8.1-5.1,15.8-6.7,23.4-8.7c8.4-2.2,17.1-2.5,25.7-4c1.4-0.3,3.6,0.1,3.7-1.6c0.2-2.2-2.2-2.7-3.8-3.3
		c-9.1-3.1-18.3-6.1-27.7-8.2c-0.8-0.2-1.7-0.2-2.1-1.4c3.2-1.1,6.5-0.4,9.7-0.5c22.8-0.9,45,3.3,67,8.7c1,0.2,2.1,0,2.9,0.4
		c1,0.5,1.9,0.7,2.6-0.2c1.2-1.5-0.5-2.1-1.2-2.7c-6.5-6.3-13.8-11.7-20.9-17.4c-1.1-0.9-2.1-1.9-4-3.5c7.6-1,13.5,1.7,19.4,3.5
		c11.2,3.4,21.6,8.4,31.1,15.3c0.9,0.6,1.6,1.2,2.7,0.6c2-1.2,2.5-4.1,2.1-5.2c-1.2-3.3,0.1-6.7-1.3-9.8
		C201,239.5,202.3,238.7,204.1,238.1z"/>
	<path class="st1" d="M396.7,494.7c-1.1-0.5-2-0.5-3.2,0c-14,5.8-28.5,4.9-43.1,3.5c-6.3-0.6-12.5-1.4-18.4-4c0-1.1,0.8-1.4,1.6-1.7
		c7.1,0.2,13.8,2.7,20.9,2.9c17.5,1.9,34.6,1.1,48-12.1c12.3-12,11.5-26,6.4-40.3c-1.6-4.4-5.7-7.3-9.5-10
		c-3.5-2.5-7.1-4.9-10.6-7.5c-1.8-1.7-4-3-6.1-4.4c-4.8-3.9-9-8.4-12.8-13.3c-2-2.6-4.2-3.7-7.7-3.3c-6.3,0.6-12.6,0.1-18.9,0.2
		c-6.7-0.6-13.4-1.6-20-2.4c-3.8-0.5-7.5,1.5-11.2-0.5c-0.8-0.7-0.9-1.5-0.6-2.4c1.2-2.1,3.3-2.3,5.4-2.4c2.3-0.2,4.5,0,6.8,0
		c3.3,0.3,6.5,1.3,9.8,1.1c0.8,0,1.6,0.2,2.4,0.4c2.2,0.8,4.6,0.5,6.9,1c5.4,1.2,10.9,0.8,16.4,0.4c6.5-0.4,8.6-4.2,6.1-10.3
		c-0.5-1.2-1.2-2.4-0.7-3.8c0.3-0.6,0.7-0.7,1.2-0.4c1.4,1.3,2.8,2.7,4.2,4c2.3,1.9,2,4.3,1.1,6.7c-0.8,1.9-1.5,3.7,0.4,5.4
		c1.2,1.3,2.2,2.8,3.3,4.2c1.4,1.7,3.1,3.2,4.3,5c1.7,2.7,4.7,4,6.9,6.2c8.2,7.1,18.1,11.8,26,19.8c1.9-3.9,0-7.8,1.7-11.1
		c0.3-0.4,0.7-0.5,1.2-0.3c1.2,1.3,0.6,3.8,2.8,4.5c0.1,0.1,0.2,0.3,0.2,0.4c-0.1,5.1-0.8,10.4,5.6,12.5c0.2,0.1,0.2,0.6,0.1,0.9
		c5.4,6.1,5.4,9.8-0.2,16.2c-1.1,1.2-2,2.2-0.3,3.5c0.2,0.9-0.4,1.2-1.1,1.4c-1.5,0-2.4,0.7-2.7,2.3c-2.1,12.3-9.6,20.6-19.7,27.1
		C398.6,495,397.7,495.1,396.7,494.7z"/>
	<path class="st2" d="M399.2,493.3c10.4-6.7,17.6-15.4,19.1-28.2c0.5-4.6,2.5-1,3.8-0.6c3,0.6,5.9,1.8,8.9,2.6
		c2.2,0.5,4.2,0.5,6.2-0.5c0.5,0,1,0,1.5-0.1c0.6-0.5,1.4-0.9,2.1-1.2c1.4-0.6,2.4-2.9,4.2-1.5c1.7,1.3-0.1,3-0.3,4.6
		c-1.5,2.2-1.7,5-3.3,7.2c-3,3.4-5,7.9-10.6,8.1c-2.8,0.1-0.4,4.2-3.1,4.8l-0.1,0c-3.2,1.8-6.9,2.2-10.1,4.1c-1,0.9-2,0-2.9-0.1
		C409.5,494.3,404.4,495.8,399.2,493.3z"/>
	<path class="st3" d="M242,429.9c-1.2-0.3-0.7-1.6-1.2-2.3c3.2-4.6,8.1-6.1,12.8-7.7c-0.7-0.7-4.6,2-3.5-2.3c1.9,0,3.9,0,5.8,0
		c6.3,0.4,11.6-2,16.5-5.6c2.1-1.5,4-3.3,5.8-5c3.2,0.2,5.9,4.5,4.7,8c-0.8,2.3-1.7,4.7-3.9,6.1c-10.4,2.5-19.3,8.4-29,12.8
		c-1.6,0.7-3,2.1-5,2C242.7,434.5,242,432.4,242,429.9z"/>
	<path class="st4" d="M302.5,372.5L302.5,372.5c2.6-1.7,5.6-2.7,8.7-3.5c2.8-0.7,5.5-1.9,8.5-1.5c1,0,2,0.3,3,0.6
		c1.1,1.1,0.2,1.8-0.6,2.4c-7.1,5.5-11.4,13.6-18,20.2c2.2,1.1,5.4,1.3,4.5,4.4c-0.9,3.1-3.5,1.4-5.4,1.3c-1.2-0.4-2-1.2-2.8-2.2
		c-2.2-2.3-4.2-4.9-6.3-7.4c-4-4.9-3.9-5.4,3.1-11.2C299,374.6,300.7,373.4,302.5,372.5z"/>
	<path class="st5" d="M334,399.5c-3.4,0.4-6.7-0.4-10-1.1c-3.5-2-4.3-4.4-1.8-7.4c5.1-6.3,9.6-13,15.9-18.2c1.2-1,1.1-2.3,2-3.2
		c0.7,0,1.3,0,2,0.1c2.3,1.9,5.8,1.9,7.3,5c-2.1,2.9-5.1,5.1-7.3,8c-0.7,0.9-1.9,1.7-2,2.8c-0.4,4.2-2.6,6.5-6.5,8.2
		C329.9,395.4,334.9,397.4,334,399.5z"/>
	<path class="st6" d="M333.2,493.4c-0.4,0.3-0.8,0.5-1.2,0.8c-5.6-0.6-10.3-3.6-14.5-6.7c-2.8-2-5.4-2.9-8.5-3.1
		c-0.6-0.6,0.6-2.1-1.1-2c-11.4-9.9-19.9-21.9-25.8-35.8c-1.2-2.4-2.2-5-3.2-7.4c-1-2.3-1.3-4.7-1.2-7.1c0.7-3-1.7-6.9,2.4-9
		c2.5,0.6,2,2.7,2.3,4.4c3.4,18.4,12.5,33.7,25,47.2c6,6.9,13.4,11.9,21.7,15.6C330.7,491,332.9,491.1,333.2,493.4z"/>
	<path class="st7" d="M278.9,432.7c0.4,2.2,0.8,4.5,1.2,6.7c-0.2,0.5-0.3,1-0.8,1.2c-8,3.3-15.7,7.3-23.2,11.5
		c-1.1-0.2-1.7-1.1-2.2-2l0-0.2c-2.6-3.8-2-7.7-0.5-11.6c6.3-1.5,12.3-3.7,18.1-6.7c2-1,4-1.7,6.2-0.8
		C278.4,431.4,278.6,432.1,278.9,432.7z"/>
	<path class="st8" d="M340,369.6c0,1.2,0.6,2.2-0.8,3.4c-6.2,5.4-10.8,12.3-16.1,18.5c-2.1,2.4-1.4,4.8,0.9,6.8
		c-2.3,0.8-4.6-0.3-7-0.1c-1.5-1.1-0.9-3.4-3.1-4.5c-1.1-0.5-0.6-3.7,0.6-5c6-6.8,10.3-15,17.5-20.9c2.3-0.4,4.4,0.4,6.4,1.4
		C339,369.4,339.5,369.5,340,369.6z"/>
	<path class="st9" d="M164,391.6c0-0.7,0-1.5,0.1-2.2c1.2-1.1,2.7-1.2,4.2-1c11.6,1.6,23.1,0.8,34.5-1.5c8.8-2.9,16.9-7.2,24.5-12.6
		c1.4-1,2.7-2.6,4.8-1.6c1.2,1.2,2.7,1.7,4.3,1.9c-11.2,9.2-24,15.3-38.3,17.7c-9.1,1.5-18.5,1-27.7,0.2
		C168.2,392.3,166.1,391.9,164,391.6z"/>
	<path class="st10" d="M384.8,417.6c-2.6-1.6-4.7-3.6-6.4-6.1c6.2-6.3,12-13.1,21.1-15.7c0.8,0,1.4,0.4,1.7,1.2
		c1.3,0,1.9,0.6,1.9,1.9c0.7,1,1.6,2,1.6,3.4C398.8,408.4,392.7,414.2,384.8,417.6z"/>
	<path class="st11" d="M399,396.7c-6.8,2.3-11,8.1-16.6,12c-1.3,0.9-2.1,2.6-4,2.8c-1.6-1.5-3.2-3-4.3-5c0-0.8,0.1-1.8,0.8-2.2
		c6.1-4,11-9.5,16.9-13.7c0.4,0.4,0.7,0.8,1.1,1.2C395,393.3,398.3,393.4,399,396.7z"/>
	<path class="st12" d="M391.8,390.5c-3.4,5.7-9,8.9-14,12.9c-1.3,1-2.7,1.9-3.8,3.1c-1.4-1-2.4-2.4-3.1-4c-0.2-2.5,1.3-3.9,3.1-5.3
		c3.5-2.7,7-5.5,10.5-8.3c0.6-0.4,1.3-0.6,2-0.5C388.5,388.6,390.5,388.8,391.8,390.5z"/>
	<path class="st13" d="M250,417.6c0.5,3.2,3.2,1.3,4.8,2.2c-4.7,2.6-9.3,5.2-14,7.8c-3.1-0.7-1.6-3-1.7-4.8
		c0.1-4.3-0.5-8.6,0.4-12.8c1.4-1.7,2.4-0.4,3.5,0.5C243.1,415.1,246.6,416.3,250,417.6z"/>
	<path class="st14" d="M274.9,391.8c2.4-7.2,5.3-9.2,14-9.3c0.9,0.4,1.5,1,1.2,2.1c-3.2,0.6-1.3,3.8-2.8,5.2
		c-0.4,0.6-0.9,1.1-1.6,1.4c-1.7,0.8-3.1,1.9-4.2,3.4c-1.1,1.6-2,4.1-4.4,2.9C275,396.6,274,394.4,274.9,391.8z"/>
	<path class="st15" d="M385,389.7c-2.8,2.3-5.5,4.7-8.3,6.9c-2.2,1.7-4.3,3.5-5.8,5.9c-2-1.5-3.1-3-1.3-5.6c1.6-2.2,1.7-4.9,0.4-7.4
		c0.2-0.2,0.4-0.2,0.5,0C375.4,387.8,380.2,386.8,385,389.7z"/>
	<path class="st16" d="M423.5,443.9c-0.3-0.4-0.7-0.7-0.9-1.1c-1.6-2.5-6.8,0.7-6.6-4.1c0.1-2.9,1-5.8,1.6-8.7
		c5.3-0.6,7.5,1.2,7.3,6.5C424.6,438.9,426,441.8,423.5,443.9z"/>
	<path class="st17" d="M278.9,432.7c-0.3-0.4-0.6-0.8-0.9-1.2c-2.2-3.9-2.1-7.6,0.8-11c2.5-4,5.1-7.9,1.1-12.5
		c-0.8-0.9-1.2-0.7-2-0.4c-0.5-0.4-0.5-0.8-0.1-1.2c0.3-0.3,0.5-0.6,0.8-0.9c0.9-0.6,1.8-0.9,2.8-0.5c3.3,3.6,5.3,8.3,9.1,11.5
		c0.9,0.8,1.2,2,0.4,3.1c-0.7,1-1.8,1.3-3.1,1.2c-1.3-0.1-2.1-1.4-3.1-1.8c-1.8,1.4-0.9,4.6-4,4.5C277,425.9,280,429.7,278.9,432.7z
		"/>
	<path class="st18" d="M281.8,405.5c-1,0-2-0.1-3.1-0.1c1.6-2.7-0.8-3.8-2.2-5.2c-2.4-2.5-3.8-5.1-1.6-8.4c-0.9,3.2,2,4,3.5,6.4
		c1.9-3.8,3.1-7.5,7.5-7.8c1.6,0.9,3.4,0.8,5.2,1c1.3,0.2,3.1,0,3,2.2c-0.9,0.9-2,0.9-3.2,1.1c-5.5,1-7.4,2.9-8.2,8.6
		C282.6,404.2,282.6,405,281.8,405.5z"/>
	<path class="st19" d="M254,438.1c0.2,4-1.5,7.9-0.1,11.9c-2-5.6-6.4-9.3-10.3-13.4c-1.4-1.5-3.5-3.8-1.7-6.6
		c1.1,1.8,2.2,3.7,3.2,5.5C247.8,437.6,250.9,438,254,438.1z"/>
	<path class="st20" d="M443.8,468.5c0.4-1.4,0.7-2.7,1.3-5.1c-2.4,1.9-4.2,3.1-6.4,3.1c2.9-3.3,5.8-6.6,8.7-10
		c0.5,0.4,0.9,0.8,1.4,1.1c-0.5,4.2-1.8,8.1-3.8,11.8C444.1,469.8,443.7,469.5,443.8,468.5z"/>
	<path class="st21" d="M427.7,488.5c0.8-2.2,1-4.3-0.9-6.6c7.8,3.4,10.2-3,14.1-6.4c0.2,0,0.4,0.1,0.5,0.1c0.1,2.6-1.7,4.4-3.3,5.7
		C434.9,483.9,431.2,486.1,427.7,488.5z"/>
	<path class="st22" d="M348.9,374.5c-2.1-2-5.9-1.3-6.9-4.9c7.4,1.1,13.2,5.4,18.9,9.8c-0.5,0.6-1.2,0.8-1.9,0.9
		c-1.2,0-2.4-0.4-3.4-0.9C353.3,377.9,350.9,376.5,348.9,374.5z"/>
	<path class="st23" d="M254,450.2c0.2,1.2,1.1,1.2,2,1.3c3.5,1.5,4.8,5.2,7.6,7.4c2.5,3.5,6.9,5.1,8.9,9.1c0,0.5-0.1,0.9-0.5,1.2
		C264,464.8,257.8,458.6,254,450.2z"/>
	<path class="st24" d="M273.1,412.6c-5,4.2-10.5,6.8-17.3,5.1c5.7-0.4,10.4-3.3,15.2-6C271.7,412,272.7,411.7,273.1,412.6z"/>
	<path class="st25" d="M290.3,384.4c-0.5-0.6-0.9-1.3-1.4-1.9c2.4-2.3,4.7-4.7,7.1-7c1-0.7,1.7-0.7,1.9,0.8
		c-0.7,0.6-1.5,1.3-2.2,1.9c-3.5,2.5-4.4,5.2-0.5,8.2c-0.2,0.7-0.6,1.2-1.3,1.4C291.8,387.6,290.6,386.5,290.3,384.4z"/>
	<path class="st26" d="M399.2,493.3c5.2,0.9,10.3-0.4,15.4-0.8c-2,2.7-5,2.5-7.7,2.6c-3.4,0.2-6.8,0.6-10.1-0.4
		C397.5,494.2,398.3,493.8,399.2,493.3z"/>
	<path class="st27" d="M437.2,466.6c-5.7,4-10.4,0.6-15.2-2.1c0.3-0.3,0.6-0.6,0.9-0.9C427.6,465.3,432.1,467.3,437.2,466.6z"/>
	<path class="st28" d="M322.9,368.6c-1-0.1-2.1-0.2-3.1-0.3c-1.8-1-4,0.5-5.8-0.9c7-1.5,14-2.1,21.1,0c-1.4,0.8-3.4,0.3-4.6,1.8
		C327.9,370,325.3,370.5,322.9,368.6z"/>
	<path class="st29" d="M240.2,409.7c-1.3,4.3,1.1,8.9-1.2,13.2c-1.1-4.8-1-9.6-0.1-14.4C240,408.3,240.3,408.7,240.2,409.7z"/>
	<path class="st30" d="M272,469.2c0-0.4,0.1-0.7,0.1-1.1c1.4-0.7,3.2-0.7,4.4-2c0.9-0.9,1.9-2.2,3.3-1.5c1.5,0.7,1.3,2.4,1.4,3.9
		c0,0.7-0.1,1.3-0.3,1.9c-0.3,0.7-0.8,1.3-1.7,1.1C277.1,469.5,273.5,472.9,272,469.2z"/>
	<path class="st31" d="M404.1,402.4c-0.4-1.2-0.7-2.3-1.1-3.5c4.4,1.8,5,6.2,7,9.8c0.8,1.1,0.4,1.8-0.8,2.1
		C406,408.9,405.3,405.5,404.1,402.4z"/>
	<path class="st32" d="M385,389.7c-4.8-1.8-9.6-0.7-14.4-0.2c0.6-0.7,0.6-2,1.9-2c4.7,0.3,9.5-1.2,14,0.9
		C386,388.9,385.5,389.3,385,389.7z"/>
	<path class="st33" d="M302,482.5c-3.3-1-6.7-2-10-3c0.8-1.1,2.1-1.4,3.3-1.7c3.3,0.4,6.8,0.6,8.9,3.8
		C303.9,483,303.2,483.3,302,482.5z"/>
	<path class="st34" d="M240.2,409.7c-0.4-0.4-0.8-0.8-1.3-1.2c0.4-1.2-0.9-3.6,1.5-3.4c3.3,0.3,2.5,3.2,2.5,5.4
		C241.9,410.8,241.1,410.2,240.2,409.7z"/>
	<path class="st35" d="M399,396.7c-1.5-2.3-5.1-1.9-6.1-5c3.6,0.3,6.8,1.5,8.2,5.3C400.4,396.9,399.7,396.8,399,396.7z"/>
	<path class="st36" d="M417.5,492.6c2.4-3.6,6.4-3.4,10.1-4.1C424.7,491.1,421.2,491.9,417.5,492.6z"/>
	<path class="st37" d="M409.2,410.5c0.3-0.6,0.5-1.2,0.8-1.8c2.1,2.6,2.8,5.7,3,8.9c-0.2,0.1-0.4,0.2-0.7,0.4
		C408.7,416.5,408.6,413.7,409.2,410.5z"/>
	<path class="st38" d="M279.1,471.5c0.4-0.3,0.7-0.7,1.1-1c2.5,0.6,3.9,2.6,5.1,4.7c-0.1,0.7-0.6,1.2-1.3,1.4
		C281.5,475.7,278.8,475,279.1,471.5z"/>
	<path class="st39" d="M311,369.4c-2.6,1.7-5.3,3-8.5,3.1c2-3.1,5.2-3.6,8.4-4.2c0.3,0.2,0.4,0.5,0.3,0.7
		C311.1,369.3,311.1,369.4,311,369.4z"/>
	<path class="st40" d="M358.5,379.7c0.8-0.1,1.6-0.1,2.4-0.2c1.8,1.8,4.4,3.1,4.9,6c-0.4,0-0.9,0-1.3,0c-1.3,0-2.1-0.7-3-1.5
		C360.3,382.7,358.7,381.7,358.5,379.7z"/>
	<path class="st41" d="M302,482.5c0.7-0.3,1.3-0.6,2-0.9c1.9-1.1,3.4,0,5,0.9c1.6,0.6,0,1.3,0.1,1.9
		C306.6,484.3,304,484.5,302,482.5z"/>
	<path class="st42" d="M414.7,425.5l-0.2,0.1l-0.2-0.1c-3.5-2.1-3.8-4.4-1.2-8c0,0,0,0,0,0C414.3,420.1,414.7,422.7,414.7,425.5z"/>
	<path class="st43" d="M273.1,412.6c-0.7-0.3-1.4-0.6-2.1-0.9c2.3-1.8,4.6-3.5,6.9-5.3c0,0.4,0.1,0.8,0.1,1.2
		C276.9,409.7,275.1,411.3,273.1,412.6z"/>
	<path class="st44" d="M311,369.4c0-0.4-0.1-0.7-0.1-1.1c1-0.3,2-0.6,3.1-0.9c2,0,4-0.4,5.8,0.9C316.9,368.7,313.9,369.1,311,369.4z
		"/>
	<path class="st45" d="M441.4,475.5l-0.3,0.1c0,0-0.2-0.2-0.2-0.2c1.6-2,0.9-5.1,3-6.9c0.4,0.3,0.8,0.7,1.1,1
		C444,471.7,443.8,474.2,441.4,475.5z"/>
	<path class="st46" d="M284,476.5c0.4-0.4,0.7-0.8,1.1-1.1c2.2-1,3.8-0.2,5.1,1.5c0.1,0.9-0.4,1.3-1.2,1.6
		C287.1,478.3,285.4,477.8,284,476.5z"/>
	<path class="st47" d="M331.1,368.4c1.1-1.4,2.6-0.9,4-0.9c0.9,1.1,3.5-0.8,3.5,1.9c-2.2-0.2-4.3-0.5-6.5-0.7
		C331.6,368.9,331.3,368.8,331.1,368.4z"/>
	<path class="st48" d="M297.9,376.3c-0.6-0.3-1.3-0.5-1.9-0.8c2.1-1.2,3.6-3.6,6.5-3.1C301.3,374.1,299.8,375.4,297.9,376.3z"/>
	<path class="st49" d="M289,478.5c0.4-0.4,0.7-0.8,1.1-1.2c2.1-1.2,3.7-0.5,4.9,1.3c-0.8,1.1-2,0.8-3,0.9
		C291,479.2,290,478.8,289,478.5z"/>
	<path class="st50" d="M204.1,238.1c-0.6,1.3-2.3,1.9-2.2,3.6c-0.3-1.7-0.6-3.4-0.9-5.2C202.3,236.5,203.4,237,204.1,238.1z"/>
	<path class="st51" d="M232,372.7c-8.8,5.9-17.6,12-28,15c-6.5-0.9-12.5-3-17.1-7.9c-0.4-2.3,1.6-2.2,2.8-2.6
		c11.5-2.9,21.8-8.4,31.5-15.1c0.8-0.5,1.6-1,2.4-1.5c7.1-5.3,14-10.8,19.6-17.6c1.5-1.8,2.7-3.8,3.2-6.1c1.4-5.6,1.6-5.6,5.9-1.7
		c0.6-1.3,0.3-2.6,0-3.9c-0.9-3.9-3.1-4.9-6.6-3c-3.1,1.7-6.2,3.2-9.9,3.7c2.5,0.6,5.8,0.1,6.7,3.4c0.9,3.1-0.9,5.5-3,7.5
		c-5.5,5.5-10.7,11.5-17.1,16c-1.2,0.8-2.4,1.5-3.5,2.4c-5.9,3.5-11.1,8.4-18.2,9.7c-1.3-0.1-2.5-0.6-3.9-0.4
		c-4.6,0.6-6.1-0.9-4.9-5.5c1.4-4.9,2.8-9.9,5.7-14.3c1.1-1.7,2.2-3.3,1.9-5.5c0.8-2.3,3.2-1.9,4.8-2.9
		c11.4-5.4,15.6-12.6,13.8-23.6c-0.6-4.6-3.8-7.9-5.6-11.9c-1.6-7.1,2.9-12.8,4.4-19.3c2.6,0.1,5,0.8,7.3,1.8c-1,2.8,0.8,5.7,0,8.2
		c1.4-1.7-1.7-4.5,0.8-6.4c0.2,1.6,0.6,3.3,0.6,4.9c0,5.1,0.4,9.9,6.2,12.1c2,0.8,1.5,4,3.9,5.4c0.7-3.6,1.2-6.9,2.1-10.2
		c2.3-8.2,6.4-15,15-17.9c9.5-3.2,19.2,5.4,16.6,15.2c-2.4,9.1-8.4,15.2-17.2,18.4c4.4,4.9,5.1,4.9,8.8-0.6
		c2.9,6.6,2.8,10.9-0.8,18.7c-5.7,12.3-14.3,22.3-24.2,31.4C234.9,369.9,233.5,371.3,232,372.7z"/>
	<path class="st52" d="M148.9,385.5c-20.7-4.2-36.3-19.9-37.1-38.3c-0.6-14,5.5-25.7,14.1-36.3c2.5-3.1,6-5.5,8.2-8.7
		c4.7-7.1,10.7-7.9,17.9-4.7c2.9,0.9,5.6,0.7,8.4-0.9c4.2-2.5,9.1-3.6,13.7-5.5c2.8-1.2,5-0.1,5.5,2.9c0.3,1.8,1.5,3.3,1.7,5.1
		c-1.6,3.4-5.6,3.8-7.8,6.4c-2,2.1-3.5,4.4-4.6,7.1c-1.4,3.5-3,3.5-5.9,1.3c-8.7-6.3-18-7.4-27.5-2.1c-11.7,6.5-13.4,20-3.5,29.2
		c3.4,3.2,6.8,6.2,9.9,9.7c3.2,3.7,7.9,5.4,12.7,6.4c1.6,0.3,3.4,0,4.7,1.4c0.3,1.8-1.1,3-1.5,4.6c-1.2,4.8-0.3,6.7,4,8.9
		c1,0.5,3.4,0.7,1.8,3c-6.2,2-11.5-1.6-16.4-2.3c-1.5-0.4-1.1,0.7-1.1,0c0-0.1,0.2-0.2,0.5-0.1c3.8,1.7,8.6,1.2,11.7,4.6
		c-0.1,2.9-2.3,2.2-3.9,2.2c-5.5,0.1-5.5,0.1-4.1,5.4c0.1,0.4-0.1,0.6-0.3,0.9C149.5,385.8,149.2,385.8,148.9,385.5z"/>
	<path class="st53" d="M181,299.2c-1-1.6-3.5-2.1-2.6-5.2c0.6-2.1-2.2-3-3.8-2.1c-5,2.9-11.1,3.1-15.9,6.4c-2.5,1.7-4.6,0.2-6.7-0.7
		c2.7,0.5,5.1-0.3,7.6-1.5c9.1-4.4,18.5-8,28-11.3c5.8-2,11.5-2.8,17.4-0.5c3.9,1.4,7.9,2.2,11.9,3.3c3.2,3.1-1.8,4.7-1.4,7.7
		c0.4,3.1-4.3,6-1.1,9.8c0,0.1-0.9,0.9-1.3,1.4c-1.8,0.2-3.2-0.8-4.5-1.8c-7-5.3-14.9-6.9-23.5-5.2
		C183.8,299.8,182.3,300.4,181,299.2z"/>
	<path class="st54" d="M148.9,385.5c1.2-1.4-0.3-1.7-1-2.1c-2.1-1-1.6-2.5-1-4.2c0.7-2,2-1.6,3.6-1.5c2.5,0.2,5.1,1.7,7.5-0.2
		c1.6-1.5,3.4-0.8,5.2-0.5c6.2,1,12.5,2.1,18.8,1.2c1.6-0.2,3.3-0.1,4.7,1.2c4,1.5,7.4,4,11.5,5.5c1.7,0.6,4.5,0.7,5.9,2.8
		c-11.7,3.6-23.6,3.7-35.6,2.2c-1.5-0.2-2.9-0.3-4.4-0.5C159.1,387.6,153.7,388,148.9,385.5z"/>
	<path class="st55" d="M97.8,323.5c-0.4,3.4-0.9,6.8,0.8,10c0.4,0.9,0.5,0.9,1.4,0.4c0.2-0.1,0-0.9,0-1.4c-0.4-6.4,2.3-7.9,9-5
		c0.5,4.8-3,8.7-3.2,13.4c-0.1,1.1-1.2,0.7-2,0.6c-6.8-1.5-12-11.1-9.7-18C95.3,322.5,96.6,322.8,97.8,323.5z"/>
	<path class="st56" d="M97.8,323.5c-1.3,0-2.5,0-3.8,0c3.4-6.6,12.5-9.1,18.7-5.1c0.9,0.6,1.7,1.1,1.1,2.3c-0.8,1.5-1.6,2.2-3.5,1.4
		c-3.9-1.6-8-2.2-12.2-1.4C95,321.3,96.7,322.5,97.8,323.5z"/>
	<path class="st57" d="M108.9,327.5c-1.6,1-2.8-0.5-4.2-0.5c-3.6-0.1-4.5,2.6-4.8,5.5c-1.6-3.3-1.9-6.5,1.6-8.5
		C105.3,321.9,107,325.2,108.9,327.5z"/>
	<path class="st53" d="M225.1,291.2c-0.1,2.4-0.2,4.8-0.3,7.2c0-3.1-3.6-6-0.5-9.1C225.4,289.6,225.4,290.3,225.1,291.2z"/>
	<path class="st58" d="M281.8,405.5c-1.8-6,3.5-14.5,12.2-12.2c2.1-0.6,3.7,0.5,5.4,1.4c2.2,1.4,3.4,3.6,4.4,5.9
		c1.1,2.7,2.5,3.7,5,1.5c0.8-0.7,2-1.2,3.2-0.5c10.8-1.7,21.4,0.9,32,2.1c0.1,0.9-0.5,1.4-1.3,1.7c-3.4,0.7-6.9,0.8-10.2,2.1
		c-10.9,4.2-15.3,12.4-13,23.9c0.2,1.1,0.5,2.3,0.1,3.4c-0.5,0.4,0.2-0.1-0.3,0.4c-0.4,0.4-1,0.4-1.3,0.8c0.4-0.2,0.9-0.4,1.2-0.7
		c4.6,2.4,6.7,7.4,10.9,10.2c-1,3.1-3,1.7-4.7,0.9c-1.7-0.7-2.6-2.5-4-4.1c-0.7,3.1,1.7,5.8-0.3,8.6c-0.7,0.9,0.8,2,1.7,2.8
		c1.5,1.3,2.7,2.9,3.7,4.7c0.5,1,1.2,2.1,0.2,3.2c-0.8,0.9-1.8,0.4-2.8,0.2c-0.6-0.2-1.3-0.4-1.9-0.7c-3.9-2.1-7.5-2.8-10.1,2
		c-6.6-4.2-11-14.2-9-20.7c-2-0.7-3.8-0.7-6.9,1.2c3.5-0.9,4.7,0.3,5.2,2.3c1.9,9.1,7.1,16.2,13.7,22.5c0.6,0.6,1.1,1.3,1.3,2.1
		c0,0.5-0.2,1.3-0.6,1.2c-3.5-0.6-5.7,1.3-7.5,3.9c-0.2,0.4-0.9,0.3-1.4,0c-14-14.7-24.1-31.4-26-52.1c1.2-2.5,2.4-4.9,4-8.1
		c1.2,3.4,2.4,6.4,6.5,2.9C286.7,414.9,283.4,410.8,281.8,405.5z"/>
	<path class="st59" d="M389.1,424.5c3.3,2.2,6.5,4.7,10,6.6c22.2,12.3,17.6,49.1-3.2,59.6c-13.1,6.6-26.9,8.1-41.2,6
		c0.7-0.8,1.7-0.9,1.9-0.9c-1.5,0.3-4,0.4-4.8-2.2c-1-3.4,1.9-4.9,4.1-6.6c1.2-0.4,2.4-0.4,3.2,0.7c0.3,4,4.7,3.9,6.5,6.7
		c-0.3-2.3-2.4-3.9-1.6-6.2c0.4-0.3,0.8-0.5,1.3-0.5c7.6,0.1,15.1-0.1,22.4-3.1c4.1-1.6,6.7-4.8,9.7-7.5c0.9-0.8,0.5-1.8-0.5-2.7
		c-0.8,5.4-4.5,8.1-9,10c-7.8,3.4-16.1,3.3-24.4,3.2c-1.9,0.2-3.7,0.5-4.9-1.5c0.4-1.4,1.2-1.3,1.6-1c-4-1.2-4.2-4.4-3.1-8.6
		c1.5-5.7,3.7-10.9,8.5-14.6c5.3-1,10.4-2.3,12.8-8.1c0.4-1.1,1.9-1.3,2.9-1.7c10.8-4.5,13.7-13.2,7.8-23.4c-0.6-1-1.3-1.9-1.6-3.1
		C387.8,424.8,388,424.2,389.1,424.5z"/>
	<path class="st60" d="M356,487.7c-0.5,0.6-1.1,1.2-1.5,1.9c-0.9,1.2-3,1.9-1.8,4c1,1.6,2.4,1.9,4.2,1.3c0.6-0.2,1.4,0.5,3.5,1.2
		c-2.8,0.3-4.2,0.4-5.7,0.6c-7.3,0.2-14.3-2.2-21.4-3.3c-10.1-4.1-19.2-9.4-26.4-17.8c0.3-0.2,0.8-0.3,0.8-0.5
		c1.2-4.6,4.1-5.6,8.3-4.4c2.1-1,3.5,0.6,4.9,1.6c9.5,6.3,19.8,10.8,31,13C353.5,485.6,355.2,485.9,356,487.7z"/>
	<path class="st61" d="M413,417.6c-1.3,2.9-0.4,5.5,1.2,8c-0.9,4.4,1.4,9.3-1.8,14c-7.8-9.3-19-14-27.7-21.9
		c6.4-5.1,12.9-10.2,19.3-15.2c2.6,2.2,3.5,5.4,5.1,8.1C410.5,412.8,409.7,416.3,413,417.6z"/>
	<path class="st62" d="M342.8,404.6c0.4-0.3,0.8-0.6,1.2-0.9c7.2-0.5,14.5,0.8,21.7-1c2.1-0.5,2.6,1.1,3.4,2.1
		c4.6,5.7,9.2,11.2,14.9,15.8c0.2,1-0.4,1.4-1.2,1.7c-6.2-0.6-12.2-0.9-17.3,3.7c-1.3,1.2-3,1-3.4-1.1c-2-10.3-8.5-16.1-18.3-18.8
		C343.1,406,342.8,405.3,342.8,404.6z"/>
	<path class="st63" d="M331.1,368.4c0.3,0,0.6,0.1,0.9,0.3c-5.1,6.5-10.3,13-15.4,19.6c-1.6,2-3.8,4.1-0.1,6.4
		c0.7,0.4,0.4,2.4,0.5,3.7c-1.7,0.4-3.3,0.8-5,1.2c-0.5,0.4-0.9,0.9-1.5,1.2c-4.2,2.7-5.2,2.4-7-2.1c-0.4-1-1.1-2-0.4-3.2
		c0.5,0,1,0.1,1.5,0c1.1-0.3,2.8,1.4,3.2-0.7c0.4-2.2-1.4-2.2-2.9-2.2c-0.6,0-1.3-0.1-3.3-0.3c7.5-8.3,12.3-17.7,21.3-23.6
		C325.6,368.6,328.3,368.5,331.1,368.4z"/>
	<path class="st64" d="M358.5,379.7c1.2,1.3,2.3,2.5,3.5,3.8c0.7,0.9,0.7,1.9,0.1,2.7c-3.3,4.7-7,9.1-10.5,13.6
		c-2,2.6-5.8,1.1-8.8,0.8c-2.4,0.1-4.8,0-7.1-0.9c5.5-5.6,9.7-12.3,14.8-18.2c1.5-1.7,3-3.1,5.4-2.8
		C356.8,379.1,357.6,379.4,358.5,379.7z"/>
	<path class="st65" d="M355.9,378.7c-5.6,2.9-7.9,8.9-12.2,13.1c-2.7,2.6-3.2,7.5-8.1,7.9c-0.6-0.1-1.1-0.1-1.7-0.2
		c-4.9-4.3-4.7-6.3,1.7-8.2c3.3-1,1.3-3.2,2.2-4.6c2.8-4.8,6-9.4,11-12.2C352.1,374.6,353.8,377,355.9,378.7z"/>
	<path class="st66" d="M342.8,400.6c5,0.7,8.4-0.9,10.8-5.8c2.1-4.1,6.4-6.9,8.4-11.3c0.8,0.7,1.6,1.4,2.4,2.1
		c1.7,3.6,5.5,6.5,2.4,11.5c-1.2,2-1.9,3.6-4.4,3.7C355.9,401.2,349.3,401.9,342.8,400.6z"/>
	<path class="st67" d="M424.8,450.5c0.4,1.7,0.3,3.3-0.5,4.8c-1.2,2.4-2.7,5.4-5.3,5c-1.7-0.3-0.9-3.8-1.3-5.8
		c-0.6-3.6,2.5-2.5,4.3-3.1c0.6-0.2,1.1-0.5,1.7-0.8C424.1,450.2,424.4,450.2,424.8,450.5z"/>
	<path class="st68" d="M303.1,395.5c0.2,0.3,0.4,0.5,0.5,0.8c1,5.7,4.4,5.2,8.4,3.2c0,0.7,0,1.3,0,2c-3,0.1-4,5.2-6.9,3.5
		c-1.9-1.1-2.5-4.4-3.5-6.8c-0.6-1.4-2-1.7-2.8-2.7c0.3-1.1,1-1.8,2.1-2C301.7,394.2,302.4,394.9,303.1,395.5z"/>
	<path class="st69" d="M424.8,450.5c-0.4,0-0.7,0.1-1.1,0.1c-1.4-1.7-3-3-5.3-3.2c-2.4-0.2-3.6-1.4-3.5-3.8
		C420.5,443.6,422.8,445.2,424.8,450.5z"/>
	<path class="st70" d="M382.8,421.7c0.4-0.4,0.8-0.8,1.2-1.1c1.9,1,3.8,2.1,5.1,3.9c-0.3,0.3-0.7,0.6-1,0.9
		C385.2,425.8,383.8,424,382.8,421.7z"/>
	<path class="st71" d="M254,438.1c-3.9,2.3-6.9,1.6-8.8-2.7c6.1-4.1,12.7-7.1,19.4-10c4.6-2,8.5-6.2,14.2-5c-1.1,3.6-0.9,7.3-0.8,11
		c-6-0.4-10.4,3.8-15.7,5.6C259.4,438.2,256.9,438.8,254,438.1z"/>
	<path class="st72" d="M301,393.6c-0.4,1-1.1,1.6-2.1,2c-1.6-0.8-3.3-1.5-4.9-2.3c-1.9-1.7-4.1-0.7-6.1-0.8
		c-1.5-0.1-2.8-0.1-1.9-2.2c0.4-0.3,0.8-0.7,1.1-1c1.6-2.9,4.4-1.6,6.7-1.8c0.4-0.4,0.9-0.8,1.3-1.2
		C297.1,388.8,299,391.2,301,393.6z"/>
	<path class="st73" d="M295,478.6c-1.6-0.4-3.3-0.9-4.9-1.3c-1.7-0.6-3.3-1.3-5-1.9c-2.1-1.2-3.9-2.7-4.9-4.9
		c-0.1-1.6-0.2-3.2-0.3-5.2c-2.8,0.6-3.8,6.3-7.7,2.8c-3-2.9-6.8-5-9.1-8.6c0.6-3.3,3.2-4.9,5.9-6.1c4.8-2.2,9.4-4.6,14.1-6.8
		c6.5,13.5,15.1,25.6,26,35.9c-1.7-0.3-3.3-0.6-5-0.9C301.2,480.2,298.2,479.1,295,478.6z"/>
	<path class="st74" d="M283,446.6c-1.8,2.9-4.9,4.1-7.8,5.2c-4.7,1.7-8.8,4.1-12.2,7.7c-2.8-2.3-5-5.1-7-8c7.4-5.4,15.6-9,24.2-12.1
		C281.1,441.8,282,444.2,283,446.6z"/>
	<path class="st75" d="M293.8,387.6c-1.8,2.2-4.7,0.2-6.7,1.8c0.3-2.1-0.7-5.2,3.2-4.9C291.5,385.5,292.7,386.5,293.8,387.6z"/>
	<path class="st76" d="M162.7,374.7c1.1-1.4-0.4-0.9-0.9-1.4c-1.6-1.6-5.7,0.7-5.7-3.2c0-3.9-1.5-8.4,2.9-11.3
		c1.3-1.1,2.5,0,3.7,0.2c3.9,0.7,6.2-1,7.4-5.1c-6.7,4.6-13.6,4.4-20.6,1.5c-2.3-1-4.5-2.1-5.2-4.9c0-0.5-0.2-1.1,0.1-1.5
		c3.5-3.8,6.7-7.8,11.3-10.4c1.3,0,2.4,0.6,3.5,1.2c4.7,2.8,4.7,2.8,7.6-1.8c3.6-5.9,3.4-5.7,8.9-1.2c6.2,5.2,13.3,8.7,21.8,7.9
		c0.8-0.1,1.7,0,2.3,0.6c3.6,0.7,1.6,3,0.6,3.9c-4.2,4-4.6,9.8-6.9,14.7c-1.9,3.9-0.4,5.4,4,4.9c1.4-0.2,2.5,0.6,3.5,1.5
		c-0.4,1.9-2,2.6-3.5,3.2c-10.3,3.6-20.8,5.4-31.8,3.2C164.4,376.5,163.1,376.3,162.7,374.7z"/>
	<path class="st77" d="M144.9,351c8.6,7.1,19,7.1,25.8-0.3c2.1,3.4,0.9,6.2-1.7,8.4c-3.3,2.8-6.8,1.6-10-0.4
		c-9.1-0.4-16.6-3.8-21.7-11.6c-0.8-1.2-1.9-1.8-3-2.5c-8.1-5.6-11.4-13.1-9.4-21.3c2-8.2,10-14.7,19.2-15.8c8.6-1,16,1.6,22.3,7.7
		c1.7-4.1,3.1-8.1,6.7-10.6c2.3-0.1,2.6,1.4,2.5,3.2c-0.1,0.7-0.4,1.3-0.8,1.8c-11.4,14.3,3.1,30.9,17.3,31.7
		c4.3,0.2,8.6-1.1,12.8,0c0.5,0.7,0.5,1.4-0.1,2.1c-1.7,0.7-3.5,1.3-5.2,2c-11.9,1.9-21.1-3.1-29.5-11.9c0,4.2-5.5,5.9-4.3,10.7
		c-2.1-0.8-5.1-1.1-6.9-3.8c0.1-0.2,0.3-0.4,0.4-0.6c4.7-3.3,7.2-7.5,6.4-13.5c-1-7.3-4-12.8-11.7-14.9
		c-10.1-2.8-20.2,1.4-23.8,10.2c-2,4.8-1.3,9.4,1.3,13.8c1.5,2.5,3.2,3.4,5.2,0.3c2.6-3.9,6.4-5.1,10.9-4.3c0.5,0.1,0.9,0.2,1.4,0.4
		c0.9,0.4,1.8,0.9,2.1,1.9c-0.1,0.8-0.6,1.2-1.3,1.5c-1.1,0.4-2.3,0.3-3.4,0.5c-4.5,0.7-6.6,4.3-4.9,8.7
		C142.4,346.8,144,348.7,144.9,351z"/>
	<path class="st78" d="M221.9,358.3c5.9-5.1,12-10,17-16.1c1.3-1.5,2.8-2.9,3.1-5c0.3-2.3-0.1-4.1-3.1-3.7c-1,0.1-2,0.3-3,0.3
		c-1.5,0.1-3.5,0-3.6-1.7c-0.2-2.4,2.1-1.5,3.4-1.6c3-0.2,5.8-1.1,8.4-2.7c6.2-3.8,9.7-1.8,9.9,5.4c0,1.8-0.3,3.5-0.4,5.7
		c-3.1-1.5-2.1-5.4-5.6-6.4c1.1,7.1-3.3,11.5-7.7,15.7c-5,4.9-10.2,9.6-16.2,13.3C221.6,361.6,221.5,360.1,221.9,358.3z"/>
	<path class="st79" d="M162.7,374.7c13.3,2.9,26.1,1.7,38.3-4.3c6.6-2.2,11.9-6.7,17.8-10c1.9-0.5,2.8,0.6,3.4,2.2
		c-9.5,7.7-20.3,12.9-32.2,15.8c-1.1,0.3-2.2,0.7-3.3,1c-9.7,1.5-19.2,0.1-28.7-1.9c-4.7-2.1-10.1-2.5-14.4-6
		C150.2,371.4,156.1,375.1,162.7,374.7z"/>
	<path class="st80" d="M263.7,300.2c-2.1-3.4-5.9-3.2-8.9-4.7c-1.9-0.9-2.6,1.1-3.2,2.3c-0.9,1.8-3.1,3.8-1.1,5.7
		c4.3,4,2.2,7.7-0.4,13.2c-0.8-5.6,0.1-12.2-8.6-7.6c2.3-7.2,4.1-13.4,9.7-17.6c2.2-1.6,4.6-2.9,7.3-2.5c0.7,0.1,5-0.8,1.6,2.6
		c-0.9,0.9,0.9,1.4,1.4,2.1C263.1,295.6,264.7,297.3,263.7,300.2z"/>
	<path class="st81" d="M175,307.4c0-1.3-0.6-2.2-1.8-2.8c2-2.6,5-3.9,7.8-5.3c12.2-3.8,22.9-1.3,32.3,7.2c2.5,3.6,5.6,6.9,5.9,11.6
		c0.3,1,0.7,2.1-0.8,2.6c-1.8-0.6-2.1-2.4-2.8-3.9c-6.3-13.2-23.3-18.4-36.2-11C178,306.6,176.9,308.2,175,307.4z"/>
	<path class="st82" d="M218.1,320.5c0.4-0.8,0.7-1.6,1.1-2.4c3,10.7-2.6,20.7-14.2,25.3c0-0.6,0-1.2,0-1.8c-0.5-1.5,0.7-2.1,1.7-2.6
		c6.4-3.3,9.6-8.8,10.2-15.8C216.9,322.1,217.2,321.1,218.1,320.5z"/>
	<path class="st83" d="M222.2,362.6c-1.1-0.7-2.2-1.5-3.4-2.2c1-0.7,2-1.4,3-2.1c0.7,1.1,1.5,2.2,2.2,3.3
		C223.7,362.4,223,362.5,222.2,362.6z"/>
	<path class="st84" d="M366,462.5c-4.6,5-7.1,11-8.3,17.6c-0.5,2.8,2.5,3.2,3.5,5.2c-0.9,0.1-1.7,0.2-2.5,0.3
		c-1.4,1.2-3.1,0.9-4.7,0.5c-13.8-2.9-26.5-8.2-37.5-17.1c-2.1-1.7-4.9-3-4.6-6.5c1.4-5.9,1.8-6,7.9-3.6c2,0.8,4,1.5,6.6,2.5
		c-1.1-3.2-2.5-5.5-5-7.2c-2-1.4-3.9-3-1.1-5.4c0.6-0.5,1.2-1.1,0.6-1.5c-3.3-2.1-0.3-4.6-0.6-7.1c3.8,0.8,3.9,8.1,9.6,5.5
		c3.6-1.2,7.1,0.8,10.7,0.6c5.7-0.2,10.6-1.7,14.9-5.7c4.2-4,5.1-3.7,7.4,1.8c0.6,1.5,1.5,2.9,1.7,4.6c0,0.5-0.1,1-0.4,1.4
		c-2.4,2.4-6.6-0.5-8.7,2.9c-2.7,1.8-2.7,4.3-1.7,6.9c1,2.5,3.3,2.9,5.7,2.6C362,460.7,364.3,460.5,366,462.5z"/>
	<path class="st85" d="M366,462.5c-2,0.3-3.6-1.2-5.9-0.3c-2.8,1.1-6,0.5-7.6-2.7c-1.7-3.4-1-6.5,2.1-8.9c2,0.5,2,2.5,3,3.8
		c3.7,5,10.2,6.2,15,2.7c2.1-1.5,3.7-3.4,2.6-6.3c-0.3-1.7-3-2.5-1.8-4.8c2.1-1.1,3.8-0.2,5.4,1.2c1.8,1.7,3.6,1.2,5.4,0
		c3.9-2.6,5.6-7.3,4.5-12.8c-0.9-4.2-6.1-9.1-10.4-9.6c-5.7-0.7-10.2,1.2-12.4,5.3c-2.5,4.6-1.7,10.7,1.9,14.7
		c0.6,0.7,1.7,1.2,1.5,2.4c-1.7,1.7-3.4,1.7-5.1,0.1c-1.6-2.7-3.1-5.4-3.6-9.5c-8.6,10.2-18.8,12.1-30.5,7.9
		c-5.3-1.7-7.4-6.7-10.9-10.3l0.1,0.1c-2.2-6.9-2.9-13.7,1.3-20.2c5.3-8,13.2-10.7,22.4-10.7c7.1,1.7,13.5,4.6,17.5,11.2
		c1.8,3,2.8,6.3,3.2,10.5c5.7-5.6,12.1-7.3,19.4-4.7c1.8,1.2,3.5,2.4,5.3,3.6c9.5,11.3,6.7,22.8-7,28.2c-1,0.4-1.7,0.7-2.1,1.8
		C376.6,461.2,371.6,462.4,366,462.5z"/>
	<path class="st86" d="M312,462.5c12.6,13.7,28.6,20.7,46.8,23.1c1.6,1.2,3.5,0.5,5.2,1.1c0.7,0.3,1.2,0.7,0.9,1.6
		c-0.3,0.1-0.6,0.2-1,0.4c-1.7,1.2-3.2,1.2-4.7-0.3c-1-0.9-2.1-0.8-3.3-0.7c-14.7-2.4-27.8-8.6-40-16.9c-8-7.4-15.1-15.4-16.1-26.8
		c-2.4-0.8-2.3,2.2-4.2,2.2c-1.4-2.2-0.5-4.1,1.2-5.1c3.2-1.9,6.2-0.4,9.8,1.5c-4.6,0.2-3.9,2.5-3.2,5.1
		C305.1,453.4,308,458.2,312,462.5z"/>
	<path class="st87" d="M297.1,400.2c2.2,1.2,2.9,3.6,3.7,5.7c1,2.4,2,5.1-2.8,4.2c-4.4-0.8-2.5,3.5-3.7,6c-2.1-2.1-3.4-4-3.1-6.7
		c0.3-3.1,2.9-1.9,4.6-2.4c0.5-0.1,0.8-0.9,1.2-1.4C296.4,403.8,295.4,402,297.1,400.2z"/>
	<path class="st88" d="M308.5,434c-3-0.6-5.3-0.6-5.4-3.3c-0.1-1.7,1.4-2.3,2.8-1.9c2.1,0.5,4.6,1.1,4.7,3.7
		C310.7,434.1,308.8,434.1,308.5,434z"/>
	<path class="st89" d="M310.9,436.4c1.6,0.5,3.7,0.5,3.8,2.8c0,1.3-1.3,1.3-2.2,1.2c-1.7-0.3-3.8-0.7-4-2.9
		C308.4,436.2,309.9,436.5,310.9,436.4z"/>
	<path class="st90" d="M297.1,400.2c0,1.8-0.1,3.6-0.1,5.4c-1.3-2.7-3.6-4.6-6-6.9C293.7,397.8,295.4,399,297.1,400.2z"/>
	<path class="st91" d="M294.6,432c0,0.8-0.4,1.3-1.1,1.3c-1.4-0.1-2.7-0.5-3.2-1.9c-0.4-1,0.2-1.7,1.2-1.5
		C292.7,430.2,294,430.7,294.6,432z"/>
	<path class="st92" d="M319.1,435.3c-0.2,2-1.1,2.7-2.9,1.5c-0.8-0.6-1.6-1.6-0.8-2.5c1.6-1.5,2.3,1.2,3.7,1.1
		C319.1,435.4,319.1,435.3,319.1,435.3z"/>
	<path class="st93" d="M301,432.5c-2,1.5-3.3,1.1-4.4-0.4c-0.2-0.2,0-1.1,0.3-1.2C298.7,430.1,299.7,431.4,301,432.5z"/>
	<path class="st94" d="M299.6,437.4c-0.2,0.9-0.8,0.9-1.5,0.9c-0.9-0.1-1.7-0.6-1.7-1.5c-0.1-1.1,0.8-1.3,1.7-1.1
		C298.9,436,299.6,436.4,299.6,437.4z"/>
	<path class="st95" d="M365,488.3c-0.3-0.5-0.6-1.1-0.9-1.6c7.8,0,15.6,0.3,23-3c2.6-1.2,5.1-2.4,7-4.6c0.9-1.1,1.5-2.6,2.2-3.9
		c0.5-1-2.8-2-0.3-2.8c1.9-0.7,3.5,0.8,4.3,2.6c0.8,2-1.1,2-1.8,2.9c-5.1,6.7-12.3,8.6-19.9,10C373.9,488.9,369.4,488.3,365,488.3z"
		/>
	<path class="st60" d="M359.3,488.3c1.6,0.1,3.1,0.2,4.7,0.3c2.8,1.6,1.4,5.7,4.6,7.3c-4.4-1-7.6-3.7-10.7-6.4
		C357.1,488.9,358.7,488.6,359.3,488.3z"/>
	<path class="st96" d="M400.8,463.3c-0.1,1.6-1.1,2.3-2.3,2c-2.2-0.5-3.8-1.9-4.3-4.2c-0.3-1.3,0.9-1.6,1.9-1.5
		C398.5,459.8,399.7,461.4,400.8,463.3z"/>
	<path class="st97" d="M399.9,467.6c1.4,0.4,2.6,1.2,2.8,2.9c0.1,0.8-0.8,1-1.4,0.9c-1.5-0.3-2.7-1.2-2.9-2.8
		C398.3,467.7,399.1,467.6,399.9,467.6z"/>
	<path class="st98" d="M391.9,462c-0.1,0.7-0.5,1.3-1.2,1.1c-1.1-0.3-2-1.1-2.3-2.2c-0.2-0.7,0.5-1.2,1.2-1
		C390.5,460.3,391.7,460.6,391.9,462z"/>
	<path class="st99" d="M385.7,460.4c-0.1,0.9-0.7,1.1-1.3,1c-1-0.1-1.9-0.7-2-1.8c-0.1-0.9,0.7-1,1.3-0.9
		C384.8,458.8,385.5,459.3,385.7,460.4z"/>
	<path class="st100" d="M144.9,351c-2.8-1.9-4.5-4.6-5.2-7.9c-1.1-5.9,3.3-9.6,10.2-8.5c2.8,0.7,5.8,1.2,6.4,4.8
		c-0.8,0.3-1.9,0.3-2.2,0.8c-1.8,3.3-4.2,5.7-7.5,7.4C145.3,348.2,144.9,349.6,144.9,351z"/>
	<path class="st101" d="M156.3,339.4c-2.1-1.6-4.3-3.2-6.4-4.8c0.3-0.3,0.7-0.6,1-0.9c4.5,0.2,7,2.3,8.1,6.8c0,0,0.1-0.1,0.1-0.1
		C157.8,341,157.3,339.5,156.3,339.4z"/>
	<path class="st102" d="M218.1,320.5c0.8,10.2-4.7,16.5-13.1,21c-7.6,1.6-15.1,2-22.3-1.6c-13.9-7-17.1-20.4-7.7-32.6
		C189.7,294.9,214,302.1,218.1,320.5z"/>
	<path class="st103" d="M159,340.5c-1.9-3.2-4.8-5.2-8.1-6.8c-0.7-0.4-1.7-0.4-1.9-1.4c1.4-1.4,3.6-0.9,5.2-2
		c3.8-3.2,4.5-6.1,2.1-9.1c-2.4-3-5.3-3.1-9.3-0.2c-1.9,0.5-2.1,1.7-1.3,3.3c-1.3,3.7,3.1,5.1,3.5,8.1c-8.6-0.7-10.7,0.6-13.5,8.2
		c-10.3-6.4-10.3-20.7,0.1-27.8c8.1-5.5,19.8-4.7,26.8,1.8c6.5,6.1,6.8,17.5,0.7,23.8C162.1,339.7,160.9,340.9,159,340.5z"/>
	<path class="st104" d="M376.1,450.3c1.8,3.8-0.1,6.2-3,8.3c-5.4,3.9-16.9,1.7-18.5-7.9c2.5-3.3,6.1-2.1,9.4-2.2
		c0.8,0.8-1.8,1.2,0.3,2.9c3.9,3,7.6-0.2,11.1,1.2C375.2,451.7,375.3,450.9,376.1,450.3z"/>
	<path class="st105" d="M376.1,450.3c-1.4,3.5-7,5.4-10.3,3.3c-1.5-1-2.8-2.2-4.2-3.4c0.9-0.7,1.7-1.2,2.5-1.8
		c0-0.4,0.1-0.8,0.1-1.2c1.6,0.4,3.2,0.2,4.7-0.6c1.4-1.4,2.8-1.4,4.3-0.1C373.8,448,376.4,448,376.1,450.3z"/>
	<path class="st106" d="M340.1,445.4c-11,0-20.2-8.7-20.1-19.2c0-10.3,8.8-18.5,19.6-18.3c10.9,0.2,19.8,8.7,19.9,19
		C359.7,437.1,351,445.4,340.1,445.4z"/>
	<path class="st107" d="M373.1,446.5c-1.4,0-2.9,0.1-4.3,0.1c-6.9-2.8-8.4-13.2-2.8-19.3c4-4.3,9-5.1,14.2-3.4
		c5.8,1.9,9.4,6.2,10.1,12.4c0.6,5.5-1.6,9.8-6.3,12.6c-2.3,1.4-4.7,2.7-6.4-1.1C376.7,446.1,374.7,446.4,373.1,446.5z"/>
	<path class="st108" d="M190,321c-0.6-3.3-2.2-7,2.9-8.4c1.5-0.9,3.1-1.1,4.8-0.8c3.1,2,5.1,4.5,3.3,8.3c-1.7,3.5-5.1,4.2-10.4,2.3
		C190.2,322,190,321.5,190,321z"/>
	<path class="st109" d="M197.8,312.8c-1.6-0.1-3.2-0.1-4.9-0.2c4.5-3.2,9.6-2.9,13.3,0.6c3.5,3.3,4.2,8.4,1.8,12.3
		c-2.7,4.4-7.5,5.8-13,3.8c-0.6-0.6-0.6-1.2-0.1-1.9c1.5-0.6,3,0,4.4-0.2c3.7-0.5,6.4-2.5,6.8-6.2c0.4-3.5-1.6-6-5.1-7
		C200,313.6,199,313,197.8,312.8z"/>
	<path class="st110" d="M195,327.5c0,0.6,0.1,1.1,0.1,1.7c-3.5-1.7-7-3.3-5-8.3c-0.1,0.2-0.1,0.4,0,0.5
		C192.4,322.9,194.2,324.8,195,327.5z"/>
	<path class="st111" d="M145,324.5c-0.3-1.5-0.7-2.9,1-3.9c1-0.8,2.1-1.6,3.5-1.4c3,1.1,4.3,3.2,3,6.2c-1.2,2.8-3.5,3.9-6.4,2
		C145.2,326.6,144.7,325.7,145,324.5z"/>
	<path class="st112" d="M149,319.8c-1,0.3-2,0.6-3,0.8c1.4-3.3,4.3-3.5,7.1-2.9c3,0.6,5.1,2.7,5.7,5.7c0.7,3.4-0.6,6.2-3.7,7.9
		c-0.3-0.4-0.5-0.8-0.6-1.2c0-0.3,0-0.6,0.1-1C156.4,322.2,156,321.4,149,319.8z"/>
	<path class="st113" d="M154.9,330.2c0,0.4,0,0.7,0.1,1.1c-1.8,1.3-3.9,1.2-6,1.1c0,0,0.2,0.1,0.2,0.1c-4.9-3.5-5.4-4.4-4.1-7.9
		c0.4,0.8,0.7,1.5,1.1,2.3C148.2,330.2,152.3,328.3,154.9,330.2z"/>
	<path class="st114" d="M330,417.5c4.5-3,8.2-3,11.4,0.1c3.3,3.2,3.8,8.7,1,12.3c-2.7,3.4-6.1,4.4-10.1,2.5
		c-3.7-1.8-5.8-6.5-4.7-10.5c0.2-0.8,0.6-1.5,1.5-1.7c0.8,0.7,1,1.7,1.1,2.7c0.1,0.5,0.1,1,0.1,1.5c0.5,3.4,2.4,5.6,5.9,5.5
		c3,0,4.4-2.1,4.4-5c0.1-3.7-1.4-6.1-5.5-6C333.3,418.8,331.5,418.9,330,417.5z"/>
	<path class="st115" d="M330,417.5c1.9,0,3.8,0.1,5.7,0.1c3,1.2,3.1,3.6,2.5,6.2c-0.5,2.1-1.9,3.5-4.2,3.7c-2.9,0.3-4.2-1.4-4.9-4
		c0-1.2,0-2.3-0.1-3.5C329.4,419.2,329.7,418.3,330,417.5z"/>
	<path class="st116" d="M369,436.3c-1-3-2-6.1,2-7.8c0.7,0.8,2,0.3,2.8,1c3.1,5,2.2,7-3.6,7.8C369.7,437.1,369.3,436.8,369,436.3z"
		/>
	<path class="st117" d="M372.6,429.8c-0.9,0-2.1,0.4-1.7-1.3c3.3-1.2,6.3-0.9,8.1,2.4c1.7,3,1.7,6-1.1,8.5c-0.4-0.3-0.6-0.7-0.8-1.1
		C377.2,434.6,377.2,430.9,372.6,429.8z"/>
	<path class="st118" d="M377.9,438.3c0,0.3,0,0.7,0,1c-4.7,3.1-8.6,1.8-9-3.1c0.4,0.1,0.7,0.2,1.1,0.4
		C372.4,438.6,375.4,437.4,377.9,438.3z"/>
	<path class="st119" d="M195,327.5c-2.4-1.4-3.4-3.9-4.9-6c0.6,0,1.4-0.2,1.8,0.1c2.9,1.9,5.6,2,7.8-0.8c2.4-3.2,0.7-5.7-1.8-8
		c3.8-0.7,6.8,0.2,8.7,3.8c1.7,3.2,1.5,6-0.8,8.7C202.8,328.7,199.1,329.2,195,327.5z"/>
	<path class="st120" d="M154.9,330.2c-3.5,0.2-7.4,1.6-8.8-3.4c2.4,1.2,4.6,1,5.7-1.7c1.1-2.6-0.4-4.3-2.8-5.3
		c2.7-0.5,5.4-0.9,7.1,1.7C158.1,324.6,156.7,327.5,154.9,330.2z"/>
	<path class="st121" d="M329.2,423.6c1.6,2.3,3.6,4.5,6.5,2.3c3.3-2.5,2-5.5,0-8.3c4.9,0.5,6.5,2.5,6.4,7.4
		c-0.1,3.9-2.3,5.8-5.7,6.3C332.6,431.8,329.9,428.7,329.2,423.6z"/>
	<path class="st122" d="M377.9,438.3c-3,1.3-5.9,2.1-7.9-1.7c5.1-0.8,5.7-2.4,2.6-6.9C377.9,430.1,379,431.9,377.9,438.3z"/>
</g>
</svg>
