<?xml version="1.0" encoding="utf-8"?>
<!-- Generator: Adobe Illustrator 19.0.0, SVG Export Plug-In . SVG Version: 6.00 Build 0)  -->
<svg version="1.1" id="Laag_1" xmlns="http://www.w3.org/2000/svg" xmlns:xlink="http://www.w3.org/1999/xlink" x="0px" y="0px"
	 viewBox="0 0 380.6 262.7" style="enable-background:new 0 0 380.6 262.7;" xml:space="preserve">
<style type="text/css">
	.st0{fill:none;}
	.st1{fill:#070505;}
	.st2{fill:#E57F3E;}
	.st3{fill:#FCC8A1;}
	.st4{fill:#FDDCC3;}
	.st5{fill:#FDB481;}
	.st6{fill:#090607;}
	.st7{fill:#FDA870;}
	.st8{fill:#FDC195;}
	.st9{fill:#0B090A;}
	.st10{fill:#FDA266;}
	.st11{fill:#FDB685;}
	.st12{fill:#FCC7A0;}
	.st13{fill:#FBD8BB;}
	.st14{fill:#EDB0A1;}
	.st15{fill:#FAD8BC;}
	.st16{fill:#EF6656;}
	.st17{fill:#171312;}
	.st18{fill:#2B2727;}
	.st19{fill:#2A2524;}
	.st20{fill:#3F342F;}
	.st21{fill:#2F241F;}
	.st22{fill:#433833;}
	.st23{fill:#221815;}
	.st24{fill:#2C2928;}
	.st25{fill:#39312E;}
	.st26{fill:#38251B;}
	.st27{fill:#584740;}
	.st28{fill:#8B837E;}
	.st29{fill:#261F1D;}
	.st30{fill:#1B110E;}
	.st31{fill:#433834;}
	.st32{fill:#878382;}
	.st33{fill:#534945;}
	.st34{fill:#8B8683;}
	.st35{fill:#534C49;}
	.st36{fill:#3E302B;}
	.st37{fill:#564943;}
	.st38{fill:#5C4F49;}
	.st39{fill:#544F4D;}
	.st40{fill:#302B2A;}
	.st41{fill:#594B44;}
	.st42{fill:#251610;}
	.st43{fill:#0E0B0B;}
	.st44{fill:#211F1F;}
	.st45{fill:#5D5049;}
	.st46{fill:#574A44;}
	.st47{fill:#2F2521;}
	.st48{fill:#514C4A;}
	.st49{fill:#3F3531;}
	.st50{fill:#020203;}
	.st51{fill:#EDC8B2;}
	.st52{fill:#F1DAC8;}
	.st53{fill:#EFD0BC;}
	.st54{fill:#EED1BE;}
	.st55{fill:#F1E1D2;}
	.st56{fill:#E4D6C9;}
	.st57{fill:#E5C2AE;}
	.st58{fill:#F4E3D5;}
	.st59{fill:#EFD0BB;}
	.st60{fill:#F1D8C7;}
	.st61{fill:#FD8C45;}
	.st62{fill:#F0D7C5;}
	.st63{fill:#FDCCA8;}
	.st64{fill:#FD9D5C;}
	.st65{fill:#FDA971;}
	.st66{fill:#FC8F49;}
	.st67{fill:#DFBDAA;}
	.st68{fill:#2C2725;}
	.st69{fill:#DCBCAA;}
	.st70{fill:#B4A094;}
	.st71{fill:#FDBA8B;}
	.st72{fill:#110D0D;}
	.st73{fill:#FC8C46;}
	.st74{fill:#FD9E5F;}
	.st75{fill:#FA917D;}
	.st76{fill:#EECFBB;}
	.st77{fill:#060506;}
	.st78{fill:#060405;}
	.st79{fill:#070506;}
	.st80{fill:#080606;}
	.st81{fill:#0A0809;}
	.st82{fill:#191513;}
	.st83{fill:#2A2726;}
	.st84{fill:#F1D9C7;}
	.st85{fill:#060505;}
	.st86{fill:#0B0909;}
	.st87{fill:#1F1C1C;}
	.st88{fill:#C79B8A;}
	.st89{fill:#CBA291;}
	.st90{fill:#3D3632;}
	.st91{fill:#CBA797;}
	.st92{fill:#C8A594;}
	.st93{fill:#CAA291;}
	.st94{fill:#D9BBAB;}
	.st95{fill:#161110;}
	.st96{fill:#C89D8C;}
	.st97{fill:#C59786;}
	.st98{fill:#CDA391;}
	.st99{fill:#C79D8B;}
	.st100{fill:#F6E8DC;}
	.st101{fill:#625C58;}
	.st102{fill:#FDFDFD;}
	.st103{fill:#FDFDFC;}
	.st104{fill:#ECC9B4;}
	.st105{fill:#EED9CA;}
	.st106{fill:#FCFCFC;}
	.st107{fill:#FBFBFB;}
	.st108{fill:#F3F4F4;}
	.st109{fill:#141315;}
	.st110{fill:#3E3F41;}
	.st111{fill:#F8F9F9;}
	.st112{fill:#2B2F34;}
	.st113{fill:#26282A;}
	.st114{fill:#171F18;}
	.st115{fill:#F3F6F4;}
	.st116{fill:#E7E8E7;}
	.st117{fill:#283028;}
	.st118{fill:#232E26;}
	.st119{fill:#024E88;}
	.st120{fill:#044F88;}
	.st121{fill:#307C44;}
	.st122{fill:#357F48;}
</style>
<g>
	<path class="st0" d="M186,271c-63.5,0-127,0-190.5,0.1c-3.4,0-4.1-0.7-4.1-4.1c0.1-92.3,0.1-184.7,0-277c0-3.4,0.7-4.1,4.1-4.1
		c127,0.1,254,0.1,381,0c3.4,0,4.1,0.7,4.1,4.1c-0.1,92.3-0.1,184.7,0,277c0,3.4-0.7,4.1-4.1,4.1C313,270.9,249.5,271,186,271z"/>
	<path d="M131.7,1.6c8.6,6.8,16.3,14.3,21.7,24.1c0.6,1.1,2,2.4,2.9,2.3c1-0.1,2.3-1.6,2.6-2.7c0.5-1.9,1.8-3.5,1.6-5.7
		c4.9,6.8,7.7,14.3,9.6,22.2c0.3,1.1,0.8,2.2,0.9,3.3c0.6,4.1,2.5,3.3,5,1.6c5.2-3.7,11-4.6,16.8-2c7,3.1,10,10.7,7.7,18.3
		c-1.5,4.7-3.7,9.1-6.9,12.8c-1.1,1.4-2.1,2.4-1,4.3c5.8,10.5,2.9,20.4-3,29.6c-7,10.8-14.9,20.9-25.7,28.4c-2,0.7-3.7,0.4-4.7-1.7
		c-0.1-2.2,1.7-3.1,3-4.3c7.7-7.4,15-15.1,20.6-24.2c4.6-7.4,7.8-15.1,6.1-24.1c-1.2,2.3-3,3.8-5.9,2.9c-1.7-0.6-3-1.7-3.4-3.4
		c-0.5-2,1.4-2.4,2.7-3c5.3-2.6,9.1-6.7,11.9-11.7c3.5-6.1,2.6-11.3-2.2-15.7c-4.6-4.2-9.6-4.5-15.4-0.5c-5.8,4-8.7,9.9-10.2,16.6
		c-0.6,2.7-0.2,6.5-2.7,7.7c-3.4,1.6-3.9-3.2-6.1-4.6c-3.8-2.4-5.3-6.2-5.2-10.7c0-1.8,0.1-3.7-0.4-5.4c-0.3-0.8-0.7-1.6-1.4-2.2
		c-2.1-1-4.4-1.3-6.6-1.8c-3.1-0.7-6.2-1.3-9.2-2.4c-7.6-2.8-15-1.9-22.3,1c-7.9,3.1-15.9,5.8-23.4,9.7c-2.9,1.5-5.8,2.3-9.1,2
		c-7.8-2.8-13.2-0.9-18.7,5.9c-6.5,8-13.4,15.4-17.4,25.2c-6.8,16.4-2.1,34.3,12.3,44.8c6.4,4.7,13.4,7.9,21,10
		c3.6,1,7.3,1.7,11,2.4c1.6,0.3,3.3,0.4,4.1,2.2c0.2,0.9,0,1.6-0.6,2.3c-13.6-1.2-26.2-5.2-37.8-12.5c-11.3-7.1-17.6-17.4-19.5-30.3
		c-0.6-3.9-2.5-4.8-5.4-5.8c-8.1-2.9-13.8-12.8-11.5-19.9c2.6-8.2,12.6-11.3,22.3-6.9c3.5,1.6,8.8-0.8,8.9-4.7c0-2.5-2.6-4.5-5-5.3
		c-3.5-1.2-7.2-2.1-11-2.1c-4.9,0-9.9,0-14.9-0.5c6-4.7,12.8-7.5,19.6-10.5c2.5-1.1,6.8-1.6,6.6-4.1c-0.3-2.7-4.6-3.2-7.4-3.9
		C24.8,45.6,13.2,43.7,0,43.2c8.1-5.1,15.8-6.7,23.4-8.7c8.4-2.2,17.1-2.5,25.7-4c1.4-0.3,3.6,0.1,3.7-1.6c0.2-2.2-2.2-2.7-3.8-3.3
		c-9.1-3.1-18.3-6.1-27.7-8.2c-0.8-0.2-1.7-0.2-2.1-1.4c3.2-1.1,6.5-0.4,9.7-0.5c22.8-0.9,45,3.3,67,8.7c1,0.2,2.1,0,2.9,0.4
		c1,0.5,1.9,0.7,2.6-0.2c1.2-1.5-0.5-2.1-1.2-2.7C93.8,15.4,86.5,10,79.4,4.3c-1.1-0.9-2.1-1.9-4-3.5c7.6-1,13.5,1.7,19.4,3.5
		c11.2,3.4,21.6,8.4,31.1,15.3c0.9,0.6,1.6,1.2,2.7,0.6c2-1.2,2.5-4.1,2.1-5.2c-1.2-3.3,0.1-6.7-1.3-9.8
		C128.5,3,129.8,2.1,131.7,1.6z"/>
	<path class="st1" d="M324.3,258.1c-1.1-0.5-2-0.5-3.2,0c-14,5.8-28.5,4.9-43.1,3.5c-6.3-0.6-12.5-1.4-18.4-4c0-1.1,0.8-1.4,1.6-1.7
		c7.1,0.2,13.8,2.7,20.9,2.9c17.5,1.9,34.6,1.1,48-12.1c12.3-12,11.5-26,6.4-40.3c-1.6-4.4-5.7-7.3-9.5-10
		c-3.5-2.5-7.1-4.9-10.6-7.5c-1.8-1.7-4-3-6.1-4.4c-4.8-3.9-9-8.4-12.8-13.3c-2-2.6-4.2-3.7-7.7-3.3c-6.3,0.6-12.6,0.1-18.9,0.2
		c-6.7-0.6-13.4-1.6-20-2.4c-3.8-0.5-7.5,1.5-11.2-0.5c-0.8-0.7-0.9-1.5-0.6-2.4c1.2-2.1,3.3-2.3,5.4-2.4c2.3-0.2,4.5,0,6.8,0
		c3.3,0.3,6.5,1.3,9.8,1.1c0.8,0,1.6,0.2,2.4,0.4c2.2,0.8,4.6,0.5,6.9,1c5.4,1.2,10.9,0.8,16.4,0.4c6.5-0.4,8.6-4.2,6.1-10.3
		c-0.5-1.2-1.2-2.4-0.7-3.8c0.3-0.6,0.7-0.7,1.2-0.4c1.4,1.3,2.8,2.7,4.2,4c2.3,1.9,2,4.3,1.1,6.7c-0.8,1.9-1.5,3.7,0.4,5.4
		c1.2,1.3,2.2,2.8,3.3,4.2c1.4,1.7,3.1,3.2,4.3,5c1.7,2.7,4.7,4,6.9,6.2c8.2,7.1,18.1,11.8,26,19.8c1.9-3.9,0-7.8,1.7-11.1
		c0.3-0.4,0.7-0.5,1.2-0.3c1.2,1.3,0.6,3.8,2.8,4.5c0.1,0.1,0.2,0.3,0.2,0.4c-0.1,5.1-0.8,10.4,5.6,12.5c0.2,0.1,0.2,0.6,0.1,0.9
		c5.4,6.1,5.4,9.8-0.2,16.2c-1.1,1.2-2,2.2-0.3,3.5c0.2,0.9-0.4,1.2-1.1,1.4c-1.5,0-2.4,0.7-2.7,2.3c-2.1,12.3-9.6,20.6-19.7,27.1
		C326.1,258.4,325.2,258.5,324.3,258.1z"/>
	<path class="st2" d="M326.7,256.7c10.4-6.7,17.6-15.4,19.1-28.2c0.5-4.6,2.5-1,3.8-0.6c3,0.6,5.9,1.8,8.9,2.6
		c2.2,0.5,4.2,0.5,6.2-0.5c0.5,0,1,0,1.5-0.1c0.6-0.5,1.4-0.9,2.1-1.2c1.4-0.6,2.4-2.9,4.2-1.5c1.7,1.3-0.1,3-0.3,4.6
		c-1.5,2.2-1.7,5-3.3,7.2c-3,3.4-5,7.9-10.6,8.1c-2.8,0.1-0.4,4.2-3.1,4.8l-0.1,0c-3.2,1.8-6.9,2.2-10.1,4.1c-1,0.9-2,0-2.9-0.1
		C337.1,257.7,332,259.3,326.7,256.7z"/>
	<path class="st3" d="M169.5,193.4c-1.2-0.3-0.7-1.6-1.2-2.3c3.2-4.6,8.1-6.1,12.8-7.7c-0.7-0.7-4.6,2-3.5-2.3c1.9,0,3.9,0,5.8,0
		c6.3,0.4,11.6-2,16.5-5.6c2.1-1.5,4-3.3,5.8-5c3.2,0.2,5.9,4.5,4.7,8c-0.8,2.3-1.7,4.7-3.9,6.1c-10.4,2.5-19.3,8.4-29,12.8
		c-1.6,0.7-3,2.1-5,2C170.3,198,169.6,195.9,169.5,193.4z"/>
	<path class="st4" d="M230.1,135.9L230.1,135.9c2.6-1.7,5.6-2.7,8.7-3.5c2.8-0.7,5.5-1.9,8.5-1.5c1,0,2,0.3,3,0.6
		c1.1,1.1,0.2,1.8-0.6,2.4c-7.1,5.5-11.4,13.6-18,20.2c2.2,1.1,5.4,1.3,4.5,4.4c-0.9,3.1-3.5,1.4-5.4,1.3c-1.2-0.4-2-1.2-2.8-2.2
		c-2.2-2.3-4.2-4.9-6.3-7.4c-4-4.9-3.9-5.4,3.1-11.2C226.5,138.1,228.2,136.8,230.1,135.9z"/>
	<path class="st5" d="M261.6,162.9c-3.4,0.4-6.7-0.4-10-1.1c-3.5-2-4.3-4.4-1.8-7.4c5.1-6.3,9.6-13,15.9-18.2c1.2-1,1.1-2.3,2-3.2
		c0.7,0,1.3,0,2,0.1c2.3,1.9,5.8,1.9,7.3,5c-2.1,2.9-5.1,5.1-7.3,8c-0.7,0.9-1.9,1.7-2,2.8c-0.4,4.2-2.6,6.5-6.5,8.2
		C257.4,158.8,262.4,160.9,261.6,162.9z"/>
	<path class="st6" d="M260.8,256.9c-0.4,0.3-0.8,0.5-1.2,0.8c-5.6-0.6-10.3-3.6-14.5-6.7c-2.8-2-5.4-2.9-8.5-3.1
		c-0.6-0.6,0.6-2.1-1.1-2c-11.4-9.9-19.9-21.9-25.8-35.8c-1.2-2.4-2.2-5-3.2-7.4c-1-2.3-1.3-4.7-1.2-7.1c0.7-3-1.7-6.9,2.4-9
		c2.5,0.6,2,2.7,2.3,4.4c3.4,18.4,12.5,33.7,25,47.2c6,6.9,13.4,11.9,21.7,15.6C258.2,254.4,260.4,254.5,260.8,256.9z"/>
	<path class="st7" d="M206.5,196.2c0.4,2.2,0.8,4.5,1.2,6.7c-0.2,0.5-0.3,1-0.8,1.2c-8,3.3-15.7,7.3-23.2,11.5
		c-1.1-0.2-1.7-1.1-2.2-2l0-0.2c-2.6-3.8-2-7.7-0.5-11.6c6.3-1.5,12.3-3.7,18.1-6.7c2-1,4-1.7,6.2-0.8
		C205.9,194.8,206.1,195.5,206.5,196.2z"/>
	<path class="st8" d="M267.6,133.1c0,1.2,0.6,2.2-0.8,3.4c-6.2,5.4-10.8,12.3-16.1,18.5c-2.1,2.4-1.4,4.8,0.9,6.8
		c-2.3,0.8-4.6-0.3-7-0.1c-1.5-1.1-0.9-3.4-3.1-4.5c-1.1-0.5-0.6-3.7,0.6-5c6-6.8,10.3-15,17.5-20.9c2.3-0.4,4.4,0.4,6.4,1.4
		C266.6,132.9,267.1,133,267.6,133.1z"/>
	<path class="st9" d="M91.5,155c0-0.7,0-1.5,0.1-2.2c1.2-1.1,2.7-1.2,4.2-1c11.6,1.6,23.1,0.8,34.5-1.5c8.8-2.9,16.9-7.2,24.5-12.6
		c1.4-1,2.7-2.6,4.8-1.6c1.2,1.2,2.7,1.7,4.3,1.9c-11.2,9.2-24,15.3-38.3,17.7c-9.1,1.5-18.5,1-27.7,0.2
		C95.7,155.8,93.7,155.4,91.5,155z"/>
	<path class="st10" d="M312.3,181.1c-2.6-1.6-4.7-3.6-6.4-6.1c6.2-6.3,12-13.1,21.1-15.7c0.8,0,1.4,0.4,1.7,1.2
		c1.3,0,1.9,0.6,1.9,1.9c0.7,1,1.6,2,1.6,3.4C326.3,171.9,320.2,177.7,312.3,181.1z"/>
	<path class="st11" d="M326.5,160.2c-6.8,2.3-11,8.1-16.6,12c-1.3,0.9-2.1,2.6-4,2.8c-1.6-1.5-3.2-3-4.3-5c0-0.8,0.1-1.8,0.8-2.2
		c6.1-4,11-9.5,16.9-13.7c0.4,0.4,0.7,0.8,1.1,1.2C322.6,156.7,325.9,156.8,326.5,160.2z"/>
	<path class="st12" d="M319.4,154c-3.4,5.7-9,8.9-14,12.9c-1.3,1-2.7,1.9-3.8,3.1c-1.4-1-2.4-2.4-3.1-4c-0.2-2.5,1.3-3.9,3.1-5.3
		c3.5-2.7,7-5.5,10.5-8.3c0.6-0.4,1.3-0.6,2-0.5C316,152,318,152.2,319.4,154z"/>
	<path class="st13" d="M177.6,181c0.5,3.2,3.2,1.3,4.8,2.2c-4.7,2.6-9.3,5.2-14,7.8c-3.1-0.7-1.6-3-1.7-4.8
		c0.1-4.3-0.5-8.6,0.4-12.8c1.4-1.7,2.4-0.4,3.5,0.5C170.6,178.6,174.1,179.8,177.6,181z"/>
	<path class="st14" d="M202.5,155.3c2.4-7.2,5.3-9.2,14-9.3c0.9,0.4,1.5,1,1.2,2.1c-3.2,0.6-1.3,3.8-2.8,5.2
		c-0.4,0.6-0.9,1.1-1.6,1.4c-1.7,0.8-3.1,1.9-4.2,3.4c-1.1,1.6-2,4.1-4.4,2.9C202.5,160,201.5,157.9,202.5,155.3z"/>
	<path class="st15" d="M312.5,153.1c-2.8,2.3-5.5,4.7-8.3,6.9c-2.2,1.7-4.3,3.5-5.8,5.9c-2-1.5-3.1-3-1.3-5.6
		c1.6-2.2,1.7-4.9,0.4-7.4c0.2-0.2,0.4-0.2,0.5,0C302.9,151.2,307.8,150.3,312.5,153.1z"/>
	<path class="st16" d="M351.1,207.3c-0.3-0.4-0.7-0.7-0.9-1.1c-1.6-2.5-6.8,0.7-6.6-4.1c0.1-2.9,1-5.8,1.6-8.7
		c5.3-0.6,7.5,1.2,7.3,6.5C352.2,202.4,353.5,205.2,351.1,207.3z"/>
	<path class="st17" d="M206.5,196.2c-0.3-0.4-0.6-0.8-0.9-1.2c-2.2-3.9-2.1-7.6,0.8-11c2.5-4,5.1-7.9,1.1-12.5
		c-0.8-0.9-1.2-0.7-2-0.4c-0.5-0.4-0.5-0.8-0.1-1.2c0.3-0.3,0.5-0.6,0.8-0.9c0.9-0.6,1.8-0.9,2.8-0.5c3.3,3.6,5.3,8.3,9.1,11.5
		c0.9,0.8,1.2,2,0.4,3.1c-0.7,1-1.8,1.3-3.1,1.2c-1.3-0.1-2.1-1.4-3.1-1.8c-1.8,1.4-0.9,4.6-4,4.5
		C204.5,189.3,207.6,193.2,206.5,196.2z"/>
	<path class="st18" d="M209.4,169c-1,0-2-0.1-3.1-0.1c1.6-2.7-0.8-3.8-2.2-5.2c-2.4-2.5-3.8-5.1-1.6-8.4c-0.9,3.2,2,4,3.5,6.4
		c1.9-3.8,3.1-7.5,7.5-7.8c1.6,0.9,3.4,0.8,5.2,1c1.3,0.2,3.1,0,3,2.2c-0.9,0.9-2,0.9-3.2,1.1c-5.5,1-7.4,2.9-8.2,8.6
		C210.1,167.6,210.1,168.4,209.4,169z"/>
	<path class="st19" d="M181.6,201.6c0.2,4-1.5,7.9-0.1,11.9c-2-5.6-6.4-9.3-10.3-13.4c-1.4-1.5-3.5-3.8-1.7-6.6
		c1.1,1.8,2.2,3.7,3.2,5.5C175.3,201.1,178.4,201.5,181.6,201.6z"/>
	<path class="st20" d="M371.4,232c0.4-1.4,0.7-2.7,1.3-5.1c-2.4,1.9-4.2,3.1-6.4,3.1c2.9-3.3,5.8-6.6,8.7-10
		c0.5,0.4,0.9,0.8,1.4,1.1c-0.5,4.2-1.8,8.1-3.8,11.8C371.6,233.2,371.2,232.9,371.4,232z"/>
	<path class="st21" d="M355.3,251.9c0.8-2.2,1-4.3-0.9-6.6c7.8,3.4,10.2-3,14.1-6.4c0.2,0,0.4,0.1,0.5,0.1c0.1,2.6-1.7,4.4-3.3,5.7
		C362.4,247.4,358.7,249.5,355.3,251.9z"/>
	<path class="st22" d="M276.5,138c-2.1-2-5.9-1.3-6.9-4.9c7.4,1.1,13.2,5.4,18.9,9.8c-0.5,0.6-1.2,0.8-1.9,0.9
		c-1.2,0-2.4-0.4-3.4-0.9C280.8,141.3,278.4,140,276.5,138z"/>
	<path class="st23" d="M181.5,213.7c0.2,1.2,1.1,1.2,2,1.3c3.5,1.5,4.8,5.2,7.6,7.4c2.5,3.5,6.9,5.1,8.9,9.1c0,0.5-0.1,0.9-0.5,1.2
		C191.5,228.3,185.3,222.1,181.5,213.7z"/>
	<path class="st24" d="M200.7,176c-5,4.2-10.5,6.8-17.3,5.1c5.7-0.4,10.4-3.3,15.2-6C199.2,175.5,200.2,175.1,200.7,176z"/>
	<path class="st25" d="M217.9,147.9c-0.5-0.6-0.9-1.3-1.4-1.9c2.4-2.3,4.7-4.7,7.1-7c1-0.7,1.7-0.7,1.9,0.8
		c-0.7,0.6-1.5,1.3-2.2,1.9c-3.5,2.5-4.4,5.2-0.5,8.2c-0.2,0.7-0.6,1.2-1.3,1.4C219.3,151.1,218.1,150,217.9,147.9z"/>
	<path class="st26" d="M326.7,256.7c5.2,0.9,10.3-0.4,15.4-0.8c-2,2.7-5,2.5-7.7,2.6c-3.4,0.2-6.8,0.6-10.1-0.4
		C325.1,257.7,325.9,257.2,326.7,256.7z"/>
	<path class="st27" d="M364.8,230.1c-5.7,4-10.4,0.6-15.2-2.1c0.3-0.3,0.6-0.6,0.9-0.9C355.1,228.8,359.7,230.8,364.8,230.1z"/>
	<path class="st28" d="M250.5,132.1c-1-0.1-2.1-0.2-3.1-0.3c-1.8-1-4,0.5-5.8-0.9c7-1.5,14-2.1,21.1,0c-1.4,0.8-3.4,0.3-4.6,1.8
		C255.4,133.5,252.8,133.9,250.5,132.1z"/>
	<path class="st29" d="M167.8,173.1c-1.3,4.3,1.1,8.9-1.2,13.2c-1.1-4.8-1-9.6-0.1-14.4C167.5,171.7,167.9,172.2,167.8,173.1z"/>
	<path class="st30" d="M199.6,232.7c0-0.4,0.1-0.7,0.1-1.1c1.4-0.7,3.2-0.7,4.4-2c0.9-0.9,1.9-2.2,3.3-1.5c1.5,0.7,1.3,2.4,1.4,3.9
		c0,0.7-0.1,1.3-0.3,1.9c-0.3,0.7-0.8,1.3-1.7,1.1C204.7,233,201,236.4,199.6,232.7z"/>
	<path class="st31" d="M331.6,165.9c-0.4-1.2-0.7-2.3-1.1-3.5c4.4,1.8,5,6.2,7,9.8c0.8,1.1,0.4,1.8-0.8,2.1
		C333.5,172.4,332.8,169,331.6,165.9z"/>
	<path class="st32" d="M312.5,153.1c-4.8-1.8-9.6-0.7-14.4-0.2c0.6-0.7,0.6-2,1.9-2c4.7,0.3,9.5-1.2,14,0.9
		C313.5,152.4,313,152.8,312.5,153.1z"/>
	<path class="st33" d="M229.5,246c-3.3-1-6.7-2-10-3c0.8-1.1,2.1-1.4,3.3-1.7c3.3,0.4,6.8,0.6,8.9,3.8
		C231.5,246.4,230.7,246.8,229.5,246z"/>
	<path class="st34" d="M167.8,173.1c-0.4-0.4-0.8-0.8-1.3-1.2c0.4-1.2-0.9-3.6,1.5-3.4c3.3,0.3,2.5,3.2,2.5,5.4
		C169.4,174.3,168.6,173.7,167.8,173.1z"/>
	<path class="st35" d="M326.5,160.2c-1.5-2.3-5.1-1.9-6.1-5c3.6,0.3,6.8,1.5,8.2,5.3C327.9,160.4,327.2,160.3,326.5,160.2z"/>
	<path class="st36" d="M345,256c2.4-3.6,6.4-3.4,10.1-4.1C352.3,254.6,348.7,255.4,345,256z"/>
	<path class="st37" d="M336.7,174c0.3-0.6,0.5-1.2,0.8-1.8c2.1,2.6,2.8,5.7,3,8.9c-0.2,0.1-0.4,0.2-0.7,0.4
		C336.3,180,336.1,177.2,336.7,174z"/>
	<path class="st38" d="M206.6,234.9c0.4-0.3,0.7-0.7,1.1-1c2.5,0.6,3.9,2.6,5.1,4.7c-0.1,0.7-0.6,1.2-1.3,1.4
		C209,239.1,206.3,238.5,206.6,234.9z"/>
	<path class="st39" d="M238.5,132.9c-2.6,1.7-5.3,3-8.5,3.1c2-3.1,5.2-3.6,8.4-4.2c0.3,0.2,0.4,0.5,0.3,0.7
		C238.7,132.8,238.6,132.9,238.5,132.9z"/>
	<path class="st40" d="M286.1,143.1c0.8-0.1,1.6-0.1,2.4-0.2c1.8,1.8,4.4,3.1,4.9,6c-0.4,0-0.9,0-1.3,0c-1.3,0-2.1-0.7-3-1.5
		C287.9,146.2,286.2,145.2,286.1,143.1z"/>
	<path class="st41" d="M229.5,246c0.7-0.3,1.3-0.6,2-0.9c1.9-1.1,3.4,0,5,0.9c1.6,0.6,0,1.3,0.1,1.9
		C234.1,247.8,231.5,247.9,229.5,246z"/>
	<path class="st42" d="M342.3,189L342,189l-0.2-0.1c-3.5-2.1-3.8-4.4-1.2-8c0,0,0,0,0,0C341.8,183.5,342.3,186.2,342.3,189z"/>
	<path class="st43" d="M200.7,176c-0.7-0.3-1.4-0.6-2.1-0.9c2.3-1.8,4.6-3.5,6.9-5.3c0,0.4,0.1,0.8,0.1,1.2
		C204.4,173.1,202.7,174.7,200.7,176z"/>
	<path class="st44" d="M238.5,132.9c0-0.4-0.1-0.7-0.1-1.1c1-0.3,2-0.6,3.1-0.9c2,0,4-0.4,5.8,0.9
		C244.4,132.1,241.5,132.5,238.5,132.9z"/>
	<path class="st45" d="M368.9,239l-0.3,0.1c0,0-0.2-0.2-0.2-0.2c1.6-2,0.9-5.1,3-6.9c0.4,0.3,0.8,0.7,1.1,1
		C371.6,235.1,371.3,237.7,368.9,239z"/>
	<path class="st46" d="M211.5,240c0.4-0.4,0.7-0.8,1.1-1.1c2.2-1,3.8-0.2,5.1,1.5c0.1,0.9-0.4,1.3-1.2,1.6
		C214.7,241.8,213,241.2,211.5,240z"/>
	<path class="st47" d="M258.6,131.8c1.1-1.4,2.6-0.9,4-0.9c0.9,1.1,3.5-0.8,3.5,1.9c-2.2-0.2-4.3-0.5-6.5-0.7
		C259.1,132.3,258.8,132.2,258.6,131.8z"/>
	<path class="st48" d="M225.5,139.8c-0.6-0.3-1.3-0.5-1.9-0.8c2.1-1.2,3.6-3.6,6.5-3.1C228.9,137.6,227.3,138.9,225.5,139.8z"/>
	<path class="st49" d="M216.5,241.9c0.4-0.4,0.7-0.8,1.1-1.2c2.1-1.2,3.7-0.5,4.9,1.3c-0.8,1.1-2,0.8-3,0.9
		C218.5,242.6,217.5,242.3,216.5,241.9z"/>
	<path class="st50" d="M131.7,1.6c-0.6,1.3-2.3,1.9-2.2,3.6c-0.3-1.7-0.6-3.4-0.9-5.2C129.9,0,130.9,0.4,131.7,1.6z"/>
	<path class="st51" d="M159.6,136.1c-8.8,5.9-17.6,12-28,15c-6.5-0.9-12.5-3-17.1-7.9c-0.4-2.3,1.6-2.2,2.8-2.6
		c11.5-2.9,21.8-8.4,31.5-15.1c0.8-0.5,1.6-1,2.4-1.5c7.1-5.3,14-10.8,19.6-17.6c1.5-1.8,2.7-3.8,3.2-6.1c1.4-5.6,1.6-5.6,5.9-1.7
		c0.6-1.3,0.3-2.6,0-3.9c-0.9-3.9-3.1-4.9-6.6-3c-3.1,1.7-6.2,3.2-9.9,3.7c2.5,0.6,5.8,0.1,6.7,3.4c0.9,3.1-0.9,5.5-3,7.5
		c-5.5,5.5-10.7,11.5-17.1,16c-1.2,0.8-2.4,1.5-3.5,2.4c-5.9,3.5-11.1,8.4-18.2,9.7c-1.3-0.1-2.5-0.6-3.9-0.4
		c-4.6,0.6-6.1-0.9-4.9-5.5c1.4-4.9,2.8-9.9,5.7-14.3c1.1-1.7,2.2-3.3,1.9-5.5c0.8-2.3,3.2-1.9,4.8-2.9
		c11.4-5.4,15.6-12.6,13.8-23.6c-0.6-4.6-3.8-7.9-5.6-11.9c-1.6-7.1,2.9-12.8,4.4-19.3c2.6,0.1,5,0.8,7.3,1.8c-1,2.8,0.8,5.7,0,8.2
		c1.4-1.7-1.7-4.5,0.8-6.4c0.2,1.6,0.6,3.3,0.6,4.9c0,5.1,0.4,9.9,6.2,12.1c2,0.8,1.5,4,3.9,5.4c0.7-3.6,1.2-6.9,2.1-10.2
		c2.3-8.2,6.4-15,15-17.9c9.5-3.2,19.2,5.4,16.6,15.2c-2.4,9.1-8.4,15.2-17.2,18.4c4.4,4.9,5.1,4.9,8.8-0.6
		c2.9,6.6,2.8,10.9-0.8,18.7c-5.7,12.3-14.3,22.3-24.2,31.4C162.4,133.4,161,134.8,159.6,136.1z"/>
	<path class="st52" d="M76.5,149c-20.7-4.2-36.3-19.9-37.1-38.3c-0.6-14,5.5-25.7,14.1-36.3c2.5-3.1,6-5.5,8.2-8.7
		c4.7-7.1,10.7-7.9,17.9-4.7c2.9,0.9,5.6,0.7,8.4-0.9c4.2-2.5,9.1-3.6,13.7-5.5c2.8-1.2,5-0.1,5.5,2.9c0.3,1.8,1.5,3.3,1.7,5.1
		c-1.6,3.4-5.6,3.8-7.8,6.4c-2,2.1-3.5,4.4-4.6,7.1c-1.4,3.5-3,3.5-5.9,1.3c-8.7-6.3-18-7.4-27.5-2.1c-11.7,6.5-13.4,20-3.5,29.2
		c3.4,3.2,6.8,6.2,9.9,9.7c3.2,3.7,7.9,5.4,12.7,6.4c1.6,0.3,3.4,0,4.7,1.4c0.3,1.8-1.1,3-1.5,4.6c-1.2,4.8-0.3,6.7,4,8.9
		c1,0.5,3.4,0.7,1.8,3c-6.2,2-11.5-1.6-16.4-2.3c-1.5-0.4-1.1,0.7-1.1,0c0-0.1,0.2-0.2,0.5-0.1c3.8,1.7,8.6,1.2,11.7,4.6
		c-0.1,2.9-2.3,2.2-3.9,2.2c-5.5,0.1-5.5,0.1-4.1,5.4c0.1,0.4-0.1,0.6-0.3,0.9C77,149.3,76.8,149.3,76.5,149z"/>
	<path class="st53" d="M108.5,62.7c-1-1.6-3.5-2.1-2.6-5.2c0.6-2.1-2.2-3-3.8-2.1c-5,2.9-11.1,3.1-15.9,6.4
		c-2.5,1.7-4.6,0.2-6.7-0.7c2.7,0.5,5.1-0.3,7.6-1.5c9.1-4.4,18.5-8,28-11.3c5.8-2,11.5-2.8,17.4-0.5c3.9,1.4,7.9,2.2,11.9,3.3
		c3.2,3.1-1.8,4.7-1.4,7.7c0.4,3.1-4.3,6-1.1,9.8c0,0.1-0.9,0.9-1.3,1.4c-1.8,0.2-3.2-0.8-4.5-1.8c-7-5.3-14.9-6.9-23.5-5.2
		C111.4,63.3,109.9,63.9,108.5,62.7z"/>
	<path class="st54" d="M76.5,149c1.2-1.4-0.3-1.7-1-2.1c-2.1-1-1.6-2.5-1-4.2c0.7-2,2-1.6,3.6-1.5c2.5,0.2,5.1,1.7,7.5-0.2
		c1.6-1.5,3.4-0.8,5.2-0.5c6.2,1,12.5,2.1,18.8,1.2c1.6-0.2,3.3-0.1,4.7,1.2c4,1.5,7.4,4,11.5,5.5c1.7,0.6,4.5,0.7,5.9,2.8
		c-11.7,3.6-23.6,3.7-35.6,2.2c-1.5-0.2-2.9-0.3-4.4-0.5C86.7,151.1,81.2,151.5,76.5,149z"/>
	<path class="st55" d="M25.4,87c-0.4,3.4-0.9,6.8,0.8,10c0.4,0.9,0.5,0.9,1.4,0.4c0.2-0.1,0-0.9,0-1.4c-0.4-6.4,2.3-7.9,9-5
		c0.5,4.8-3,8.7-3.2,13.4c-0.1,1.1-1.2,0.7-2,0.6c-6.8-1.5-12-11.1-9.7-18C22.9,86,24.1,86.2,25.4,87z"/>
	<path class="st56" d="M25.4,87c-1.3,0-2.5,0-3.8,0c3.4-6.6,12.5-9.1,18.7-5.1c0.9,0.6,1.7,1.1,1.1,2.3c-0.8,1.5-1.6,2.2-3.5,1.4
		c-3.9-1.6-8-2.2-12.2-1.4C22.6,84.8,24.2,85.9,25.4,87z"/>
	<path class="st57" d="M36.5,91c-1.6,1-2.8-0.5-4.2-0.5c-3.6-0.1-4.5,2.6-4.8,5.5c-1.6-3.3-1.9-6.5,1.6-8.5
		C32.8,85.3,34.6,88.6,36.5,91z"/>
	<path class="st53" d="M152.7,54.7c-0.1,2.4-0.2,4.8-0.3,7.2c0-3.1-3.6-6-0.5-9.1C153,53,153,53.8,152.7,54.7z"/>
	<path class="st58" d="M209.4,169c-1.8-6,3.5-14.5,12.2-12.2c2.1-0.6,3.7,0.5,5.4,1.4c2.2,1.4,3.4,3.6,4.4,5.9
		c1.1,2.7,2.5,3.7,5,1.5c0.8-0.7,2-1.2,3.2-0.5c10.8-1.7,21.4,0.9,32,2.1c0.1,0.9-0.5,1.4-1.3,1.7c-3.4,0.7-6.9,0.8-10.2,2.1
		c-10.9,4.2-15.3,12.4-13,23.9c0.2,1.1,0.5,2.3,0.1,3.4c-0.5,0.4,0.2-0.1-0.3,0.4c-0.4,0.4-1,0.4-1.3,0.8c0.4-0.2,0.9-0.4,1.2-0.7
		c4.6,2.4,6.7,7.4,10.9,10.2c-1,3.1-3,1.7-4.7,0.9c-1.7-0.7-2.6-2.5-4-4.1c-0.7,3.1,1.7,5.8-0.3,8.6c-0.7,0.9,0.8,2,1.7,2.8
		c1.5,1.3,2.7,2.9,3.7,4.7c0.5,1,1.2,2.1,0.2,3.2c-0.8,0.9-1.8,0.4-2.8,0.2c-0.6-0.2-1.3-0.4-1.9-0.7c-3.9-2.1-7.5-2.8-10.1,2
		c-6.6-4.2-11-14.2-9-20.7c-2-0.7-3.8-0.7-6.9,1.2c3.5-0.9,4.7,0.3,5.2,2.3c1.9,9.1,7.1,16.2,13.7,22.5c0.6,0.6,1.1,1.3,1.3,2.1
		c0,0.5-0.2,1.3-0.6,1.2c-3.5-0.6-5.7,1.3-7.5,3.9c-0.2,0.4-0.9,0.3-1.4,0c-14-14.7-24.1-31.4-26-52.1c1.2-2.5,2.4-4.9,4-8.1
		c1.2,3.4,2.4,6.4,6.5,2.9C214.3,178.4,211,174.3,209.4,169z"/>
	<path class="st59" d="M316.6,187.9c3.3,2.2,6.5,4.7,10,6.6c22.2,12.3,17.6,49.1-3.2,59.6c-13.1,6.6-26.9,8.1-41.2,6
		c0.7-0.8,1.7-0.9,1.9-0.9c-1.5,0.3-4,0.4-4.8-2.2c-1-3.4,1.9-4.9,4.1-6.6c1.2-0.4,2.4-0.4,3.2,0.7c0.3,4,4.7,3.9,6.5,6.7
		c-0.3-2.3-2.4-3.9-1.6-6.2c0.4-0.3,0.8-0.5,1.3-0.5c7.6,0.1,15.1-0.1,22.4-3.1c4.1-1.6,6.7-4.8,9.7-7.5c0.9-0.8,0.5-1.8-0.5-2.7
		c-0.8,5.4-4.5,8.1-9,10c-7.8,3.4-16.1,3.3-24.4,3.2c-1.9,0.2-3.7,0.5-4.9-1.5c0.4-1.4,1.2-1.3,1.6-1c-4-1.2-4.2-4.4-3.1-8.6
		c1.5-5.7,3.7-10.9,8.5-14.6c5.3-1,10.4-2.3,12.8-8.1c0.4-1.1,1.9-1.3,2.9-1.7c10.8-4.5,13.7-13.2,7.8-23.4c-0.6-1-1.3-1.9-1.6-3.1
		C315.3,188.2,315.6,187.6,316.6,187.9z"/>
	<path class="st60" d="M283.5,251.1c-0.5,0.6-1.1,1.2-1.5,1.9c-0.9,1.2-3,1.9-1.8,4c1,1.6,2.4,1.9,4.2,1.3c0.6-0.2,1.4,0.5,3.5,1.2
		c-2.8,0.3-4.2,0.4-5.7,0.6c-7.3,0.2-14.3-2.2-21.4-3.3c-10.1-4.1-19.2-9.4-26.4-17.8c0.3-0.2,0.8-0.3,0.8-0.5
		c1.2-4.6,4.1-5.6,8.3-4.4c2.1-1,3.5,0.6,4.9,1.6c9.5,6.3,19.8,10.8,31,13C281,249.1,282.7,249.4,283.5,251.1z"/>
	<path class="st61" d="M340.6,181c-1.3,2.9-0.4,5.5,1.2,8c-0.9,4.4,1.4,9.3-1.8,14c-7.8-9.3-19-14-27.7-21.9
		c6.4-5.1,12.9-10.2,19.3-15.2c2.6,2.2,3.5,5.4,5.1,8.1C338,176.3,337.3,179.8,340.6,181z"/>
	<path class="st62" d="M270.3,168.1c0.4-0.3,0.8-0.6,1.2-0.9c7.2-0.5,14.5,0.8,21.7-1c2.1-0.5,2.6,1.1,3.4,2.1
		c4.6,5.7,9.2,11.2,14.9,15.8c0.2,1-0.4,1.4-1.2,1.7c-6.2-0.6-12.2-0.9-17.3,3.7c-1.3,1.2-3,1-3.4-1.1c-2-10.3-8.5-16.1-18.3-18.8
		C270.7,169.4,270.4,168.8,270.3,168.1z"/>
	<path class="st63" d="M258.6,131.8c0.3,0,0.6,0.1,0.9,0.3c-5.1,6.5-10.3,13-15.4,19.6c-1.6,2-3.8,4.1-0.1,6.4
		c0.7,0.4,0.4,2.4,0.5,3.7c-1.7,0.4-3.3,0.8-5,1.2c-0.5,0.4-0.9,0.9-1.5,1.2c-4.2,2.7-5.2,2.4-7-2.1c-0.4-1-1.1-2-0.4-3.2
		c0.5,0,1,0.1,1.5,0c1.1-0.3,2.8,1.4,3.2-0.7c0.4-2.2-1.4-2.2-2.9-2.2c-0.6,0-1.3-0.1-3.3-0.3c7.5-8.3,12.3-17.7,21.3-23.6
		C253.2,132,255.9,131.9,258.6,131.8z"/>
	<path class="st64" d="M286.1,143.1c1.2,1.3,2.3,2.5,3.5,3.8c0.7,0.9,0.7,1.9,0.1,2.7c-3.3,4.7-7,9.1-10.5,13.6
		c-2,2.6-5.8,1.1-8.8,0.8c-2.4,0.1-4.8,0-7.1-0.9c5.5-5.6,9.7-12.3,14.8-18.2c1.5-1.7,3-3.1,5.4-2.8
		C284.3,142.5,285.2,142.8,286.1,143.1z"/>
	<path class="st65" d="M283.5,142.2c-5.6,2.9-7.9,8.9-12.2,13.1c-2.7,2.6-3.2,7.5-8.1,7.9c-0.6-0.1-1.1-0.1-1.7-0.2
		c-4.9-4.3-4.7-6.3,1.7-8.2c3.3-1,1.3-3.2,2.2-4.6c2.8-4.8,6-9.4,11-12.2C279.6,138.1,281.3,140.5,283.5,142.2z"/>
	<path class="st66" d="M270.3,164.1c5,0.7,8.4-0.9,10.8-5.8c2.1-4.1,6.4-6.9,8.4-11.3c0.8,0.7,1.6,1.4,2.4,2.1
		c1.7,3.6,5.5,6.5,2.4,11.5c-1.2,2-1.9,3.6-4.4,3.7C283.4,164.7,276.9,165.4,270.3,164.1z"/>
	<path class="st67" d="M352.4,214c0.4,1.7,0.3,3.3-0.5,4.8c-1.2,2.4-2.7,5.4-5.3,5c-1.7-0.3-0.9-3.8-1.3-5.8
		c-0.6-3.6,2.5-2.5,4.3-3.1c0.6-0.2,1.1-0.5,1.7-0.8C351.6,213.7,352,213.7,352.4,214z"/>
	<path class="st68" d="M230.7,159c0.2,0.3,0.4,0.5,0.5,0.8c1,5.7,4.4,5.2,8.4,3.2c0,0.7,0,1.3,0,2c-3,0.1-4,5.2-6.9,3.5
		c-1.9-1.1-2.5-4.4-3.5-6.8c-0.6-1.4-2-1.7-2.8-2.7c0.3-1.1,1-1.8,2.1-2C229.2,157.7,230,158.3,230.7,159z"/>
	<path class="st69" d="M352.4,214c-0.4,0-0.7,0.1-1.1,0.1c-1.4-1.7-3-3-5.3-3.2c-2.4-0.2-3.6-1.4-3.5-3.8
		C348,207,350.4,208.7,352.4,214z"/>
	<path class="st70" d="M310.3,185.2c0.4-0.4,0.8-0.8,1.2-1.1c1.9,1,3.8,2.1,5.1,3.9c-0.3,0.3-0.7,0.6-1,0.9
		C312.7,189.2,311.3,187.4,310.3,185.2z"/>
	<path class="st71" d="M181.6,201.6c-3.9,2.3-6.9,1.6-8.8-2.7c6.1-4.1,12.7-7.1,19.4-10c4.6-2,8.5-6.2,14.2-5
		c-1.1,3.6-0.9,7.3-0.8,11c-6-0.4-10.4,3.8-15.7,5.6C187,201.6,184.5,202.2,181.6,201.6z"/>
	<path class="st72" d="M228.5,157c-0.4,1-1.1,1.6-2.1,2c-1.6-0.8-3.3-1.5-4.9-2.3c-1.9-1.7-4.1-0.7-6.1-0.8
		c-1.5-0.1-2.8-0.1-1.9-2.2c0.4-0.3,0.8-0.7,1.1-1c1.6-2.9,4.4-1.6,6.7-1.8c0.4-0.4,0.9-0.8,1.3-1.2
		C224.6,152.2,226.6,154.6,228.5,157z"/>
	<path class="st73" d="M222.6,242.1c-1.6-0.4-3.3-0.9-4.9-1.3c-1.7-0.6-3.3-1.3-5-1.9c-2.1-1.2-3.9-2.7-4.9-4.9
		c-0.1-1.6-0.2-3.2-0.3-5.2c-2.8,0.6-3.8,6.3-7.7,2.8c-3-2.9-6.8-5-9.1-8.6c0.6-3.3,3.2-4.9,5.9-6.1c4.8-2.2,9.4-4.6,14.1-6.8
		c6.5,13.5,15.1,25.6,26,35.9c-1.7-0.3-3.3-0.6-5-0.9C228.7,243.6,225.7,242.6,222.6,242.1z"/>
	<path class="st74" d="M210.5,210c-1.8,2.9-4.9,4.1-7.8,5.2c-4.7,1.7-8.8,4.1-12.2,7.7c-2.8-2.3-5-5.1-7-8c7.4-5.4,15.6-9,24.2-12.1
		C208.6,205.3,209.6,207.7,210.5,210z"/>
	<path class="st75" d="M221.4,151c-1.8,2.2-4.7,0.2-6.7,1.8c0.3-2.1-0.7-5.2,3.2-4.9C219,148.9,220.2,150,221.4,151z"/>
	<path class="st76" d="M90.2,138.1c1.1-1.4-0.4-0.9-0.9-1.4c-1.6-1.6-5.7,0.7-5.7-3.2c0-3.9-1.5-8.4,2.9-11.3c1.3-1.1,2.5,0,3.7,0.2
		c3.9,0.7,6.2-1,7.4-5.1c-6.7,4.6-13.6,4.4-20.6,1.5c-2.3-1-4.5-2.1-5.2-4.9c0-0.5-0.2-1.1,0.1-1.5c3.5-3.8,6.7-7.8,11.3-10.4
		c1.3,0,2.4,0.6,3.5,1.2c4.7,2.8,4.7,2.8,7.6-1.8c3.6-5.9,3.4-5.7,8.9-1.2c6.2,5.2,13.3,8.7,21.8,7.9c0.8-0.1,1.7,0,2.3,0.6
		c3.6,0.7,1.6,3,0.6,3.9c-4.2,4-4.6,9.8-6.9,14.7c-1.9,3.9-0.4,5.4,4,4.9c1.4-0.2,2.5,0.6,3.5,1.5c-0.4,1.9-2,2.6-3.5,3.2
		c-10.3,3.6-20.8,5.4-31.8,3.2C92,140,90.6,139.7,90.2,138.1z"/>
	<path class="st77" d="M72.4,114.5c8.6,7.1,19,7.1,25.8-0.3c2.1,3.4,0.9,6.2-1.7,8.4c-3.3,2.8-6.8,1.6-10-0.4
		c-9.1-0.4-16.6-3.8-21.7-11.6c-0.8-1.2-1.9-1.8-3-2.5c-8.1-5.6-11.4-13.1-9.4-21.3c2-8.2,10-14.7,19.2-15.8c8.6-1,16,1.6,22.3,7.7
		c1.7-4.1,3.1-8.1,6.7-10.6c2.3-0.1,2.6,1.4,2.5,3.2c-0.1,0.7-0.4,1.3-0.8,1.8c-11.4,14.3,3.1,30.9,17.3,31.7
		c4.3,0.2,8.6-1.1,12.8,0c0.5,0.7,0.5,1.4-0.1,2.1c-1.7,0.7-3.5,1.3-5.2,2c-11.9,1.9-21.1-3.1-29.5-11.9c0,4.2-5.5,5.9-4.3,10.7
		c-2.1-0.8-5.1-1.1-6.9-3.8c0.1-0.2,0.3-0.4,0.4-0.6c4.7-3.3,7.2-7.5,6.4-13.5c-1-7.3-4-12.8-11.7-14.9C71.6,72.1,61.5,76.3,57.9,85
		c-2,4.8-1.3,9.4,1.3,13.8c1.5,2.5,3.2,3.4,5.2,0.3c2.6-3.9,6.4-5.1,10.9-4.3c0.5,0.1,0.9,0.2,1.4,0.4c0.9,0.4,1.8,0.9,2.1,1.9
		c-0.1,0.8-0.6,1.2-1.3,1.5c-1.1,0.4-2.3,0.3-3.4,0.5c-4.5,0.7-6.6,4.3-4.9,8.7C70,110.2,71.6,112.1,72.4,114.5z"/>
	<path class="st78" d="M149.4,121.7c5.9-5.1,12-10,17-16.1c1.3-1.5,2.8-2.9,3.1-5c0.3-2.3-0.1-4.1-3.1-3.7c-1,0.1-2,0.3-3,0.3
		c-1.5,0.1-3.5,0-3.6-1.7c-0.2-2.4,2.1-1.5,3.4-1.6c3-0.2,5.8-1.1,8.4-2.7c6.2-3.8,9.7-1.8,9.9,5.4c0,1.8-0.3,3.5-0.4,5.7
		c-3.1-1.5-2.1-5.4-5.6-6.4c1.1,7.1-3.3,11.5-7.7,15.7c-5,4.9-10.2,9.6-16.2,13.3C149.2,125,149,123.5,149.4,121.7z"/>
	<path class="st79" d="M90.2,138.1c13.3,2.9,26.1,1.7,38.3-4.3c6.6-2.2,11.9-6.7,17.8-10c1.9-0.5,2.8,0.6,3.4,2.2
		c-9.5,7.7-20.3,12.9-32.2,15.8c-1.1,0.3-2.2,0.7-3.3,1c-9.7,1.5-19.2,0.1-28.7-1.9c-4.7-2.1-10.1-2.5-14.4-6
		C77.7,134.9,83.7,138.5,90.2,138.1z"/>
	<path class="st80" d="M191.2,63.6c-2.1-3.4-5.9-3.2-8.9-4.7c-1.9-0.9-2.6,1.1-3.2,2.3c-0.9,1.8-3.1,3.8-1.1,5.7
		c4.3,4,2.2,7.7-0.4,13.2c-0.8-5.6,0.1-12.2-8.6-7.6c2.3-7.2,4.1-13.4,9.7-17.6c2.2-1.6,4.6-2.9,7.3-2.5c0.7,0.1,5-0.8,1.6,2.6
		c-0.9,0.9,0.9,1.4,1.4,2.1C190.6,59.1,192.2,60.8,191.2,63.6z"/>
	<path class="st81" d="M102.5,70.8c0-1.3-0.6-2.2-1.8-2.8c2-2.6,5-3.9,7.8-5.3c12.2-3.8,22.9-1.3,32.3,7.2c2.5,3.6,5.6,6.9,5.9,11.6
		c0.3,1,0.7,2.1-0.8,2.6c-1.8-0.6-2.1-2.4-2.8-3.9c-6.3-13.2-23.3-18.4-36.2-11C105.6,70.1,104.5,71.7,102.5,70.8z"/>
	<path class="st82" d="M145.6,84c0.4-0.8,0.7-1.6,1.1-2.4c3,10.7-2.6,20.7-14.2,25.3c0-0.6,0-1.2,0-1.8c-0.5-1.5,0.7-2.1,1.7-2.6
		c6.4-3.3,9.6-8.8,10.2-15.8C144.5,85.6,144.7,84.6,145.6,84z"/>
	<path class="st83" d="M149.7,126c-1.1-0.7-2.2-1.5-3.4-2.2c1-0.7,2-1.4,3-2.1c0.7,1.1,1.5,2.2,2.2,3.3
		C151.2,125.8,150.5,126,149.7,126z"/>
	<path class="st84" d="M293.5,226c-4.6,5-7.1,11-8.3,17.6c-0.5,2.8,2.5,3.2,3.5,5.2c-0.9,0.1-1.7,0.2-2.5,0.3
		c-1.4,1.2-3.1,0.9-4.7,0.5c-13.8-2.9-26.5-8.2-37.5-17.1c-2.1-1.7-4.9-3-4.6-6.5c1.4-5.9,1.8-6,7.9-3.6c2,0.8,4,1.5,6.6,2.5
		c-1.1-3.2-2.5-5.5-5-7.2c-2-1.4-3.9-3-1.1-5.4c0.6-0.5,1.2-1.1,0.6-1.5c-3.3-2.1-0.3-4.6-0.6-7.1c3.8,0.8,3.9,8.1,9.6,5.5
		c3.6-1.2,7.1,0.8,10.7,0.6c5.7-0.2,10.6-1.7,14.9-5.7c4.2-4,5.1-3.7,7.4,1.8c0.6,1.5,1.5,2.9,1.7,4.6c0,0.5-0.1,1-0.4,1.4
		c-2.4,2.4-6.6-0.5-8.7,2.9c-2.7,1.8-2.7,4.3-1.7,6.9c1,2.5,3.3,2.9,5.7,2.6C289.5,224.2,291.8,223.9,293.5,226z"/>
	<path class="st85" d="M293.5,226c-2,0.3-3.6-1.2-5.9-0.3c-2.8,1.1-6,0.5-7.6-2.7c-1.7-3.4-1-6.5,2.1-8.9c2,0.5,2,2.5,3,3.8
		c3.7,5,10.2,6.2,15,2.7c2.1-1.5,3.7-3.4,2.6-6.3c-0.3-1.7-3-2.5-1.8-4.8c2.1-1.1,3.8-0.2,5.4,1.2c1.8,1.7,3.6,1.2,5.4,0
		c3.9-2.6,5.6-7.3,4.5-12.8c-0.9-4.2-6.1-9.1-10.4-9.6c-5.7-0.7-10.2,1.2-12.4,5.3c-2.5,4.6-1.7,10.7,1.9,14.7
		c0.6,0.7,1.7,1.2,1.5,2.4c-1.7,1.7-3.4,1.7-5.1,0.1c-1.6-2.7-3.1-5.4-3.6-9.5c-8.6,10.2-18.8,12.1-30.5,7.9
		c-5.3-1.7-7.4-6.7-10.9-10.3l0.1,0.1c-2.2-6.9-2.9-13.7,1.3-20.2c5.3-8,13.2-10.7,22.4-10.7c7.1,1.7,13.5,4.6,17.5,11.2
		c1.8,3,2.8,6.3,3.2,10.5c5.7-5.6,12.1-7.3,19.4-4.7c1.8,1.2,3.5,2.4,5.3,3.6c9.5,11.3,6.7,22.8-7,28.2c-1,0.4-1.7,0.7-2.1,1.8
		C304.2,224.7,299.1,225.8,293.5,226z"/>
	<path class="st86" d="M239.5,226c12.6,13.7,28.6,20.7,46.8,23.1c1.6,1.2,3.5,0.5,5.2,1.1c0.7,0.3,1.2,0.7,0.9,1.6
		c-0.3,0.1-0.6,0.2-1,0.4c-1.7,1.2-3.2,1.2-4.7-0.3c-1-0.9-2.1-0.8-3.3-0.7c-14.7-2.4-27.8-8.6-40-16.9c-8-7.4-15.1-15.4-16.1-26.8
		c-2.4-0.8-2.3,2.2-4.2,2.2c-1.4-2.2-0.5-4.1,1.2-5.1c3.2-1.9,6.2-0.4,9.8,1.5c-4.6,0.2-3.9,2.5-3.2,5.1
		C232.6,216.8,235.6,221.7,239.5,226z"/>
	<path class="st87" d="M224.6,163.7c2.2,1.2,2.9,3.6,3.7,5.7c1,2.4,2,5.1-2.8,4.2c-4.4-0.8-2.5,3.5-3.7,6c-2.1-2.1-3.4-4-3.1-6.7
		c0.3-3.1,2.9-1.9,4.6-2.4c0.5-0.1,0.8-0.9,1.2-1.4C224,167.3,223,165.5,224.6,163.7z"/>
	<path class="st88" d="M236,197.5c-3-0.6-5.3-0.6-5.4-3.3c-0.1-1.7,1.4-2.3,2.8-1.9c2.1,0.5,4.6,1.1,4.7,3.7
		C238.2,197.5,236.4,197.5,236,197.5z"/>
	<path class="st89" d="M238.5,199.8c1.6,0.5,3.7,0.5,3.8,2.8c0,1.3-1.3,1.3-2.2,1.2c-1.7-0.3-3.8-0.7-4-2.9
		C235.9,199.7,237.5,200,238.5,199.8z"/>
	<path class="st90" d="M224.6,163.7c0,1.8-0.1,3.6-0.1,5.4c-1.3-2.7-3.6-4.6-6-6.9C221.2,161.3,222.9,162.5,224.6,163.7z"/>
	<path class="st91" d="M222.2,195.5c0,0.8-0.4,1.3-1.1,1.3c-1.4-0.1-2.7-0.5-3.2-1.9c-0.4-1,0.2-1.7,1.2-1.5
		C220.3,193.7,221.6,194.2,222.2,195.5z"/>
	<path class="st92" d="M246.6,198.8c-0.2,2-1.1,2.7-2.9,1.5c-0.8-0.6-1.6-1.6-0.8-2.5c1.6-1.5,2.3,1.2,3.7,1.1
		C246.7,198.9,246.6,198.8,246.6,198.8z"/>
	<path class="st93" d="M228.5,196c-2,1.5-3.3,1.1-4.4-0.4c-0.2-0.2,0-1.1,0.3-1.2C226.3,193.5,227.2,194.8,228.5,196z"/>
	<path class="st94" d="M227.1,200.9c-0.2,0.9-0.8,0.9-1.5,0.9c-0.9-0.1-1.7-0.6-1.7-1.5c-0.1-1.1,0.8-1.3,1.7-1.1
		C226.4,199.4,227.1,199.9,227.1,200.9z"/>
	<path class="st95" d="M292.5,251.8c-0.3-0.5-0.6-1.1-0.9-1.6c7.8,0,15.6,0.3,23-3c2.6-1.2,5.1-2.4,7-4.6c0.9-1.1,1.5-2.6,2.2-3.9
		c0.5-1-2.8-2-0.3-2.8c1.9-0.7,3.5,0.8,4.3,2.6c0.8,2-1.1,2-1.8,2.9c-5.1,6.7-12.3,8.6-19.9,10C301.4,252.3,297,251.8,292.5,251.8z"
		/>
	<path class="st60" d="M286.9,251.8c1.6,0.1,3.1,0.2,4.7,0.3c2.8,1.6,1.4,5.7,4.6,7.3c-4.4-1-7.6-3.7-10.7-6.4
		C284.6,252.3,286.2,252.1,286.9,251.8z"/>
	<path class="st96" d="M328.3,226.7c-0.1,1.6-1.1,2.3-2.3,2c-2.2-0.5-3.8-1.9-4.3-4.2c-0.3-1.3,0.9-1.6,1.9-1.5
		C326,223.3,327.3,224.9,328.3,226.7z"/>
	<path class="st97" d="M327.4,231c1.4,0.4,2.6,1.2,2.8,2.9c0.1,0.8-0.8,1-1.4,0.9c-1.5-0.3-2.7-1.2-2.9-2.8
		C325.8,231.2,326.6,231.1,327.4,231z"/>
	<path class="st98" d="M319.4,225.5c-0.1,0.7-0.5,1.3-1.2,1.1c-1.1-0.3-2-1.1-2.3-2.2c-0.2-0.7,0.5-1.2,1.2-1
		C318.1,223.7,319.3,224,319.4,225.5z"/>
	<path class="st99" d="M313.3,223.9c-0.1,0.9-0.7,1.1-1.3,1c-1-0.1-1.9-0.7-2-1.8c-0.1-0.9,0.7-1,1.3-0.9
		C312.3,222.2,313.1,222.7,313.3,223.9z"/>
	<path class="st100" d="M72.4,114.5c-2.8-1.9-4.5-4.6-5.2-7.9c-1.1-5.9,3.3-9.6,10.2-8.5c2.8,0.7,5.8,1.2,6.4,4.8
		c-0.8,0.3-1.9,0.3-2.2,0.8c-1.8,3.3-4.2,5.7-7.5,7.4C72.9,111.7,72.5,113.1,72.4,114.5z"/>
	<path class="st101" d="M83.8,102.9c-2.1-1.6-4.3-3.2-6.4-4.8c0.3-0.3,0.7-0.6,1-0.9c4.5,0.2,7,2.3,8.1,6.8c0,0,0.1-0.1,0.1-0.1
		C85.4,104.5,84.8,103,83.8,102.9z"/>
	<path class="st102" d="M145.6,84c0.8,10.2-4.7,16.5-13.1,21c-7.6,1.6-15.1,2-22.3-1.6c-13.9-7-17.1-20.4-7.7-32.6
		C117.3,58.4,141.6,65.5,145.6,84z"/>
	<path class="st103" d="M86.5,104c-1.9-3.2-4.8-5.2-8.1-6.8c-0.7-0.4-1.7-0.4-1.9-1.4c1.4-1.4,3.6-0.9,5.2-2
		c3.8-3.2,4.5-6.1,2.1-9.1c-2.4-3-5.3-3.1-9.3-0.2c-1.9,0.5-2.1,1.7-1.3,3.3c-1.3,3.7,3.1,5.1,3.5,8.1c-8.6-0.7-10.7,0.6-13.5,8.2
		c-10.3-6.4-10.3-20.7,0.1-27.8c8.1-5.5,19.8-4.7,26.8,1.8c6.5,6.1,6.8,17.5,0.7,23.8C89.6,103.1,88.5,104.4,86.5,104z"/>
	<path class="st104" d="M303.6,213.8c1.8,3.8-0.1,6.2-3,8.3c-5.4,3.9-16.9,1.7-18.5-7.9c2.5-3.3,6.1-2.1,9.4-2.2
		c0.8,0.8-1.8,1.2,0.3,2.9c3.9,3,7.6-0.2,11.1,1.2C302.8,215.1,302.9,214.4,303.6,213.8z"/>
	<path class="st105" d="M303.6,213.8c-1.4,3.5-7,5.4-10.3,3.3c-1.5-1-2.8-2.2-4.2-3.4c0.9-0.7,1.7-1.2,2.5-1.8
		c0-0.4,0.1-0.8,0.1-1.2c1.6,0.4,3.2,0.2,4.7-0.6c1.4-1.4,2.8-1.4,4.3-0.1C301.3,211.5,303.9,211.5,303.6,213.8z"/>
	<path class="st106" d="M267.7,208.9c-11,0-20.2-8.7-20.1-19.2c0-10.3,8.8-18.5,19.6-18.3c10.9,0.2,19.8,8.7,19.9,19
		C287.2,200.6,278.5,208.9,267.7,208.9z"/>
	<path class="st107" d="M300.6,210c-1.4,0-2.9,0.1-4.3,0.1c-6.9-2.8-8.4-13.2-2.8-19.3c4-4.3,9-5.1,14.2-3.4
		c5.8,1.9,9.4,6.2,10.1,12.4c0.6,5.5-1.6,9.8-6.3,12.6c-2.3,1.4-4.7,2.7-6.4-1.1C304.2,209.6,302.3,209.8,300.6,210z"/>
	<path class="st108" d="M117.6,84.4c-0.6-3.3-2.2-7,2.9-8.4c1.5-0.9,3.1-1.1,4.8-0.8c3.1,2,5.1,4.5,3.3,8.3
		c-1.7,3.5-5.1,4.2-10.4,2.3C117.7,85.5,117.5,85,117.6,84.4z"/>
	<path class="st109" d="M125.4,76.2c-1.6-0.1-3.2-0.1-4.9-0.2c4.5-3.2,9.6-2.9,13.3,0.6c3.5,3.3,4.2,8.4,1.8,12.3
		c-2.7,4.4-7.5,5.8-13,3.8c-0.6-0.6-0.6-1.2-0.1-1.9c1.5-0.6,3,0,4.4-0.2c3.7-0.5,6.4-2.5,6.8-6.2c0.4-3.5-1.6-6-5.1-7
		C127.6,77,126.5,76.5,125.4,76.2z"/>
	<path class="st110" d="M122.5,91c0,0.6,0.1,1.1,0.1,1.7c-3.5-1.7-7-3.3-5-8.3c-0.1,0.2-0.1,0.4,0,0.5
		C119.9,86.4,121.7,88.3,122.5,91z"/>
	<path class="st111" d="M72.5,88c-0.3-1.5-0.7-2.9,1-3.9c1-0.8,2.1-1.6,3.5-1.4c3,1.1,4.3,3.2,3,6.2c-1.2,2.8-3.5,3.9-6.4,2
		C72.8,90.1,72.2,89.2,72.5,88z"/>
	<path class="st112" d="M76.5,83.2c-1,0.3-2,0.6-3,0.8c1.4-3.3,4.3-3.5,7.1-2.9c3,0.6,5.1,2.7,5.7,5.7c0.7,3.4-0.6,6.2-3.7,7.9
		C82.2,94.4,82,94,82,93.5c0-0.3,0-0.6,0.1-1C84,85.7,83.5,84.9,76.5,83.2z"/>
	<path class="st113" d="M82.5,93.7c0,0.4,0,0.7,0.1,1.1c-1.8,1.3-3.9,1.2-6,1.1c0,0,0.2,0.1,0.2,0.1c-4.9-3.5-5.4-4.4-4.1-7.9
		c0.4,0.8,0.7,1.5,1.1,2.3C75.7,93.7,79.8,91.8,82.5,93.7z"/>
	<path class="st114" d="M257.6,180.9c4.5-3,8.2-3,11.4,0.1c3.3,3.2,3.8,8.7,1,12.3c-2.7,3.4-6.1,4.4-10.1,2.5
		c-3.7-1.8-5.8-6.5-4.7-10.5c0.2-0.8,0.6-1.5,1.5-1.7c0.8,0.7,1,1.7,1.1,2.7c0.1,0.5,0.1,1,0.1,1.5c0.5,3.4,2.4,5.6,5.9,5.5
		c3,0,4.4-2.1,4.4-5c0.1-3.7-1.4-6.1-5.5-6C260.9,182.3,259,182.3,257.6,180.9z"/>
	<path class="st115" d="M257.6,180.9c1.9,0,3.8,0.1,5.7,0.1c3,1.2,3.1,3.6,2.5,6.2c-0.5,2.1-1.9,3.5-4.2,3.7c-2.9,0.3-4.2-1.4-4.9-4
		c0-1.2,0-2.3-0.1-3.5C257,182.7,257.3,181.8,257.6,180.9z"/>
	<path class="st116" d="M296.5,199.8c-1-3-2-6.1,2-7.8c0.7,0.8,2,0.3,2.8,1c3.1,5,2.2,7-3.6,7.8
		C297.2,200.6,296.8,200.2,296.5,199.8z"/>
	<path class="st117" d="M300.2,193.2c-0.9,0-2.1,0.4-1.7-1.3c3.3-1.2,6.3-0.9,8.1,2.4c1.7,3,1.7,6-1.1,8.5c-0.4-0.3-0.6-0.7-0.8-1.1
		C304.8,198,304.8,194.4,300.2,193.2z"/>
	<path class="st118" d="M305.5,201.8c0,0.3,0,0.7,0,1c-4.7,3.1-8.6,1.8-9-3.1c0.4,0.1,0.7,0.2,1.1,0.4
		C299.9,202,302.9,200.9,305.5,201.8z"/>
	<path class="st119" d="M122.5,91c-2.4-1.4-3.4-3.9-4.9-6c0.6,0,1.4-0.2,1.8,0.1c2.9,1.9,5.6,2,7.8-0.8c2.4-3.2,0.7-5.7-1.8-8
		c3.8-0.7,6.8,0.2,8.7,3.8c1.7,3.2,1.5,6-0.8,8.7C130.3,92.2,126.6,92.7,122.5,91z"/>
	<path class="st120" d="M82.5,93.7c-3.5,0.2-7.4,1.6-8.8-3.4c2.4,1.2,4.6,1,5.7-1.7c1.1-2.6-0.4-4.3-2.8-5.3
		c2.7-0.5,5.4-0.9,7.1,1.7C85.7,88.1,84.3,91,82.5,93.7z"/>
	<path class="st121" d="M256.7,187c1.6,2.3,3.6,4.5,6.5,2.3c3.3-2.5,2-5.5,0-8.3c4.9,0.5,6.5,2.5,6.4,7.4c-0.1,3.9-2.3,5.8-5.7,6.3
		C260.2,195.3,257.4,192.2,256.7,187z"/>
	<path class="st122" d="M305.5,201.8c-3,1.3-5.9,2.1-7.9-1.7c5.1-0.8,5.7-2.4,2.6-6.9C305.4,193.5,306.5,195.3,305.5,201.8z"/>
</g>
</svg>
