<?xml version="1.0" encoding="utf-8"?>
<!-- Generator: Adobe Illustrator 19.0.0, SVG Export Plug-In . SVG Version: 6.00 Build 0)  -->
<svg version="1.1" id="Laag_1" xmlns="http://www.w3.org/2000/svg" xmlns:xlink="http://www.w3.org/1999/xlink" x="0px" y="0px"
	 width="100%" height="100%" style="enable-background:new 0 0 515.9 728.5;" xml:space="preserve">
<style type="text/css">
	.st0{fill:none;}
	.st1{fill:#339833;}
	.st2{fill:#8F5B29;}
	.st3{fill:#339933;}
	.st4{fill:#F3F2E2;}
	.st5{fill:#F3F2E3;}
	.st6{fill:#F9E5BE;}
	.st7{fill:#8D5B2A;}
	.st8{fill:#F1F0E2;}
	.st9{fill:#211A11;}
	.st10{fill:#F1E0BD;}
	.st11{fill:#272F30;}
	.st12{fill:#99161F;}
	.st13{fill:#372B1F;}
	.st14{fill:#281F17;}
	.st15{fill:#9B282C;}
	.st16{fill:#1E1917;}
	.st17{fill:#2D2419;}
	.st18{fill:#464037;}
	.st19{fill:#EDECE0;}
	.st20{fill:#E5E5D8;}
	.st21{fill:#961922;}
	.st22{fill:#8A1D1C;}
	.st23{fill:#191A18;}
	.st24{fill:#3C342D;}
	.st25{fill:#393F41;}
	.st26{fill:#29231C;}
	.st27{fill:#695E54;}
	.st28{fill:#413121;}
	.st29{fill:#6C6255;}
	.st30{fill:#5F3134;}
	.st31{fill:#A39585;}
	.st32{fill:#634022;}
	.st33{fill:#DACDB2;}
	.st34{fill:#665E53;}
	.st35{fill:#5A4F46;}
	.st36{fill:#746D63;}
	.st37{fill:#726B58;}
	.st38{fill:#983743;}
	.st39{fill:#686458;}
	.st40{fill:#545040;}
	.st41{fill:#F0EDE5;}
	.st42{fill:#F8D297;}
	.st43{fill:#724B24;}
	.st44{fill:#573D20;}
	.st45{fill:#1F1913;}
	.st46{fill:#412A15;}
	.st47{fill:#4A3521;}
	.st48{fill:#121515;}
	.st49{fill:#86592A;}
	.st50{fill:#191916;}
	.st51{fill:#1C2627;}
	.st52{fill:#3A3B38;}
	.st53{fill:#3A4745;}
	.st54{fill:#201C15;}
	.st55{fill:#615A53;}
	.st56{fill:#8D2C29;}
	.st57{fill:#322011;}
	.st58{fill:#634121;}
	.st59{fill:#273A40;}
	.st60{fill:#26393F;}
	.st61{fill:#E8E8E8;}
	.st62{fill:#25393E;}
	.st63{fill:#151B19;}
	.st64{fill:#364C51;}
	.st65{fill:#151D1A;}
	.st66{fill:#1C2E31;}
	.st67{fill:#625A40;}
	.st68{fill:#7B7669;}
	.st69{fill:#282F30;}
	.st70{fill:#F9D497;}
	.st71{fill:#654121;}
	.st72{fill:#2B1E11;}
	.st73{fill:#7A5025;}
	.st74{fill:#395960;}
	.st75{fill:#614022;}
	.st76{fill:#192120;}
	.st77{fill:#25373C;}
	.st78{fill:#191F1E;}
	.st79{fill:#4E4536;}
	.st80{fill:#719171;}
	.st81{fill:#25383D;}
	.st82{fill:#EADAB9;}
	.st83{fill:#7D705D;}
	.st84{fill:#FAE4BE;}
	.st85{fill:#4E2115;}
	.st86{fill:#F2E6CB;}
	.st87{fill:#FCFAFA;}
	.st88{fill:#7D6146;}
	.st89{fill:#514940;}
	.st90{fill:#2E221D;}
	.st91{fill:#A56864;}
	.st92{fill:#F1E9E9;}
	.st93{fill:#A75B5C;}
	.st94{fill:#F8D596;}
	.st95{fill:#514A3E;}
	.st96{fill:#111410;}
	.st97{fill:#972022;}
	.st98{fill:#E7DDD5;}
	.st99{fill:#FED698;}
	.st100{fill:#121311;}
	.st101{fill:#221E1B;}
	.st102{fill:#29231A;}
	.st103{fill:#9E4E4A;}
	.st104{fill:#1E1B18;}
	.st105{fill:#282414;}
	.st106{fill:#9E3A34;}
	.st107{fill:#953C31;}
	.st108{fill:#D3BB8E;}
	.st109{fill:#403B2E;}
	.st110{fill:#876B41;}
	.st111{fill:#FCE5BF;}
	.st112{fill:#FBFBFB;}
	.st113{fill:#EEEFE3;}
	.st114{fill:#39585E;}
	.st115{fill:#C8BDA6;}
	.st116{fill:#375055;}
	.st117{fill:#352D26;}
	.st118{fill:#E5DDD1;}
	.st119{fill:#37575E;}
	.st120{fill:#F1D7A1;}
	.st121{fill:#4C4037;}
	.st122{fill:#964A41;}
	.st123{fill:#172020;}
	.st124{fill:#131C1F;}
	.st125{fill:#D5D4D4;}
	.st126{fill:#39575E;}
	.st127{fill:#121516;}
	.st128{fill:#1C2325;}
	.st129{fill:#727475;}
	.st130{fill:#273C41;}
	.st131{fill:#39545D;}
	.st132{fill:#27393E;}
	.st133{fill:#1B2322;}
	.st134{fill:#2C261D;}
	.st135{fill:#375458;}
	.st136{fill:#F2F5F1;}
	.st137{fill:#86876D;}
	.st138{fill:#98815A;}
	.st139{fill:#B76B5E;}
	.st140{fill:#E7D1A8;}
	.st141{fill:#C2AE90;}
	.st142{fill:#E0E1DD;}
	.st143{fill:#F8F5F4;}
	.st144{fill:#5C4023;}
	.st145{fill:#F2E7CB;}
	.st146{fill:#221F17;}
	.st147{fill:#F1D7AB;}
	.st148{fill:#E9E9EA;}
	.st149{fill:#544B41;}
	.st150{fill:#544336;}
	.st151{fill:#A9584D;}
	.st152{fill:#A56D56;}
	.st153{fill:#F9F9F8;}
	.st154{fill:#E3E2DE;}
	.st155{fill:#7C7E5E;}
	.st156{fill:#F5F6F5;}
	.st157{fill:#E0E0DD;}
	.st158{fill:#404338;}
	.st159{fill:#D4B9BA;}
	.st160{fill:#F0DDB1;}
	.st161{fill:#D4BE90;}
	.st162{fill:#F2D7A1;}
	.st163{fill:#8C7C57;}
	.st164{fill:#6D5429;}
	.st165{fill:#7C6C52;}
	.st166{fill:#8F9090;}
	.st167{fill:#379A35;}
	.st168{fill:#395860;}
	.st169{fill:#2D454A;}
	.st170{fill:#F3E1BD;}
	.st171{fill:#848066;}
	.st172{fill:#E2E3D2;}
	.st173{fill:#454226;}
	.st174{fill:#E8CF9E;}
	.st175{fill:#BDAB8B;}
</style>
<g>
	<path class="st0" d="M465,365c0,83.5,0,167,0.1,250.4c0,3.2-0.3,4.2-4,4.2c-135.1-0.1-270.3-0.1-405.4,0c-3.2,0-3.8-0.8-3.8-3.9
		c0.1-167.1,0.1-334.2,0-501.4c0-3.7,1.2-3.9,4.3-3.9c135,0.1,269.9,0.1,404.9,0c3.5,0,4.1,0.8,4.1,4.1C465,198,465,281.5,465,365z"
		/>
	<path class="st1" d="M304.3,277.6c2.6,0.6,4.7-1.3,7.2-1.3c3.8-0.1,5.6,0.9,5.6,5.3c-0.3,17.8-0.1,35.7-0.1,53.5c0,7,0,7,6.8,7
		c42,0,84,0.1,126,0c4.5,0,5.6,1.4,6.4,5.7c3.3,17.6,4.2,35.3,2.8,53c-1.6,19.9-6.1,39.1-14,57.5c-7.7,18-17.2,34.7-29.8,49.7
		c-12.3,14.7-26.2,27.4-42.1,38.1c-16.1,10.8-33.4,18.7-51.8,24.6c-21.5,6.9-43.5,9-65.9,8.6c-7.4-0.1-14.8-1.2-22.2-2
		c-2.3-0.3-4.6-1.1-5.2-3.8c-4-3.5-3.5-8.4-4.1-12.9c-1.9-13.8,1-27.4,2.6-41.1c0.7-6.5,0.2-13,0.3-19.5c0-4.5,0.8-8.7,2.2-13.1
		c3.6-10.7,5.9-21.9,6.6-33.1c1-16.2,1.2-32.5-2.5-48.6c-1.3-5.5,0-7,5.4-8.6c2.1-0.6,4.2-1.7,6.3-1.4c7.4,1,12.5-2.7,17.5-7.6
		c7.9-7.7,8.1-7.5,2.3-16.5c-6.1-9.5-12.7-18.7-18.4-28.5c-2.6-4.5-4.9-9.1-6.9-13.8c-1.9-4.6-1.1-6.5,3.8-7.5
		c8.6-1.8,16.5-5.1,24.1-9.3c8.5-4.7,15.9-10.8,21.5-19c0.7-1.1,1.8-2.2,1.8-3.5C290.8,280.7,297.1,278.7,304.3,277.6z"/>
	<path class="st1" d="M176,550.5c-0.1,0.5-0.3,1-0.4,1.4c-1.6,5.6-1.7,5.5-7.2,2.7c-15-7.8-28.7-17.9-40.5-29.6
		c-13.1-12.9-24.5-27.7-33.8-44.1c-8.7-15.4-15.2-31.5-19.9-48.4c-5.1-18.3-5.7-37.1-5.6-56.1c0-15.7,2.7-30.9,6.9-45.7
		c6.1-21.1,15.4-41,28.4-59c1.7-2.4,3.5-2.8,5.9-2.3c1.8,0.7,3,2.1,4.1,3.5c11.3,14.2,27,19.2,44.2,20.9c4.2,0.4,7.9,0.3,9.6,5.2
		c0.7,2.1,3.2,2.8,4.9,4.1c4.9,3.6,5.9,6.9,2.6,11.9c-2.8,4.3-4.6,8.3-3.1,13.5c0.7,2.5-1.1,4.8-1.5,7.2c-2,14.3-7.9,27.4-12.8,40.8
		c-2.1,5.9-0.8,9.4,5.3,10.9c4.2,1,5.3,3.3,5.2,7.1c-0.1,2.7-0.4,5.3-1,7.9c-3.6,20.8,2.4,39.2,13.5,56.5
		c4.8,7.4,7.7,15.8,10.4,24.1c0.8,2.5,0.4,4.9-1.1,7.1c-1.4,2.1-2.4,4.3-3.3,6.7c-4.2,10-6,20.6-6.5,31.4
		c-0.3,6.3-1.9,12.4-2.3,18.7C178,548.6,177.2,549.7,176,550.5z"/>
	<path class="st1" d="M258.1,195.3c-3.2-6.9-3.2-6.7,4-6.9c11.8-0.3,23.4,1.7,35,2.8c5.4,0.5,10.9,2.3,16.4,3.6
		c3.3,0.8,3.5,2.9,3.5,5.5c-0.1,11.3-0.1,22.6-0.1,33.9c-0.9,4.7-1.2,9.8-7.5,10.7c-0.3,0-0.8,0.2-0.9,0.4c-2,5.2-7.6,8-9.4,13.3
		c-2.1,6-5.7,10.8-10.3,15c-1.2,1-2.7,2-4.1,1.3c-3.6-1.9-6.1,0.3-8.5,2.1c-9.7,7.2-20.5,12.5-31.8,16.4c-8.1,2.8-16.6,3.2-25.1,3
		c-3.4-0.1-4.9-2.1-4.2-5.3c0.9-4.2-1.3-5.2-4.8-5.7c-4-0.5-7.9-1-11.9-1.1c-1.7,0-3.5-0.2-3.9-2.3c-0.4-2.1,1.4-2.8,2.9-3.5
		c2.9-1.4,6.1-1.6,9-2.8c8.6-3.5,15.5-9.1,21.4-16c2.6-3,5.2-4.1,9.1-3.2c16.5,3.6,32,0.3,46.8-7.5c1.3-0.7,3-1.3,2.8-3.1
		c-0.3-1.8-2.3-1.6-3.7-2c-10.3-3.1-20-7.3-27.2-15.8c-2.4-2.8-4-5.9-1.8-9C259.1,212,259.7,203.9,258.1,195.3z"/>
	<path class="st2" d="M114.2,153.6c2.1,0,1.9-1.7,2.1-3c2.8-0.8,5.1-1.8,5.2-5.4c0.2-3.9,4.1-3.1,6.2-4.4c6.9-7.9,16.4-9.2,26-10.7
		c9.2-1.5,18,0.7,27,1.5c4.1,1.2,8.3,1.4,12.4,2.6c1.7,0.5,3.5,0.8,4.9,2.2c0.1,4.1-3.3,5.1-6,6.3c-12.6,5.5-25.5,9.5-38.3,8.9
		c2-0.1,5.1,0,8.2,0c1.5,0,3.5-0.4,3.8,1.4c0.3,1.8-1.8,2-3.1,2.6c-7.2,1.6-14.4,1.3-21.6,0.1c-4.5-2.6-7.7,1.1-11.6,2.1
		c0.4,1.7,1.7,2.4,2.6,3.2c4.5,4.2,7,9.1,6.2,15.5c-0.2,1.8,0.1,3.6,0.6,5.4c0.5,4-0.4,7.5-2.9,10.7c-1.5-0.1-2,0.8-2.6,2.1
		c-1.1,2.5-2.3,5-3.9,7.3c-2,3.1-4,6.3-6.5,9.1c-1.1,1.2-1.8,2.8-3.8,2.6c-3.8-4.2,0.7-7.6,0.9-11.2c-1.1,2.8-2.1,6-3.8,8.8
		c-0.6,1-1.4,2-2.8,1.5c-1.3-0.5-1.4-1.7-1.4-2.9c0-2.1,1.3-3.9,1.3-5.5c-2.4,4-0.8,8.9-1.1,13.6c-0.1,1.5-0.1,3.3-1.8,3.8
		c-2.2,0.5-2.6-1.6-3.2-3.1c-4.8-12.1-4.4-24.4-1.4-36.8c-1.1,0.9-1.3,2.2-2,3.2c-4.3,8.1-6.2,16.8-5.4,25.9
		c0.1,2.3,1.8,4.3,1.7,6.7c-0.2,3.2-1.8,4.2-4.5,2.6c-4.3-2.5-6.9-6.5-9.1-10.8c-0.2-0.5-0.4-1-0.5-1.5c-1.3-9.1,3.2-16.5,6.7-24.2
		c2.2-4.3,5-8.2,8.2-11.8c1.6-1.7,2.7-3.3,2.2-6.1c-0.6-3.2,2.9-3.6,5.1-4.3C112.2,160.2,114.4,157.9,114.2,153.6z"/>
	<path class="st3" d="M209.8,493.8c-1.9,10.7-0.7,21.5,0.6,32.1c1.8,14.2,3.2,28.3,2.5,42.6c-0.2,3-1.7,3.4-3.8,2.9
		c-6.4-1.4-12.7-3.5-18.7-6c-2.9-1.2-2.6-4-2.2-6.5c1.8-11.2,3.2-22.6,6.5-33.5c0.3-0.9,0.2-2,0.3-2.9c0.2-4.9,2.3-9.2,3.9-13.7
		c1.4-4,3.3-7.9,4.9-11.9C204.8,494.5,206.1,491.5,209.8,493.8z"/>
	<path class="st4" d="M258.1,195.3c4.2,7.7,3,15.1-1.7,21.9c-3.2,4.7-2.3,7.9,1.3,11.7c7.6,8,17,12.2,27.4,14.4
		c1.7,0.4,3.3,0.5,3.8,2.5c0.5,2.1-1.3,3.1-2.6,3.8c-5.8,2.8-11.5,6.3-17.6,7.7c-10.3,2.3-20.8,4.2-31.4,1c-3.7-1.1-6-0.2-8.8,3.1
		c-8,9.5-18.1,16.3-30.7,18.8c-1.1,0.2-3.1-0.2-2.8,1.9c0.2,2,2.1,1.4,3.2,1.3c4.3-0.4,8.5,0.7,12.8,1.1c4.9,0.6,6.2,2.1,5.1,7
		c-0.9,3.8,1.1,3.9,4.1,4c21.4,0.8,39.4-8,56.3-19.9c2.6-1.8,4.8-4.2,8.8-1.5c2.3,1.6,4.4-2.1,5.6-3.8c3-4.2,7.2-7.9,7.1-13.8
		c0-0.5,0.2-1.3,0.5-1.3c5.1-1.5,6.1-6.2,8.3-10.1c0.2-0.4,0.8-0.9,1.2-0.9c6.9,0.3,6.4-6.2,9.1-9.8c0.4,0.7,1,1,1.8,1.1
		c1.3,2-0.5,3.5-0.9,5.3c-0.8,2-1.6,3.9-2.5,5.8c-0.7,1.6-1.8,2.9-3.7,2.3c-2.8-0.9-3.4,1-3.9,3c-0.2,0.5-0.2,1.1-0.6,1.4
		c-6.7,4.1-7.2,12.3-11.9,17.7c-3,3.5-5.8,7.4-11.2,7.3c-3-1.2-5.1,0.5-7.3,2c-8.6,5.8-17.8,10.4-27.2,14.6
		c-7.3,3.2-15.1,3.9-22.8,4.7c-0.5,0.2-1.1,0.2-1.6,0.3c-3.8,0.1-7.6,0.1-11.4,0c-3.3-0.1-5.1-1.4-3.8-5c2.8-6,2.3-6.8-4.3-6.9
		c-4.3,0-8.6-0.2-12.9-1c-1.9-0.3-4.3,0.1-5.1-2.3c-0.8-2.5,1-4,2.6-5.5c2.5-1.7,5.3-2.7,8.2-3.3c11.6-2.6,20.8-8.9,28.2-18
		c1.2-1.5,2.3-3.3,4.2-4.2c2.3-0.8,4.6,0,6.9,0.4c11.2,1.8,22.4,2,33.3-2.1c0.5-0.2,1-0.4,1.4-0.5c2.6-0.6,5.1-1.4,7.4-2.7
		c0.3-0.8,3.8-0.3,0.9-2.2c-1.7-1.1-3.7-1.8-5.9-2c-10.7-4.3-19.8-10.7-25.4-21.1c-0.2-2.2,1.2-3.8,2.2-5.5c4-5.8,6.7-12,4.4-19.3
		c-0.2-0.8-0.2-1.6,0.5-2.2C257.1,196.4,257.8,196.1,258.1,195.3z"/>
	<path class="st5" d="M304.3,277.6c-2.6,1.4-5.4,2.3-7.9,3.8c-2.9,1.7-4,3.5-4.3,7c-0.6,6.3-5.6,10.3-9.9,14.3
		c-10.8,10.2-23.7,16.5-38.2,19.7c-3.3,0.7-5.6,1.5-3.6,6.1c5.9,13.5,14.6,25.3,22.5,37.7c2.1,3.3,4.1,6.7,6.8,9.7
		c2.2,2.4,1.8,5.1-0.8,7.5c-4,3.6-8,7.3-11.9,11c-1.6,1.5-3.4,2-5.5,1.9c-4.2-0.1-8.2,0.4-12.3,1.5c-5.7,1.5-6.4,1.9-4.8,8
		c2.9,10.5,3.2,21.4,3.3,32.1c0.1,11.7-0.8,23.6-3.7,35c-1.6,6.3-1.8,13.1-5.7,18.7c-0.4,0.6-0.4,1.6-0.3,2.4
		c1.2,16.2-1.1,32.1-3.1,48.1c-1.3,10.6-0.1,21.1,2.9,31.4c-0.8,0.3-1.7,0.7-2.5,1c-0.9-0.4-1.2-1.2-1.5-2c-1-4.8-2.4-9.5-2.2-14.5
		c-0.3-11.2-0.1-22.3,2-33.3c0.6-7.2,1.4-14.5,1-21.7c-0.1-2.2-0.1-4.3-0.9-6.3c-0.6-2.2-1.3-4.4-0.4-6.6c0.6-1.3,2-1.7,2.8-2.7
		c2.7-7.6,4.8-15.4,5.6-23.5c3.2-21.7,3.3-43.2-3.2-64.4c-0.1-0.6-0.1-1.1,0.1-1.7c1.5-2.4,4.2-2.2,6.5-3.1
		c4.7-1.4,9.7-1.6,14.6-2.3c3.3-0.5,6-1.4,8-4.1c1.7-2.3,4.1-3.9,6.3-5.7c2.6-2.1,2.7-4,0.8-6.8c-6.2-9.3-12.5-18.5-18.4-28
		c-1.8-3-3.5-6-5.2-9.1c-2.5-4.3-4.1-8.9-6.6-13.2c-1.2-2.1-0.8-3.7,1.5-4.7c2.6-0.8,5.2-1.3,7.8-2.1c12.2-3.5,23.7-8.3,33.4-16.8
		c6.1-4.2,11.1-9.1,11-17.3c0.5-1.8,2-2.6,3.2-3.8c2.9-1.9,5.4-5,9.5-4C301.9,277.7,303.2,277.4,304.3,277.6z"/>
	<path class="st6" d="M224.9,524.5c-1.5,11.3-2.4,22.7-2,34.1c-2.6-3.2-1.6-7-1.6-10.5c0-2.3,0.2-4.5,0-6.8
		c-0.3-0.7-0.8,0.3-0.2-0.1c-0.2,11.2,0.9,22.3,3.2,33.2c0.9,6.4,4,12.3,3.5,19c-1.2,4.7-4.7,5.5-8.8,5.5c-7.1-0.2-7.7-0.7-7.9-6.2
		c-0.3-2.9,0.3-5.6,1.7-8.2c2-3.2,1.7-7,2.7-10.5c-0.2-3.4,0.5-6.6,1-9.9c1.6-10.5-0.8-20.8-2-31.1c-0.4-3.8-0.5-7.6-1.3-11.3
		c-0.2-1.2-0.2-2.4,0.5-3.4c0.7-0.7,1.7-1,2.7-1.3c6.9-2.4,7.6-1.9,7.6,5.6c-0.1,1.3-0.4,2.7-0.6,3.6c-0.3,1,0.5,0.6,0.4,0.5
		C223.5,525.7,223,524.4,224.9,524.5z"/>
	<path class="st7" d="M252,129.3c2.3-0.1,2.8,0.3,1.6,1.8c-2.1,2.9-4.5,5.5-6.8,8.2c-1,1.1-0.3,1.7,0.7,2.3c1,0.6,2,1.3,2.1,2.6
		c-2,4.6-5.4,1.2-8.2,1.9c1.6,2,0.6,3.2-1.9,3.5c-2.8,0.3-5.6,0.1-8.4,1c-11.2,1.8-22.4,3.1-33.7,4c-3.6,1.4-7.4,1.4-11.1,1.2
		c-1.4-0.2-2.9-0.3-3.4-2c1-2.2,3.2-2.8,5.2-3.5c6.7-2.4,12.8-5.6,18.2-10.1c2.8-2.3,6.1-3.1,9.8-3c8.8,0.1,17.6,0,26.3-1.6
		C246.4,134.7,250,133.4,252,129.3z"/>
	<path class="st8" d="M166.3,402.5c-0.4-1,0.4-1.9,0.4-2.8c0.2-2.6,0.4-5.3,0.2-7.9c-0.3-3.8-3.9-2.1-5.9-3.1
		c-5.5-2.8-7-5.7-4.8-11.4c5.8-14.8,11.8-29.6,14-45.3c1-7.1,0.5-14,5-20.2c2.2-3.1-0.6-5.6-3.2-7.3c-2.9-1.9-6.1-3.4-6.9-7.3
		c-0.5-2.4-2.6-1.4-4.1-1.5c-13.3-0.9-26.1-4-37.3-11.6c-5.6-3.8-10.3-8.7-13.9-14.6c0.8-0.1,1.7-0.1,2.5-0.2
		c2.1-0.1,3.2,1.5,4.2,2.9c2.6,3.6,5.8,6.6,9.6,8.9c10.3,6.4,21.5,9.3,33.5,9.9c4.2,0.6,8.8-1.5,12.7,1.6c-3.5,5.9,0.5,8.6,4.9,11.2
		c1.1,0.7,2.1,1.6,2.6,2.9c0.8,4.2-1.3,7.5-3.2,10.9c-0.8,1.4-2.1,2.5-2.4,4.2c-0.2,4.1,0.7,8.2-0.2,12.3
		c-3.4,14.4-7.6,28.5-13.3,42.2c-2.5,6-1.4,7.5,5.9,9.3c3.1,0.8,7.2,0.6,5.6,5.9c-0.9,1.5-1.7,3-0.8,4.8c0.1,1.6-0.7,3-1.4,4.4
		c-0.5,0.8-1,1.5-1.8,2C167.5,403.1,166.8,403.1,166.3,402.5z"/>
	<path class="st9" d="M252,129.3c0.1,4.2-3,5.5-6.2,6.3c-9.3,2.4-18.9,3.3-28.5,2.8c-4.6-0.2-8.2,0.9-11.8,3.9
		c-6.5,5.5-14.5,8.6-22.5,11.2c-3.7,3-8.3,2.8-12.7,3.4c-1.5-0.1-2.8,0.5-4.2,0.8c-8,0.3-16,1-23.9-0.5c-1.3-0.2-2.9-0.2-3.6-1.4
		c-1-1.7,0-1.9,1.5-1.3c7.7,0.6,15.3,1.4,23-0.1c14.3-3.7,28.8-6.7,41.9-15.4c-2.8-0.5-5.4-0.2-7-2.3c-5.6-1.4-11.3-2.8-16.9-4.2
		c0-2,1.2-1.4,2.2-1.1c7.9,0.9,15.8,1.8,23.8,2.6c11.3,1.1,22.5,2.7,33.9,0.8C245.3,134,248.5,131.6,252,129.3z"/>
	<path class="st10" d="M292,281.7c-1,1-2.1,2-3.1,3c-0.5,0.2-0.9,0.1-1.4-0.1c-1.2-0.9-1.9-2.2-2.2-3.7c-0.1-2.3,1.9-3,3.3-4
		c6.2-4.1,10.1-10,12.2-17c0.5-1.7,1-3,2.9-3.6c1.5-0.6,3-1.5,3.3-3.4c0.9-1.4,0.8-4.3,3.3-3.6c2.4,0.7,1.9,3.2,1.6,5.1
		c-0.3,1.9-1.5,3.8-0.5,5.8c0,3.6-2.7,4.4-5.6,5.1c2,0.2,4.1-0.4,5.6,1.5c0.2,0.4,0.3,0.8,0.4,1.2c0.9,1.6,2.4,0.4,3.6,0.7
		c1,0.3,2,0.6,1.9,1.8c0,1.2-0.9,1.7-1.9,1.8c-2.1,0.3-4.3,0.2-6.3,1c-1.2,0.2-2.4,0.1-3.6,0.2l0-0.1c-2.8,2.1-6.4,2.5-9.3,4.4
		C294.5,278.9,292.6,279.6,292,281.7z"/>
	<path class="st11" d="M317,240.4c0.6-1.6,1.2-3.3,1.8-4.9c6.2-11.8,12.2-23.7,19.1-35.1c1.7-0.2,2.6,0.4,2.2,2.2
		c-5.9,12.5-12.5,24.7-17.5,37.5c-0.7,1.7-1.2,3.4-1.7,5.1c-0.2,0.7-0.2,1.4-0.6,2c-1.2,1.5-2.8,2-2.8-0.5
		C317.4,244.7,318.1,242.5,317,240.4z"/>
	<path class="st12" d="M169.7,606.6c-4.3-2-4.5-6-4-9.8c0.4-3.4,1.6-6.7,2.5-10.1c2.6,0,1.8,2.3,2.4,3.5c0.1,0.5,0.1,0.9,0.1,1.4
		c0.7,5.3,1.8,6.2,7.1,5.5c0.1,0,0.2-0.2,0.3-0.3c0-0.2-0.1-0.3-0.1-0.5c0.9-2,2.1-3.7,4.7-3.3c2.6,4.4,2.2,8.9-0.8,12.5
		C178.4,609.7,173.8,607.7,169.7,606.6z"/>
	<path class="st13" d="M248.9,143.7c-1.2-1.3-3.6-0.8-4.2-2.9c-0.2-0.7-0.9-1.6,0.3-1.9c0.5-0.1,1.2,0.3,1.8,0.5
		c5.1,3,10.1,6.4,11.6,12.4c3.4,13.8,2.6,26.7-9,37c0,0.6-0.3,0.9-0.9,0.9c-3-3.4,0.2-5.9,1.6-8.2c2.8-4.4,4.9-8.9,5.9-14
		c0.8-4,0.5-7.5-1.8-10.8c-1.4-3.1-6-5.1-3.4-9.8C251.2,146.4,249.9,144.6,248.9,143.7z"/>
	<path class="st14" d="M183.2,131.4c-0.9,0.1-1.7,0.2-2.2,1.1c-8.8-0.6-17.6-2.6-26.5-1c-9.8,1.6-19.8,2.3-26.6,11.1
		c-2.2-0.1-2.6-0.6-3.1-4.3c0.3-1.2,1.5-2.6,2.2-2.3c4.4,1.9,6.9-1.7,10-3.3c10-4.8,20.4-5.5,31.1-3.8
		C173.2,129.6,178.2,130.5,183.2,131.4z"/>
	<path class="st15" d="M248.8,189.2c0.1-0.3,0.3-0.5,0.6-0.4c1.9,2.9,5.2,4.5,6.9,7.7c3.2,8.3,1.5,15.7-4.1,22.4
		c-0.8-0.2-1.3-0.7-1.6-1.5c0.5-4.5,3.7-8.4,3.1-13.2c0-1.1-0.1-2.2-0.8-3.1c-1.5-2.4-2.2-5.5-5.1-6.8c-3.2-0.7-6.4-0.2-9.6-0.4
		c-1,0-2.1,0-3.1,0c-2.7-0.1-5.2,0.8-7.9,0.8c-2.3-0.5-5.1-0.7-1.7-3.8c2.7-1.7,5.6-2.6,8.7-3.3c0.8-0.2,1.5-0.3,2.3-0.4
		C240.7,187.1,245,186.7,248.8,189.2z"/>
	<path class="st16" d="M125,281.6c-5.4-2.8-8.6-8-12.7-12.2c-4.2-8.7-8.4-17.5-12.6-26.2c-0.1-0.6,0.1-1,0.6-1.2
		c2.8-0.9,3.8,1.3,4.9,3.1c3,5.3,6.3,10.5,8.8,16.1c2.7,5.9,6.2,11.3,10.2,16.4C125,278.6,127.8,279.8,125,281.6z"/>
	<path class="st17" d="M114.2,153.6c1.7,3.2,2.2,5.9-2.1,7.4c-2.8,1-5.5,2.3-8.8,3.7c2.7,1.9,2.8,3.4,0.6,5.7
		c-3.8,3.9-7.5,8-9.9,13.1c-1.6,0.1-1.7-0.7-1-1.9c1.6-3.5,3.6-6.6,5.9-9.7c0.7-1,2.7-2.5-0.7-3.2c-2.7-0.5-0.8-2.2,0-3.2
		c2.6-3.2,6.5-4.6,10.1-5.9c4.8-1.7,4.6-3.2,0.4-5.3c-0.3-0.1-0.4-0.5-0.6-0.7c-0.1-0.1,0-0.3,0-0.6
		C110.3,152,112.2,153,114.2,153.6z"/>
	<path class="st18" d="M193.3,522.5c-3.9,11.3-5.3,23.2-7.4,34.9c-2.8-0.7-1.9-3.1-2.3-4.9c0.6-11.6,3.8-22.7,7.3-33.7
		c2.5-7,4.8-14.2,7.8-21c0.9-2,1.4-4.1,3.3-5.5c0.8-0.4,1.5-0.4,2.3,0.1c1.4,1.9,0.1,3.5-0.5,5.1c-2.7,6.9-5.9,13.7-8,20.8
		C195.3,519.9,194.8,521.6,193.3,522.5z"/>
	<path class="st19" d="M176,550.5c1.6-12.6,3-25.3,4.7-37.9c0.8-5.7,2.1-11.3,5.1-16.4c1.3-0.1,2.7-0.4,2.8,1.6
		c-4,12.2-6.3,24.8-6.7,37.7c-0.9,4.8-1,9.7-2.5,14.4c-0.5,1.5-0.2,3.4-2.5,3.7C176.8,552.5,177.2,551.3,176,550.5z"/>
	<path class="st20" d="M193.3,522.5c2.2-8.6,6-16.6,9.2-24.9c0.6-1.7,1.6-3.2,1.6-5.1c-0.2-2.9,0-6,3.3-6.7c2.8-0.5,5.6,0.4,6.2,4
		c-0.1,1.2-0.6,2.1-1.7,2.7c-0.9,0-1.7,0.3-2.1,1.2c-4.4-1.2-4.4,2.7-5.3,5c-2.7,6.5-4.9,13.3-7.4,19.9c-0.5,1.4-1.4,2.6-2.1,3.9
		C194.5,522.5,193.9,522.5,193.3,522.5z"/>
	<path class="st21" d="M211.2,592.7c0.9,4.1,3.5,5.7,7.6,4.9c2.9,1.2,4.9,3.1,4,6.5c-1,3.6-4,3.4-6.9,3.4c-1,0-2-0.4-3-0.2
		C207.5,603,209,597.9,211.2,592.7z"/>
	<path class="st22" d="M90.8,236.6c-2-2.9-0.7-5.1,1.4-7.1c0.5-1.5,1.7-2.1,3.1-2.6c6.1-3.4,12.7-1.3,19.1-1.8
		c1.4,0,2.8,0.1,4.1,0.6c1.7,0.8,2.2,2.2,1.7,4c-0.3,1-0.7,1.9-1.9,2.2c-1.9-0.4-3.8-0.5-5.7-0.1c-4.8,0.3-9.6,0.1-14.4,0.2
		c-1,0-1.9,0.1-2.8,0.5C92.6,232.5,93.9,236.9,90.8,236.6z"/>
	<path class="st23" d="M212.9,607.3c1.1-0.9,2.5-0.6,3.8-0.6c2,0,3.8,0,4.8-2.3c1.1-2.4-0.4-3.6-1.6-5.1c-0.4-0.5-0.7-1.1-1.1-1.6
		c3.1-0.6,7,0.3,8.1-4.2c1.5-0.3-0.4-3.3,2.2-2.9c2.8,11.9-2.7,19.1-13.5,18C214.4,608.4,213.7,607.9,212.9,607.3z"/>
	<path class="st24" d="M213.9,521.5c1.8,14.5,5,28.9,3.4,43.7c-0.4,3.4-0.9,6.8-1.4,10.2c-1,0.1-1.4-0.3-1.1-1.3
		c2.9-17.3-0.9-34.3-2-51.4C212.4,521.7,212.9,521.4,213.9,521.5z"/>
	<path class="st25" d="M340.1,202.7c-0.5-1-1.1-1.9-2.2-2.2c5-8.7,9.6-17.6,17-24.8C350.7,185.1,345.5,193.9,340.1,202.7z"/>
	<path class="st26" d="M95,228.3c-0.9,0.4-1.8,0.8-2.7,1.1c-1.2-5.6-4.5-10.3-7-15.3c-2.3-4.4-2.4-8.4-0.2-12.7
		c1.5-0.2,1.4,0.9,1.5,1.8c0.2,1.7-0.5,3.6,0.5,5.2l0,0c1.6,5.3,4.8,9.7,7.5,14.5C95.4,224.7,96.7,226.4,95,228.3z"/>
	<path class="st27" d="M184.9,552.3c0.6,1.7-0.5,3.7,1,5.1c-0.5,6.6-1.2,13.1-1.5,19.7c-0.3,5.1-0.2,10.2-0.3,15.4
		c-2.4-0.2-2.4-2.3-3.1-3.8c-1.1-11.2,0.6-22.3,1.8-33.4C182.9,554,183.2,552.6,184.9,552.3z"/>
	<path class="st28" d="M124.8,138.1c1.8,0.9,1.2,3.5,3.1,4.3c-0.5,0.6-1.5,1.7-1.6,1.6c-4.6-3.3-3.8,1.7-4.2,3.1
		c-1.2,5.1-1,5.1-5.9,3.5c-1-3.1-1-6.1,0.1-9.1c2.4,0.4,2,2.6,3.1,3.8C121.2,142.8,122.3,139.9,124.8,138.1z"/>
	<path class="st29" d="M308.7,272.4c2.4-1.6,5.7,0,8.7-2c-2.7-1.2-4.6,0.6-6.7,0.2c-0.6-0.1-1.5-0.2-1.2-1c0.1-0.4,1-0.7,1.5-1
		c1.1-1.3,2.8-1.7,4.3-2.2c1.3-0.5,2.5-0.5,1.9-3c-0.7-2.9,2.1-4,4.7-4.4c0.7,0.2,1.3,0.6,1,1.5c-0.6,4.4-1.1,8.9-5,12.1
		C314.9,272.9,311.8,274.3,308.7,272.4z"/>
	<path class="st30" d="M182,589.5c0.7,1,1.3,2,2,3c0.3,1.9,0.8,3.9,0.9,5.8c0.4,4.3-0.9,7.9-4.8,10.1c-3.9,2.1-7.3,0.9-10.4-1.8
		c2.3,0,4.6-0.2,6.9,0c2.8,0.2,4.9-0.6,5.6-3.5c0.7-3.3,2.6-6.8-1.1-9.6C180.3,591.9,180.8,590.6,182,589.5z"/>
	<path class="st31" d="M169.8,590.8c-1.5-1-0.3-3-1.7-4c2-10.1,4.9-19.9,8.6-29.4c0.9,0.1,1.5,0.7,1.9,1.5c0.4,1.1,0.3,2.3-0.1,3.4
		c-3.5,8.7-6.5,17.6-7.6,27C170.9,589.9,170.4,590.4,169.8,590.8z"/>
	<path class="st32" d="M87,208.5c-2.3-1.9,0.2-5.1-2-7c1.4-7.2,4-13.8,8-19.9c0.1,0.7,0.2,1.5,1,1.9C90.1,191.4,85.8,199.2,87,208.5
		z"/>
	<path class="st33" d="M320.1,246.5c0.3-0.4,0.5-0.8,0.8-1.2c1.8,0.8,3.6,1.6,5.4,2.3c-0.9,4.4-5.8,8.2-10.9,8.3
		c-2.1-3.4,0.6-5.2,2.7-6.7C319.2,248.5,319.8,247.8,320.1,246.5z"/>
	<path class="st34" d="M229,590.5c-1.4,0.4-0.5,2.6-2.2,2.9c0.5-6.4-3.2-12.2-3-18.5c-0.1-1-0.9-2.3,1.1-2.3c0.1,0.7,0.3,1.3,0.4,2
		C226.9,579.8,228.7,585,229,590.5z"/>
	<path class="st35" d="M213.9,521.5c-0.4,0.4-0.7,0.8-1.1,1.2c-1.6-6.9-1.3-13.8-1-20.8c0.1-3.2,0.1-6.3,0.1-9.5
		c0.3-0.7,0.6-1.4,0.9-2.1c1.8,1.5,1.5,3.7,1.9,5.6c-0.2,5.9-0.7,11.9,0.3,17.8c0.3,1.7,0.3,3.3-0.8,4.7
		C214.1,519.5,214,520.5,213.9,521.5z"/>
	<path class="st36" d="M178,558.5c-0.4-0.4-0.8-0.8-1.3-1.2c0.1-1.2,0.2-2.5,0.3-3.7c2.4-5.9,2.4-12.2,3.8-18.3
		c2.1,1.6,1.3,4.1,2.1,6.1C182.9,547.6,181.7,553.4,178,558.5z"/>
	<path class="st37" d="M315.3,255.2c4.6-1.1,8.4-3.3,10.9-7.6c3.8,1,1,2.8,0.1,3.6c-1.9,1.6-3.3,2.6-1.4,5.3
		c0.9,1.3-0.2,3.1-1.9,3.9c-0.4-0.3-0.8-0.7-1.1-1c-0.4-2-1-3.4-3.5-2c-0.8,0.5-1.8,0.7-2.8,0.2C315,256.9,314.2,256.2,315.3,255.2z
		"/>
	<path class="st38" d="M90.8,236.6c2.4-0.8-0.5-5.7,3.8-5c0.4,0.2,0.6,0.5,0.6,1c-1.5,2.4-0.5,3.9,1.8,4.9c0.6,0.3,1,0.8,1.3,1.3
		c0.5,1.2,3.2,1.5,1.7,3.6c0,0.3-0.1,0.5-0.3,0.7C96.4,241.6,92,241.2,90.8,236.6z"/>
	<path class="st39" d="M292,281.7c1.2-5.1,6-5.6,9.8-7.4c1.1-0.5,2.5-0.6,3.8-0.9c-0.6,2.3-3,2.1-4.5,3.2
		C297.6,277.6,294.8,279.7,292,281.7z"/>
	<path class="st39" d="M308.7,272.4c3.1,0.1,6.2,0.1,9.4,0.2c-4,1.9-8.2,2.6-12.5,1C306.2,272.2,307.5,272.3,308.7,272.4z"/>
	<path class="st40" d="M214.8,574.1c0.4,0.4,0.7,0.9,1.1,1.3c-0.7,3.3-1.4,6.6-2,9.9c0,0.1-0.2,0.2-0.3,0.2c-0.2-0.3-0.5-0.7-0.7-1
		C213.5,581.1,214.1,577.6,214.8,574.1z"/>
	<path class="st41" d="M187.8,496.5c-0.7,0.3-1.5,1-2-0.2c0-0.3-0.1-0.8,0.1-1c6.9-7.5,3.3-14.7,0.2-22.4c-4-9.7-10.5-18-14.5-27.6
		c-5.7-13.8-8.7-27.9-5.3-42.8c0.5,0,1,0,1.4,0c1.7,1.1,1.5,2.9,1.6,4.6c-1.5,18.4,3.4,35,13.4,50.5c4.9,7.5,8.3,15.9,11,24.5
		c0.6,2.1,1.5,4.1,0.4,6.3C192,491,191.2,494.8,187.8,496.5z"/>
	<path class="st42" d="M233.9,188.7c-2.6,0.9-5.3,1.8-7.9,2.7c-3.6-1.6-1.4-5.4-3-7.8c-3.5-6.2-7.7-6.4-11.7-0.4
		c-0.6,1-1.1,2-1.5,3.1c-1.6,4.4-1.6,8.8-0.5,13.2c0.3,4.8-2.7,9.1-2,13.9c-0.6,0.6-1.3,0.8-2.1,0.7c-6.2-1.9-7-4.4-2.5-8.8
		c2.2-2.1,2.4-4,1.3-6.6c-2.5-5.6-1.2-11.4,0.5-16.6c1.1-3.4,4.6-6.3,8.4-7.9c2.4-1.1,5.1-1.5,8.3-3.7c-3.7,0.9-6.1,0.5-8.7-0.5
		c-4.6-1.8-6.7-0.5-7.9,4.4c-0.4,1.8-0.5,3.7-1.6,5.2c-1,1.4-2.2,2.8-4.1,2.4c-2.1-0.4-2.1-2.4-2.1-4c-0.1-5.4-2.1-10.7-0.8-16.7
		c-3.2,1.8-6.3,1.5-9.4,1.5c-10.8-0.2-21.5,1.4-32.4,0.9c-2.7-0.1-5.3-0.9-7.9-0.5c-3.1,0.4-4.7,1.5-4.4,5.2
		c1.1,10,2.9,10.8,12.2,5.8c5.5-3,11.6-3.9,17.7-1.3c2.2,0.9,4,2.1,3.6,4.7c-0.4,2.6-2.7,2.6-4.7,2.5c-1.2-0.6-1.4-1.7-1.6-2.9
		c0,1.2,0.8,2.1,1.2,3.1c-2.1,3.2-4.8,4.3-8.9,3.7c-5.5-0.9-10,2.6-15,4.7c1.4,2.9,3.8,2.8,6.1,2.6c3.1-0.3,6,0.1,8.3,2.3
		c1.6,1.5,3.7,1.2,5.6,1.5c4,0.8,5,3.5,2.6,7.1c-4.8-0.4-8.9-3.2-13.4-4.6c-5.1-1.6-9.8-2.9-14.3,1.3c-4.6,4.3-5.9,9.3-3.5,15.2
		c0.2,0.5,0.2,1,0.3,1.4c0.4,4.1-3.3,4.9-5.6,6.8c-1.6,0.9-2.8,2.3-4.1,3.6c-3.5,3.6-5.2,3.6-9-0.1c-0.5-2.1,0.5-3.9,1.5-5.6
		c3-5.3,5-11.1,8.1-16.3c2.9-3.3,2.9-8.2,6.2-11.3c1.7-3.4,3.1-7,3-11c-0.5-1.3-0.2-2.7,0-3.9c1.2-6.6-0.4-12.1-5.6-16.5
		c-1-0.9-3-1.7-2.3-3.5c0.7-1.8,2.6-0.8,4-0.8c10.6,0.1,21.1,1.5,31.8,1.1c2.2-0.1,4.3,0,6.4-0.7c8.8-0.4,17.4-1.7,26.2-2.3
		c1.6,0.1,3.3,0.1,4.6,1.4c0.3,3.8-3.5,6.4-3,9.9c1.9-5,6.4-4.3,10.6-3.9c1.9,0.2,3.2,0.5,2.8-2.1c0.3-1.1,1.1-1.5,2.2-1.4
		c5.1,3.6,9.2,8,12.2,13.5c1.7,3.6,3.6,7.1,5.2,10.7C233.9,184.8,235.2,186.6,233.9,188.7z"/>
	<path class="st32" d="M95,228.3c-0.4-4.7-3.8-7.9-5.7-11.9c-1.2-2.6-2.4-5.1-2.3-8c2.8,3.6,4.7,7.9,8.8,10.3
		c0.8,0.5,1.4,1.7,2.5,1.1c1.2-0.7,0.6-2.1,0.7-3.2c0.1-2-2.6-3.1-1.9-5.4c0.3-9.3,3.2-18.1,5.8-27c0.6-2.7,1.9-4.9,5.2-6.7
		c-3.9,15-5.1,29.4,2.2,43.4c1.1-6.5-0.3-13.4,3.3-19.4c1.6,3.3-1.5,6.8,0,10.9c4.3-4.3,4.1-10.3,7.9-15c0.9,3.9-0.4,6.7-1.6,9.5
		c-1,2.2-1.6,4.3,0.2,6.4c0.9,5.3-3.2,8.6-5,12.9c-3.6,0-7.2,0.1-10.8,0.1C101,226.4,97.8,226.3,95,228.3z"/>
	<path class="st43" d="M197.9,136.6c3.1,0.4,6.1,0.9,10.7,1.5c-14.6,9.6-29.3,15-45.6,16.2c0.7-0.4,1.3-0.9,2.6-1.8
		c-6.3,0-12,0-18.2,0c1.6-2.9,3.7-2.1,5.4-2c9.8,0.1,19.5-1.6,28.5-5.3C187,143,194,142.6,197.9,136.6z"/>
	<path class="st44" d="M172.3,158.7c-7.2,1.5-14.5,0.9-21.8,0.6c-6.6-0.3-13.2-0.9-21-1.5c10.3,6,12.1,14.1,8.6,23.8
		c-1.7-1.4-1.3-3.4-1-5.1c1.2-7.2-2.7-11.9-7.5-16.2c-1.1-1-2.1-1.9-3.1-3.5c4.9,0.9,8.2-5.8,13.5-2.4c-0.2,0-0.3,0.1-0.5,0.1
		c-0.5,0.2-0.8,0.7-0.1,0.8c5.3,1.2,10.8,1.2,16.2,1.1c3.8,0,7.6-0.1,11.4-0.1c0.6-0.3,1.2-0.6,1.7,0c0.6,0.8,0,1.2-0.6,1.4
		c-1.3,0.3-2.6,0.1-4.7,0.1C166.9,158.7,169.7,156.5,172.3,158.7z"/>
	<path class="st45" d="M115,226.4c-0.1-5,4.1-8.3,5-12.9c2.9-4.1,5.9-8.2,8.8-12.2c2.3,0.3,1.8,1.6,1.1,3
		c-3.4,7.1-6.7,14.2-10.1,21.3c-0.1,0.5-0.5,0.8-1,0.9C117.6,226.4,116.3,226.4,115,226.4z"/>
	<path class="st46" d="M102.9,184.4c0.3,0.4,0.8,0.9,0.8,1.2c-2.2,8.6-4.4,17.2-6.6,25.8C96.4,201.8,97.7,192.7,102.9,184.4z"/>
	<path class="st47" d="M130,204.3c-0.1-1.1,0.1-2.3-1.1-3c1.5-3.1,2.9-6.3,4.5-9.3c0.9-1.7,1.4-0.3,1.7,0.6
		C133.8,196.6,132.7,200.8,130,204.3z"/>
	<path class="st48" d="M278,302.5c-6.3,6.7-14.5,10.4-22.8,13.7c-3.5,1.4-7.1,2.9-10.9,3.4c-3.1,0.5-6.2,0.9-9.1,2
		c-2.4,1.3-4.5,0.6-6.4-1.1c-5.9-5.3-12.8-9.4-18.5-15c-6.1-3.5-6.1-8.4-2-14.1c-6.8,1.6-7.8,4.8-4,10.2c-0.1,1.2-1,1.6-2,1.7
		c-0.5,0-1-0.1-1.4-0.2c-6.3-3.2-11.9-7.1-14.8-13.9c-1.6-3.7-5.4-4.1-8.3-5.8c-2-1.7-4.5-0.8-6.7-1.3c-3.4-1.5-7-1.8-10.6-2.7
		c-1.9-0.5-4.6-0.3-4.9-3.3c0.6-1.6,2.1-1.8,3.5-2c9.6,1.2,19.1,3.6,28.9,3c1.4,0.4,3.2,0.4,3,2.6c-0.7,0.7-1.3,1.5-2,2.2
		c-0.8,0.9-1.6,1.8-1,3.1c0.6,1.1,1.7,0.8,2.7,0.8c5.7,0.3,11.3,0.3,17,0.8c7.4,0.7,7.8,1.7,3.2,7.9c-2.3,4.3-2.3,4.6,2.5,4.5
		c4.2-0.1,8.4,0.7,12.5-0.6c0.2-0.3,0.5-0.3,0.7,0c2.4-0.5,4.8-0.6,7.2,0c0.5,2.7-1.9,2.2-3.2,2.7c-2.1,0.9-3.6,1.8-2.7,4.4
		c3.7,8.2,9,10.8,17.5,8.8c10.5-2.5,19.5-8.1,28.9-13.1c0.7-0.4,1.4-0.9,2.1-1.3c1-0.5,2.3-1.5,3.1-0.3
		C280.7,301.1,278.9,301.7,278,302.5z"/>
	<path class="st49" d="M275.2,243.5c3.4,0.1,6,2.4,9.3,3.2c-1,1.9-2.6,2.4-4.4,2.8c-2.4-0.2-4.3,1.4-6.5,1.9
		c-7.7-0.2-13.2-5.1-19.3-8.9c-4.3-4.1-9.8-7.3-10.4-14.1c0.2-1.6,0.9-2.9,2.7-3.2c2.2,0.4,3.2,2.2,4.4,3.8
		c6,7.5,13.9,12.2,22.8,15.6C275.2,245,274.8,243.8,275.2,243.5z"/>
	<path class="st50" d="M272,252.5c-12,5.4-24.4,5.3-36.9,2.4c-1.6-0.4-3.2-1.1-4.8-0.2c-1.6,0.4-1.9-0.7-2.2-1.8
		c1.3-6.2,5.3-11.2,7-17.2c0.6-2.1,0.5-4.8,3.5-5.4c2.7,2.2,1.6,4.8,0.9,7.3c-3.2,11.1-1.5,13.6,10.1,14.4c6.5,0.4,13,0,19.4-0.7
		C270,251.5,271.2,251.5,272,252.5z"/>
	<path class="st51" d="M234,299.4c-2.2-1.8-4.9-0.3-7.3-1c19.9-1.3,36.7-10.3,52.6-21.6c1.9-1.3,3.5-2,4.7,0.8
		c2.2,0.5,1,2.8,2.1,3.8c0.6,1,1.3,2.1,1.9,3.1c0.2,0.6,0.1,1.3,0.2,2c0.1,1.5,0.2,3.3-1.4,3.9c-1.7,0.6-2.5-1.1-3.4-2.3
		c-3.3-6.7-3.2-6.6-9.5-3c-6.7,3.8-13.1,8.4-20.6,10.8c-2.5,2-5.8,1.6-8.5,2.8C241.2,299.7,237.8,302.3,234,299.4z"/>
	<path class="st52" d="M228.9,252.3c0.2,1,0.4,2,1.5,2.4c-7.9,11.9-18.7,19.6-32.7,22.7c-2.3,0.5-4.4,1.2-6.5,2.4
		c-0.7-1.5-2.2-1-3.3-1.3c1.8-3.7,5.9-2.2,8.6-3.7c4.2-1,8.2-2.7,11.8-5c6.7-3.6,11.7-9.1,16.7-14.7
		C226.1,253.9,226.8,252.2,228.9,252.3z"/>
	<path class="st53" d="M315.3,255.2c0.2,0.7,0.4,1.4,0.6,2.1c-0.5,2.3-2.1,3.7-4.3,4.4c-0.8-0.2-1.3-0.6-0.9-1.5
		c-0.9-0.9-3.6-0.9-1.1-3.4c1.8-1.9,2.3-4.6,0.8-7.5c-1.8,1-1.7,2.9-2.5,4.1c-2,0-1.1-1.3-1-2.3c0.5-2.6,0.3-6.5,4.7-3.2
		c1.5,1.1,1.9,0.3,2.4-0.9c1-2.2,2-4.4,3-6.6c0.9,0.2,1.8,0.3,3,0.5c-0.5,1.6-1.2,3.5-1.8,5.5c-0.1,0.4-0.4,1.5,0.8,1
		c0.4-0.2,0.8-0.6,1.1-0.9c1,0.8,1.5,1.4-0.1,2.4C317.6,250.3,315.7,252.3,315.3,255.2z"/>
	<path class="st54" d="M275.2,243.5c1.8,2.4,0.2,2.2-1.4,1.7c-9.6-2.5-17.3-7.8-23.6-15.4c-1.1-1.4-2.1-2.9-3.2-4.4
		c-0.2-2.3,0.9-2.8,2.9-2.2C256.4,232.4,264.5,239.6,275.2,243.5z"/>
	<path class="st55" d="M306.8,251.1c0.3,0.8,0.7,1.5,1,2.3c-4.8,3.7-6.6,9.2-9.1,14.4c-2.2,4.5-6.1,7.7-10.2,10.6
		c-1.1,0.8-3,1-2.4,3.1c-1.5-0.9-1.2-2.7-2.1-3.8c7.9-2.2,11.6-8.6,14.9-15.3c1.5-3.1,1.3-7.2,6-8
		C305.6,254.2,306.1,252.2,306.8,251.1z"/>
	<path class="st56" d="M249.9,223.3c-1.3,0.3-2.3,0.9-2.9,2.2c-1.4,0.5-2.1,1.5-2.1,3c-1.9,1.6-4,1.5-6.2,1
		c-0.8-0.1-1.5-0.5-1.9-1.2c-0.3-0.8,0.1-1.4,0.6-2c0.8-0.8,1.7-1.6,2.6-2.3c1.6-1.2,4.2-1.1,4.8-3.6c0.8-0.8,1.8-1.1,2.7-1.6
		c1.1-0.6,1.9-1.8,3.4-1.3c0.4,0.5,0.8,0.9,1.3,1.4C251.4,220.3,250.7,221.8,249.9,223.3z"/>
	<path class="st57" d="M272,252.5c-1,0-2,0-3,0c-3.4-1.7-7.4-1.7-10.6-4c-2-1.5-4.1-2.9-5.2-5.2c-0.6-1.3-0.7-2.9,1.7-1.6
		c6.1,3.5,11.6,8.3,19.1,8.9c0.6,1.1-0.3,1.4-0.9,1.8C272.7,252.4,272.4,252.5,272,252.5z"/>
	<path class="st51" d="M226,298.4c-5.2,2.3-10.7,0.8-16.1,0.9c-2.3,0-2.1-1.5,1.1-4.8c-1.6,3.1-0.9,4.2,2.7,4
		C217.8,298.2,221.9,298.4,226,298.4z"/>
	<path class="st58" d="M273.1,252.4c0.3-0.6,0.6-1.2,0.9-1.8c2-0.5,3.7-3.3,6.2-1C278,251,275.7,252.2,273.1,252.4z"/>
	<path class="st59" d="M168,407.5c-0.1-1.7-0.2-3.3-0.3-5c0.5-0.6,1-1.2,1.5-1.8c1.9,0,2.7,3.1,5.1,1.8c3.4-0.6,6.9,0,10.4-0.6
		c2,0.3,4.7-0.1,4.4,3.2c-0.1,1.1,0.7,1,1.1,1.1c9,1.8,17.5,6.1,27.2,6.1c0.2-2.4-1.3-4.7,0.3-6.8c0.7-0.4,1.3-0.2,1.7,0.4
		c1.3,1.9,2.9,2.4,5,1.3c2.1-1.1,3.2-2.6,2.9-5.1c-0.2-1.5-0.9-3.4,1.6-3.8c4.1,9.1,5.4,18.8,5.9,28.6c0.6,12.6,0.5,25.2-2,37.7
		c-0.8,0.9,0.1,2.4-2.5,3.6c0.5-17.8,3.5-35.1,0.3-50.4c0.2,6,2,13.8,1.3,21.7c-1.3,13.8-0.6,27.9-4.3,41.5
		c-0.7,2.6-0.4,5.2-0.7,7.7c-0.7,1.1-1.9,0.9-2.9,1.2c-0.7-1.5-2.1-1.5-3.4-1.7c-4.9-0.4-9.5-1.4-13.5-4.4c-2-1.5-4.5-0.8-6.8-0.4
		c-3.9,0.7-6.4-0.8-7.8-4.5c-4.6-12.2-11-23.4-17.1-34.9c-5.5-10.3-7.3-21.6-7.1-33.2C168.6,409.6,169.2,408.4,168,407.5z"/>
	<path class="st60" d="M229,319.5c1.7,1.3,3.5,2.5,5.9,1.8c0.5-0.3,1-0.2,1.3,0.3c-1.8,0.9-1.6,1.8-0.6,3.4
		c2.4,4.4,4.4,8.9,6.5,13.4c-0.1,0.7-0.2,1.4-0.2,2.2c2.8,9.4,1.2,18.3-2.5,27.2c-3.6,8.8-0.4,16.4,4.8,23.5
		c0.2,1.9-1.3,2.1-2.6,2.1c-2.3,0-4.5,0.7-6.8,1.2c0,0-1.1-0.3-0.4,0.4c0.2,0.2,0.6,0.3,0.8,0.6c-2,0.7-4.1,1.5-6.1,2.2
		c-2.1-0.1-2.7-1.8-3.1-3.3c-1.8-6.3-4.1-12.5-6.4-18.6c-0.4-0.9-0.4-1.9,0-2.9c0.8-0.7,2.2,0,2.8-1.9c0.7-2.5,2.9-4.7,5.5-5.3
		c3-0.7,3.1-2.2,2.4-4.7c-0.6-2.2-1.2-4.5-2.3-6.5c-2.3-4.2-1.5-7.9,1.4-11.5c0.5-0.6,1-1.3,1.4-2c2.5-5.2,4.6-10.4,0.2-15.6
		c-0.6-1.5-2-2.6-2.6-4.1C227.9,320.6,227.2,319.4,229,319.5z"/>
	<path class="st61" d="M219.8,372.6c3.3,8.3,5.4,17.1,9.2,25.2c0,0,0,0.5,0,0.5c-1.3,0.8-1.2,2-0.7,3c1.7,3.5,0,5.5-3,7
		c-4.9,2.5-5.9,2.2-7.2-3c-2.7-4.4-1.7-9.4-2.4-14.2c-0.4-2.7-0.3-5.5-1-8.2c-2.1-7.4-0.3-15.1-1.8-22.7c-1-4.9-1.8-9.7-3.2-14.5
		c-0.6-2.1-1.2-4.1-0.5-6.3c4.6-3.5,8.7-7.6,13.3-11.1c3,2.4,0.1,5.4,1.1,7.8c0.2-3.2-0.4-7.1,3.5-9.2c1.1-0.4,2.1-0.4,3.1,0.2
		c1.9,2.4,1.1,5.1,0.4,7.6c-1.4,5-3.6,9.7-5.9,14.3c-3.2,6.5-5.9,13.1-4.3,20.6C220.5,370.6,220.1,371.6,219.8,372.6z"/>
	<path class="st62" d="M245,297.6c2.4-1.9,5.9-0.6,8.1-3c1.8,2.1,3.8,1.9,6.3,1.1c8.2-2.7,16.3-5.8,24.6-8.2
		c0.7,0.8,1.5,1.6,2.5,2.7c0.8-2,0.2-4.1,1.5-5.6c0.3,0,0.6,0,0.9,0.2c1.8,3.8-0.3,6.8-2.2,9.5c-2.3,3.2-4.6,6.8-8.6,8.3
		c0.5-0.8,0.9-1.6,1.7-3c-9.2,5.5-17.8,10.6-27.2,14c-3.5,1.3-7.2,2.4-11,2.9c-6.3,0.9-12.5-4-14.6-10.9c3.5-1.3,6.8,0.6,10.2,0.7
		c7.4,0.2,7.7,0,7.5-7.2C244.6,298.5,244.8,298,245,297.6z"/>
	<path class="st63" d="M168,407.5c1-0.3,2-0.8,1.8,1c-1.4,13.5,1.8,25.9,8.4,37.5c5.8,10.2,11.2,20.6,15.3,31.6
		c1.4,3.8,3,5.4,7.4,4.1c3.1-0.9,6.2-1,9.3,2.1c3.2,3.2,8.7,2.5,13.3,3.3c3,0.5,0.6,1.6,0.7,2.5c0,2-0.2,4,0.9,5.8
		c-0.5,0.5-1.2,0.8-1.9,0.8c-3-0.7-6-1.6-9.2-0.8c-1.7-1.4-0.4-3.5-1.1-5.1c-0.2-3.6-3.4-3.3-5.4-3.7c-2-0.4-1.6,2.4-2.4,3.7
		c-0.4,0.7-0.7,1.5-1,2.2c-0.7,0-1.5,0-2.2,0.1c-0.2-0.1-0.4-0.2-0.6-0.3c-1.9-2-4.2-1.7-6.6-1.4c-0.5,0.1-0.9,0-1.3-0.1
		c-0.9-0.6-1.3-1.3-0.4-2.2c0.4-1,1.3-1.7,0.7-3.1c-4.1-11.2-8.7-22.1-15-32.3C170.1,439.2,166.4,423.9,168,407.5z"/>
	<path class="st64" d="M227,488.6c-2.1-2.8-1.4-5.8-0.6-8.8c4.2-16.1,4.5-32.7,4.4-49.2c-0.1-5.6-0.9-11.2-0.5-16.8
		c1.6,5.5,2.5,11.2,2.6,16.9c0,5.9,0.3,11.9-0.6,17.9c-0.9,5.8-0.5,11.9-1.7,17.8c1.8,0.2,1.2-1.7,2.2-1.8
		C232,472.8,230.3,480.9,227,488.6z"/>
	<path class="st65" d="M241,339.5c0.4-0.3,0.7-0.7,1.1-1c8.3,12.8,16.5,25.6,24.9,38.3c1.5,2.2,1.7,3.7-0.6,5.4
		c-2.6,2-5,4.2-7.5,6.3c-0.6,0.6-1.2,0.7-2,0.2c-0.7-1.9,0.5-3.2,1.3-4.6c5.5-6.2,5.5-6.2-0.4-12.5c-1-1.1-2.1-2.1-2.8-3.5
		c-1.7-3.3-3.2-6.7-5.9-9.3C246,352.5,241.9,346.7,241,339.5z"/>
	<path class="st66" d="M257,388.5c0.6,0,1.2,0,1.9,0c-2,3.5-4.9,4.9-8.9,5.2c-5,0.4-9.9,1.2-14.8,1.9c-1-0.1-2-0.1-3-0.2
		c3.2-3.9,8.2-1.8,11.8-3.9c0.2-0.6,0.6-1.3,1.2-1.5c3.8-0.9,3.4-3.2,2.3-6.1c-1.8-5-2.8-10.3-4.1-15.5c-0.2-1-0.5-2-0.5-2.9
		c-0.1-1.8-0.7-4.3,1.4-4.8c1.9-0.4,2.2,2.1,2.7,3.6c1.2,3,1.4,6.2,2.2,9.2C250.6,379.2,252,384.8,257,388.5z"/>
	<path class="st67" d="M222.8,495.6c0.7,0,1.5-0.1,2.2-0.1c2,9.7,0.6,19.3-0.1,29c-1.2,0.7-0.8,2-1.5,3.3c-0.1-1.7-0.2-2.9-0.2-4.1
		c0.7-7.8-1.5-15.4-0.8-23.2C222.6,498.9,222.1,497.2,222.8,495.6z"/>
	<path class="st68" d="M224.9,572.5c-0.4,0.8-0.7,1.5-1.1,2.3c-2.9-11.3-4.3-22.6-2.3-34.2c1.3,5.9-0.4,12.1,1.4,18
		C223.6,563.2,224.2,567.9,224.9,572.5z"/>
	<path class="st69" d="M236.2,321.6c-0.4-0.1-0.9-0.2-1.3-0.3c3-1.2,6-2.3,9.4-1.7C241.7,320.8,239,321.4,236.2,321.6z"/>
	<path class="st70" d="M222.8,495.6c1.7,9.3,1.7,18.7,0.3,28.1c-0.1-0.8-0.2-1.6-0.2-2.4c0.1-3.3,0.2-6.4-4.6-3.3
		c-1.1,0.7-2.8,0.3-4.3,0.5c-0.9-7.7-2.2-15.3-0.3-23C216.9,492.4,219.9,494,222.8,495.6z"/>
	<path class="st71" d="M248.8,189.2c-4.2-1-8.4-0.7-12.7-0.7c-1.5-2.8,2.9-4.1,1.6-6.9c0.1-1.8-0.2-3.8,0.8-5.4
		c2.6-4.3,0.6-7.1-2.8-9.7c-2-1.5-3.9-3-5.8-4.7c-1-0.9-2.5-1.8-1.8-3.2c0.9-1.7,2.6-0.7,4-0.2c0.5,0.2,1.1,0.4,1.6,0.6
		c-5.4-2.5-11.1-3.2-16.9-3.9c-4.7-0.7-9.5-0.1-14.3-0.4c-1.9-0.1-4,0.3-5.5-1.4c0.4-0.3,0.8-0.8,1.2-0.8
		c11.4,0.6,22.5-2.9,33.8-3.2c7.8-0.9,15.4-1.1,21.2,5.7c0.5,0.6,1.1,0.7,1.8,0.4c6.5,9.5,1.1,17.5-3.2,25.6
		C250.5,183.7,247.5,185.7,248.8,189.2z"/>
	<path class="st72" d="M197,153.5c7,0.6,14.1-1.1,21.1,0.9c-1.5,1.6-3.8,1.6-5.6,2.6c-4.6,0.6-9.1-1.5-13.7-0.6
		c-8.8,0.5-17.6,2.4-26.5,2.3c-3.1,0-6.2,0-9.9,0c2-1.8,3.7-0.9,5.2-1.3c0.1,0,0.2-0.2,0.3-0.2c-0.3-0.2-0.6-0.5-0.9-0.7
		c0.8-1.1,1.9-0.9,3-0.9c1.9,0.9,3.9,0.6,5.8,0c3.3-1.1,6.8-0.3,10.2-1C189.7,154.5,193.4,154.6,197,153.5z"/>
	<path class="st73" d="M255,155.6c-0.3,2.3-1.8,1.2-2.4,0.5c-5.6-6.2-13.1-6.5-20.6-6.6c2.8-2.2,6.1-0.1,9.1-1.3
		c0.2-2.4-3.5-1.6-3.6-4.3c2.4,0.5,4.7,1,7.1,1.4c1.6,0.2,3.7,1.3,4.4-1.5c1.5,0.4,2.4,1.7,3.4,2.8c0.6,0.7,1.9,1.4,1,2.4
		c-0.4,0.4-1.7,0.1-3.1,0.1C252,151.3,253.5,153.5,255,155.6z"/>
	<path class="st44" d="M186,154.6c-5.3,0.9-10.5,2.9-16,0.9c4.5,0.3,8.6-1.7,12.9-2C183.7,154.7,185,154.4,186,154.6z"/>
	<path class="st74" d="M172.9,334.4c0.9-4.4-0.4-8.8-0.1-13.2c8.9,3,13.2,9.7,14.5,17.4c-0.5-5.2-3.2-10.5-8.3-14.5
		c-1.5-1.2-4.1-1.8-3.3-4.3c0.8-2.7,2.5-5.1,5.5-5.9c3.3-0.9,6.6-0.8,9.9-0.1c1,0.4,1.7,1.1,2.2,2.1c6.2,9.5,12.5,19,15.4,30.2
		c0.4,1.6,1.2,3.1,0.4,4.8c-6.1,2.4-11.7,0.4-17.4-1.8c-6.6-2.6-7.2-2.4-10,4.2c-1.4,3.4-2.6,6.8-2.5,10.6c0.1,2.3,0,4.7-3.1,6
		c3.1,0.7,5.6,0.7,8-0.2c1.3-0.3,2.4-1,3.6-1.5c3.4-1.5,4.5-0.2,4.1,3.2c-0.1,5.1-3.1,7.3-7.7,8.2c-6,1.2-11.9,3-18.2,2.5
		c-3-0.3-5.2-1.3-5.1-4.7c1.1-6.6,4.5-12.4,6.5-18.7C169.7,350.6,172.4,342.8,172.9,334.4z"/>
	<path class="st75" d="M100,242.5c0.9-2-2.6-1.1-2-3c1.4-1.5,0.5-3-0.2-4.5c-0.6-1.4-2.2-2.6-0.9-4.4c5.7,0,11.3-0.1,17-0.1
		c1.2,5.1,0.8,10.4,1.2,15.6c1.7,18.7,10.1,32.3,27.9,39.5c5,2.7,10.8,3,15.8,5.5c0.4,0.4,0.5,0.9,0.1,1.4c-12.1-1.2-24-3.2-34-10.9
		c0.7-2.7-2-3.5-3.1-5c-6.6-8.6-10.1-18.9-16-27.8C104.4,246.4,104.4,242.4,100,242.5z"/>
	<path class="st76" d="M172.9,334.4c2,4.2,0,8.3-0.8,12.3c-2.1,10.4-7.3,19.7-10.1,29.8c-1.4,3.8,0.1,5.3,3.9,6.2
		c6.9,1.7,13.8,2,20.8,0.8c1.6-0.3,3.5-1,4.4,1.1c0.7,1.7-0.9,2.7-2,3.6c-1.2,1.1-2.6,2.3-4.1,2.7c-3.9,1.1-7.1,3.4-9.8,6.3
		c-0.5,0.1-1,0-1.4-0.1c-1.3-1.4-2.9-2.7-2.8-4.9c1.3-2.5,1.1-3.9-2.1-4.7c-12.5-3.2-12.5-3.4-7.7-15.2
		C166,359.9,169.4,347.2,172.9,334.4z"/>
	<path class="st77" d="M191,314.5c-2.7,0-5.3,0-8,0.1c-3.3,0.1-5.2,2.4-6.3,5c-1.2,3,2.2,2.6,3.5,3.7c4.8,4.1,9.5,11.5,7.1,19
		c-1.7-9.7-6.9-16.3-14.6-21c2.9-4.5,6.3-8.9,6.2-14.7c1-1.5-0.8-1.6-1.2-2.4c-0.7-1.3-1.8-2.5,0.4-3.5c3.1-0.7,6.3-0.8,9.4,0.2
		C189.3,305.2,191.6,309.4,191,314.5z"/>
	<path class="st78" d="M177,301.5c0.9,2.5,4,3.4,4.7,6.2c-1.7,1.2-1.7-1.2-2.8-1.1c-2.3-1.6-4.6-3.2-6.8-4.8
		c-4.6-3.4-4.6-3.4-0.2-7.3c3.5-4,8.2-3.9,13-3.7c4.3,2.8,7.9,5.9,6.6,11.9c-0.4,1.6-0.1,3.3,0,4.9c0.3,2.8,2.6,4.9,2.2,7.9
		c-0.3,0.8-0.7,1.3-1.6,1.1c-0.3-0.7-0.7-1.4-1-2c-0.9-4.4-4.2-8.2-3.2-13c-3.3-4.3-8.2-1.8-12.4-3
		C175.4,299.8,177.7,299.9,177,301.5z"/>
	<path class="st79" d="M185.1,291.5c-4.6,0.2-8.9,1.2-13.2,3c-0.1-2.5-1.9-1.6-3.2-1.7c-3.2-0.2-6.5,0.6-9.7-0.3c0-0.3,0-0.7,0-1
		c4.1-2,8.5-0.3,12.6-1.7c-3.8,0.9-7.6,0.7-11.4,0.7c-1.6,0-3.4,0.5-4.4-1.4c1.1-2.3,3.3-1.8,5.2-1.8c4.6-0.2,9.2,0.1,13.9-0.3
		c-0.3-2.3-3.7-2.7-2.8-5.4c2.1-0.7,4.3-1.4,5.9,1c1.1,2.2,3.9,2.2,5.3,4.2C184.2,288.2,185.7,289.4,185.1,291.5z"/>
	<path class="st80" d="M173.1,396.3c0.2,0.2,0.5,0.2,0.8,0.3c0.4,0.2,0.5,0.6,0.4,1c2.7,2.6,1.2,4.3-1.3,5.8
		c-2.3,0.2-2.3,0.2-3.7-2.7c0.1-1.5,0.7-2.7,1.6-3.9C171.4,395.9,172.2,395.8,173.1,396.3z"/>
	<path class="st81" d="M173.1,396.3c-0.8,0.2-1.5,0.3-2.3,0.5c-1.8-1.5-2.3-3.1,0-4.6C171.3,393.7,175.2,393.3,173.1,396.3z"/>
	<path class="st82" d="M311.8,261.3c1.4-1.3,2.8-2.7,4.1-4c1-0.4,2-0.9,3.1-1.3c1.1-0.4,2.2-1.6,3.4-0.3c1.5,1.5,0.3,2.6-0.6,3.7
		c-1.1,0.7-2.3,1.4-3.3,2.2c-0.4,0.4-1,1.1-0.9,1.5c0.9,3.5,1,3.5-2.8,4.6c-1.3,0.4-2.6,0.5-3.9,0.8c0-0.4,0-0.7,0-1.1
		C311.9,265.5,309,263,311.8,261.3z"/>
	<path class="st83" d="M311.8,261.3c-0.4,1.4-0.7,2.7,0.6,4.1c1.3,1.4-0.1,1.9-1.4,2c-2.3-2.1-5.2-0.3-8-0.8
		c1.4-3.9,7.3-1.7,7.7-6.3C311.1,260.6,311.5,261,311.8,261.3z"/>
	<path class="st84" d="M178,558.5c1.3-5.7,3.8-11.1,4-17c-0.1-7.7,0.3-15.4,1.7-23c1.7-1.8,4.1-1.9,6.3-2.4c1.9-0.4,2.9,0.4,2.1,2.5
		c-2.9,11.1-6.4,22.1-7.2,33.7c-2.3,12.3-2.9,24.7-2.9,37.2c-0.3,1.3-0.6,2.7-0.9,4c-1.1,1.3-2.2,2.6-3.2,3.9
		c-5.1,0.8-6.6-0.3-8.1-5.9c0.1-0.2,0.1-0.4,0.1-0.7c0.2-9.7,3.3-18.7,6.9-27.5C177.3,561.7,178.2,560.2,178,558.5z"/>
	<path class="st85" d="M169.7,591.4c1.8,3.2,4,5.9,8.1,5.9c-1.8,1.2-5,1.8-5.9,0.7C170.3,596.3,168,594.4,169.7,591.4z"/>
	<path class="st86" d="M238,226.4c-0.4,0.3-0.7,0.7-1.1,1c-2.9,2.4-6.3,1.2-9.6,1.2c-5.1-1.1-9.5-3.9-14.5-5.3
		c-0.4,0.1-0.9,0.2-1.3,0.3c-1.5,0.5-3.1,1.1-4.7,0.3c-0.6-0.4-1.1-0.9-1.4-1.6c-0.2-0.7-0.1-1.4,0.2-2c2.6-1.1,2.9-3.6,3.7-5.8
		c0.8-1.1,1.8-1.9,3-2.4c1.5-0.2,2.9-0.5,4.4-0.6c7.2-3.5,9.5-9.7,5.8-16.2c0.7-2.5,3.1-0.6,4.3-1.6c2.7,0.2,5.1-2,7.9-1.1
		c4.8,6.8,4.8,14.9,5.3,22.7C240.5,219,241.6,223.2,238,226.4z"/>
	<path class="st87" d="M250.9,217.5c-1,0.7-2,1.4-3,2.1c-4-3-5.3-9.4-3.2-15.3c3.3-1.4,6.6-3.5,10.1-0.5
		C255.7,209,253.3,213.2,250.9,217.5z"/>
	<path class="st88" d="M245.1,220.6c0.1,3.6-2.7,3.6-5.1,3.9c0.2-9.4-0.1-18.7-2.7-27.8c-0.4-1.5-0.4-2.9,0.7-4.2
		c3.6,0.4,7.4-1,10.9,0.9c-0.1,1.7-1.3,2.8-2.5,3.9c-3.8,5.8-4.1,12-1.9,18.5C245.1,217.3,245.9,218.9,245.1,220.6z"/>
	<path class="st89" d="M238,192.5c1.1,8.9,3.6,17.6,3,26.7c-0.1,1.8,0,3.6-1,5.3c-0.1,1.2-0.7,2-2,1.9c2.2-9.7,0.6-19.1-1.7-28.5
		c-0.4-1.8-0.9-3.5-1.3-5.3C236,192.5,237,192.5,238,192.5z"/>
	<path class="st90" d="M238.9,181.5c1.4,3.3-1.8,4.7-2.8,7c-0.7,0.1-1.5,0.1-2.2,0.2c-1.4-5.8-5.1-10.6-7-16.2
		c5.3,0.8,8.6,4.5,10.5,11.9C237.7,183.3,236.6,181.5,238.9,181.5z"/>
	<path class="st91" d="M227,193.7c-1.4,0.6-2.8,1.1-4.2,1.7c-1.3,3.2-5.4,2.7-7.2,5.2c-1.2,1-1.6,2.4-2.2,3.8
		c-0.3,0.4-0.6,0.6-1.1,0.8c-1,0.2-1.9,0.1-2.7-0.5c-0.8-1.5-0.2-2.8,0.2-4.2c0.3-0.9,0.9-1.7,1.5-2.4c2.8-2.7,6.5-3.9,9.5-6.2
		c0.8-0.8,1-1.9,1.3-3c0.7-2-0.1-4.4,1.6-6.1c2.2,2.5,0.2,6.1,2.1,8.7C223.9,193.3,225.5,193.5,227,193.7z"/>
	<path class="st92" d="M246.2,196.7c1.1-1,1-2.8,2.7-3.3c2.9,1.5,3.8,4.4,4.9,7.1c-1.3,2.2-5.1,3-9.2,2
		C243.8,200.2,245.2,198.5,246.2,196.7z"/>
	<path class="st93" d="M245.3,202.2c2.8-0.6,6.1,1,8.5-1.7c1.4,0.8,1,2,0.9,3.2c-3.3-0.6-6.5,0.3-9.8,0.7
		C244.5,203.7,244.4,202.9,245.3,202.2z"/>
	<path class="st94" d="M192.1,518.6c-0.3-0.9-0.6-2.5-1.7-1.5c-1.7,1.5-3.8,0.6-5.5,1.3c-1.4-2-0.8-4.1-0.4-6.2
		c1.1-5.5,2.7-10.9,4.9-16.2c1-2.3,1.9-4.7,4.7-5.5l0,0c3-0.7,6.1-1.5,7.9,2.1c0,0,0,0,0,0C198.6,501.3,195.4,509.9,192.1,518.6z"/>
	<path class="st95" d="M194,490.5c-6.1,8.3-8.2,17.9-9.2,27.9c-1.5,7.6-0.9,15.5-2.9,23.1c-1.9-1.8-0.4-4.2-1.2-6.2
		c0.1-13.3,2.5-26.2,7-38.7c2-2.5,2.6-5.8,5.2-7.9C193.4,489.2,193.7,489.9,194,490.5z"/>
	<path class="st96" d="M143,286.6c-13.5-4-21.9-13.5-26.3-26.3c-3.3-9.5-4.6-19.7-2.7-29.9c1.6-1,3.1-1.1,4.3,0.7
		c1.3,1.5,1.3,3.4,1.1,5.2c-1.1,11.1,4.9,18.5,12.7,25.1c3.3,2.8,7.4,4.5,10.5,7.5c0.6,0.8,1.1,1.6,0.8,2.6
		c-1.1,1.4-2.7,1.7-4.3,2.1c-1.7,0.4-3.1,1.1-3.3,3.1c-0.2,1.9,1.1,3,2.5,3.9c1.2,0.8,2.6,1.3,3.9,2.1c0.6,0.4,1.1,0.9,1.6,1.4
		C143.8,285.1,145.4,286.4,143,286.6z"/>
	<path class="st97" d="M118.9,226.4c0.3-0.3,0.6-0.6,1-0.9c2.8,2.6,5.3,3.3,7.6-0.8c0.9-1.6,2.1-3.3,4.4-3.4
		c1.1-0.5,1.9-0.4,2.4,0.8c-0.2,2.1-1.6,3.6-2.4,5.4c-2.1,4.5-1.7,8.4,2.2,11.7c6.9,8.3,16.2,8.4,25.7,8c2.4-0.1,5,0.4,7.1-1.3
		c5.7-0.7,10.5-4.3,16.1-5.3c1.5,0.2,2.5,0.8,2.7,2.4c-0.2,2.4-2.1,3.2-3.8,4.2c-1.8,1.7-4.1,2.5-6.4,3.2c-1.2,0.6-2.3,1.3-3.6,1.6
		c-1.9-0.2-3.4,0.8-5.1,1.3c-13.1,1.5-25.5,0-36.5-7.8c-3-3.2-5.5-6.8-5.6-11.3c-0.1-3.9-4-2.8-5.7-4.6
		C119.6,228.5,119.6,227.4,118.9,226.4z"/>
	<path class="st42" d="M119,229.5c4.7-0.7,7.5,0.3,7.1,6c-0.2,3.6,2.9,6.1,4.7,9c-0.6,4.5-0.4,8.9,1.2,13.3c0.6,1.5,1,3.2-0.1,4.8
		c-11.3-7.5-15.9-18-13.8-31.4C118.5,230.6,118.7,230.1,119,229.5z"/>
	<path class="st16" d="M96.9,230.6c1.1,2,2.1,4.1,3.2,6.1c1.3,2.4,0.1,2.9-2,2.8c-0.3-0.3-0.6-0.7-0.9-1c-1.7-1.6-3.3-3.2-2.5-5.8
		c0-0.4,0-0.7,0-1.1C95.2,230.7,96,230.5,96.9,230.6z"/>
	<path class="st98" d="M94.7,232.7c0.8,1.9,1.6,3.9,2.5,5.8c-2.6,0.5-3.4-1.4-3.9-3.3C92.9,234.1,92.3,232.4,94.7,232.7z"/>
	<path class="st99" d="M168.9,201.8c1.1-4.4-0.1-6-4.2-5.6c-1.2,0.1-2.5,0.7-3.3-0.3c-3-4.2-7.3-3.8-11.6-3.4
		c-2.3,0.3-3.7-1.1-5-2.7c-1.1-1.4-1.3-3,1-3.2c4.4-0.3,7.9-3.4,12.1-4.2c0.7-0.1,1.4-0.7,2.2-0.3c4.1,1.9,7,0.1,9.7-2.8l0,0.1
		c1.2-1.5,4.4,0.5,4.5-2.6c0.1-3.3-2.8-2.2-4.4-3.2c-2.5-1.5-4.4-3.3-6.4,0.2c-0.1,0.2-0.7,0.5-0.8,0.4c-6.5-3.6-10.4,3.2-15.7,4.1
		c-2.9,0.5-5.1,0.8-5.3-3.2c-0.2-3.1-1.3-6.1-1.5-9.2c-0.3-4.2,3.6-3.8,6-4.3c3.5-0.7,7.4-0.1,10.7,0.3c11.2,1.4,22.1-1.8,33.1-0.4
		c2.8,0.3,4.6-1.1,6.2-4.6c0.7,4.1,1.5,6.8,0.8,10.3c-0.7,4.1,1.3,8.5,1.2,12.9c0,1.3,1.3,1.1,2.2,0.4c1.6-1.3,2.4-2.9,2.6-5.1
		c0.8-7.9,3.9-9.7,10.8-6.4c2.2,1.1,3.8,1.4,5.8-0.3c1.1-0.9,2.6-1.1,3.1,0.8c0.4,1.4,0.1,2.5-1.7,3c-1.8,0.4-3.4,1.4-5.1,1.8
		c-11.8,2.9-14.2,17-10.2,25.2c1.1,2.1,1.3,3.4-0.4,5.2c-4.7,5-4.7,5-0.4,8.8c-2.6,2-5.5,3.3-8.5,4.5c-1.4,0-2.8,0.1-4.2-0.2
		c-3.4-3-6.9-5.5-11.8-5.2c-2.8,0.2-4.4-2-6-3.8C172.4,206.6,169.3,205.3,168.9,201.8z"/>
	<path class="st100" d="M238.9,181.5c-1.2,0.7-0.6,2.1-1.5,3.4c-2.9-4.8-5-10.1-10.5-12.3c-3.1-4.8-7.3-8.8-11.2-13
		c-0.7-1.2-3.6-0.7-2.7-3.2c0.8-3.1,3.4-1.3,5-1.9c6.3-0.2,12,1.5,17.8,5.4c-3,0.8-4.9-1.8-7.6-0.8c3.7,3.2,7.2,6.2,10.7,9.1
		c2.3,1.9,3.3,4,1.4,6.8C239,176.8,238.9,179.1,238.9,181.5z"/>
	<path class="st101" d="M168.9,201.8c2,2,4,4,6,5.9c1,1.1,0.4,1.7-0.7,2.2c-4.1-0.5-6.1-4.6-9.8-5.7c-2.6-1-5.2-2.2-7.8-3.1
		c-8.4-2.8-15.2,1.5-16.3,10.4c-0.1,1,0,2-0.1,3c-0.2,1.1-0.2,2.4-1.4,2.8c-1.4,0.5-1.1-1.2-1.8-1.6c-2.8-6.5-2.7-12.5,2.8-17.7
		c4-3.9,8.6-4.8,13.7-2.9C158.7,197.2,164.1,198.7,168.9,201.8z"/>
	<path class="st102" d="M213.8,160.8c0.6,1.4,2,2.5,1.8,4.4c-10-3.6-12.8-2.7-16,4.3c-1.2-5.2-0.5-8.1,3.3-12
		C208,155,211.2,156,213.8,160.8z"/>
	<path class="st103" d="M137,215.8c1.8,1.7,2.1,0.5,2.2-1.1c2.4-0.1,4.8-0.2,6.9-1.4c7.2-2,14.4-4,22-2.6c0.5,0.2,0.9,0.5,1.2,1
		c0.2,1.2-0.5,1.9-1.4,2.5c-0.4,0.2-0.9,0.4-1.3,0.6c-1.1,0.4-2.2,0.7-3.3,0.6c-1.4-0.2-2.8-0.7-4.2,0.1c-1.4,0.7-2.9,0.4-4.4,0.5
		c-4.4,1.4-9.2,1.7-12.9,5.1c-2.5,1.1-5.1,1.8-7.8,1.4c-0.7-0.4-1.4-0.8-2.1-1.1C133,219,137.5,219.6,137,215.8z"/>
	<path class="st104" d="M223.9,182.7c-0.6,2.3,1.3,4.9-0.9,7c-0.6-0.2-1.1-0.6-1.6-1.1c-4.9-5.4-5-5.4-10.3-0.6
		c-0.5,0.5-1.1,0.7-1.8,0.6c-1.2-1-0.9-2.1-0.4-3.3c0.4-1.9,1.6-3.3,2.7-4.7C216.2,175.3,221.3,176.1,223.9,182.7z"/>
	<path class="st105" d="M141.6,185.5c5.8-5.3,12.7-7.8,20-9.6c1.5-0.4,3-0.5,4.2,0.6c1.2,1.1,1.7,2.5-0.4,2.7
		C157.1,180.2,149.3,182.6,141.6,185.5z"/>
	<path class="st106" d="M196.2,217.7c2.5-2.3,5.2-4.1,8.8-4.3c0.8,0,1.6,0.1,2.3,0.1c0.4-0.3,0.8-0.4,1.3-0.3
		c0.7,0.5,0.7,1.2,0.4,1.9c-1.8,2.7-10,5.7-12.7,4.5C195.4,219.3,195.4,218.4,196.2,217.7z"/>
	<path class="st107" d="M207.8,213.5c0,0-0.4,0-0.4,0c-1.8-2.7-1.9-5.6-0.3-8.4c1-1.8,1.2-3.7,1.2-5.6c0.6-1-0.2-2.4,0.8-3.2
		c2.5,0.4,1.4,2.5,1.9,3.9c-0.4,1.4-0.7,2.9-1.1,4.3c0.2,1,0,2-0.2,2.9C209,209.4,209.9,212,207.8,213.5z"/>
	<path class="st108" d="M213.8,160.8c-3.1-2.8-6.4-5-10.9-3.3c-1.1-1.4-2.8-0.6-4.2-1c4.8-1.2,9.5-1.9,14.3-0.1
		c0.9,1.1,1.8,2.2,2.7,3.2C214.9,159.6,214.2,160,213.8,160.8z"/>
	<path class="st99" d="M132.1,213.6c-0.6,1,0.9,3.7-1.7,3.5c-1.8-0.2-2.1-2.7-2.7-4.2c-0.4-1.1,0.7-2.4,2.4-2.4
		C131.9,210.6,132.8,211.5,132.1,213.6z"/>
	<path class="st109" d="M209.1,196.9c-0.3,0.9-0.6,1.8-0.8,2.7c-1.4-4.8-1.8-9.5,0.7-14.1c0.3,1-0.2,2.3,0.9,3.1
		C212.2,191.5,210.6,194.2,209.1,196.9z"/>
	<path class="st110" d="M169.9,179.4c-2.3-0.9-2.7-2.8-2.8-5.7C170.1,175.1,170.2,177.2,169.9,179.4
		C169.9,179.4,169.9,179.4,169.9,179.4z"/>
	<path class="st111" d="M196.2,217.7c0.1,0.6,0.3,1.7,0.9,1.3c2.4-1.4,4.7-1.8,7.4-1.2c2.4,0.5,2.9-2.1,4.1-3.5
		c0.5-0.3,0.9-0.3,1.3,0.2c-0.7,2.4,0.9,6.3-3.9,6c-0.5,0.6-1.3,0.9-2,1.3c0.6,0.6,1.4,0.6,2.1,0.8c0.3,0.4,0.5,0.8,0.8,1.3
		c-0.8,4.1-4.7,5-7.3,7.1c-0.7,0.4-1.4,0.8-1.6,1.6c3.2,5.7,5.5,5.8,9,0.3c0.4-0.7,0.8-1.5,1.3-2.2c2.6-2.1,1.7-5.8,3.7-8.2
		l-0.1,0.1c4.3,1.1,7.6,4.3,12,5.1c3.4,1.8,7.2,0.1,10.7,1.3c1.3,2.8,0.2,5.9-0.8,8c-5.8,12.3-11.4,24.9-24.2,31.9
		c-2.7-1-0.1-4.2-2.1-5.4c-3.2,2.9-6.7,5.3-11.2,5.4c-1,0.2-2.3,0.1-2.5,1.2c-0.3,1,1,1.1,1.7,1.4c1.8,0.9,4.2,1.5,1.7,4.1
		c-3.1,0.9-6.1,1.9-9.2,2.8c-9.8,1-19.2-1.6-28.7-3.1c-6.3-0.5-12.2-1.7-17.2-5.9c-3.3-2.3-7.3-3.8-10-7c-0.9-5.6-3.9-10.9-2.4-16.9
		c0.2-0.8,0.6-1,1.2-1.1c10.4,6.4,21.5,9.1,33.7,7.5c1.1-0.1,2.2,0.4,3.3,0.7c4.6,0.5,8.1,3.6,12.3,5c5.4,1.8,10.6,3.7,16.4,3.5
		c3-0.1,5.6-0.9,7.3-3.5c-1.5-1.6-4.3-2.8-1.8-5.7c2.8-4,6.5-7.1,9.1-11.2c0.4-0.3,0.8-0.5,1.2-0.7c-0.4-0.1-0.7,0.3-1,0.4
		c-0.7,0.3-1.3,0.9-1.9,1.4c-7.3,4.1-15.1,6.4-23.5,6.8c-2,0.1-4.4,0.6-5.4-2.2c1.4-1,2.9-2.1,4.3-3.1c1.9-4,6.4-6.4,6.6-11.3
		c0.1-2.2,0-4.5-0.3-6.7c0-1,0.3-1.9,0.3-2.8c0.2-1.7-0.1-3.5,1.2-4.9C194,216.2,195.1,216.3,196.2,217.7z"/>
	<path class="st112" d="M193.2,315.1c-0.9-2.2-1.9-4.4-2.8-6.6c0.3-6.1,0.3-6.1,5.5-5.9c1.4,0.5,1.3,2.5,3.1,3
		c-0.1-1.6-2.4-1.4-2.2-3c1.3-1.4,2.7-0.9,4-0.2c0.3,0.1,0.6,0.1,0.9,0.1c10.1,3.8,18.3,10.3,25.2,18.5c1.3,1.6,2.8,3.5,0.7,5.7
		c-1.7,1.3-3.6,1.5-5.6,1.4c-3,4.8-6.3,9.2-12.4,10.4c-2,1-2.8-0.6-3.4-1.8C202.4,329.3,197.9,322.1,193.2,315.1z"/>
	<path class="st113" d="M143,284.4c-0.3-0.3-0.7-0.7-1-1c-0.6-0.7-0.9-1.4-0.9-2.3c2.3-7,8.5-8.8,14.8-4.3c3.5,1.6,7.3,1.7,11,2.3
		c2.1,0.4,3.6,1.4,5.3,2.3c1.9,1.5,3.8,3.1,6.8,5.5c-8.6,2.8-15.8,1.6-22.9,1.5C151.1,289.2,146.8,287.5,143,284.4z"/>
	<path class="st114" d="M245,297.6c3.3,9.4,2.9,10-7,10c-3.8,0-7.4-0.8-11-2c-1.9-2.6-0.9-4.1,1.8-5.1c1.7-0.6,3.4-1.1,5.2-1
		C237.9,300.2,241.3,298.2,245,297.6z"/>
	<path class="st69" d="M227.2,327c2.6-3.3-0.8-4.9-2.2-6.5c-5-5.8-11.1-10.5-17.7-14.3c-1.9-1.1-3.6-2.4-5.4-3.6
		c0.7-0.3,1.4-0.7,2.1-1c1.4-1.3,2.2-0.1,3.2,0.6c1.2,0.9,1.7,2.8,3.7,2.4c6,5,12.1,9.9,18.1,14.9c-0.9,2.8,2.9,2.9,2.9,5.2
		c-1.1,0.8-0.6,2.6-2,3.1C229,327.5,228.1,327.2,227.2,327C227.2,326.9,227.2,327,227.2,327z"/>
	<path class="st115" d="M197.1,303.5c-3.9-0.6-6.5,0.7-6.7,5c-0.2-1.3-0.8-2.7-0.4-3.8c1.7-5.7-1.2-9.6-4.9-13.2
		c-0.9-4.2-5.6-5.3-7.1-9c5.5,1.4,9.2,4.8,11.3,9.9c2.2,5.2,7.9,6.5,11.6,10.1C199.7,303,198,302.2,197.1,303.5L197.1,303.5z"/>
	<path class="st116" d="M210.9,304.6c-3.4,1.6-3.9-3.7-7-3c-1.4-1.5-5-2.1-4.4-4.1c1-3,3-5.9,5.9-7.7c1.2-0.7,2.6-0.6,3.7,0.5
		c1.2,1.2,0.1,2-0.4,3C205.2,299.7,205.2,299.7,210.9,304.6z"/>
	<path class="st117" d="M155.8,276.8c-3.4-0.6-6.8-2.7-10.4-0.2c-1.8,1.3-3.5,2.4-3.6,4.9c-3.6-0.6-2.6-2.8-1.4-4.7
		c1.1-1.7,2.4-3.2,2.6-5.2c-0.3-0.7-0.7-1.4-1-2.1c5.7,2,11.5,3.9,17.2,5.9C158,275.7,156.5,275.4,155.8,276.8z"/>
	<path class="st58" d="M254.9,241.6c-1.8,0-1.3,0.8-0.6,1.7c3,3.7,7,5.7,11.5,7c1.3,0.4,3.1,0,3.2,2.2c-8.4,1.2-16.7,1.8-25.2,0
		c-7.5-1.6-8.6-3.5-7.2-11c0.7-3.6,4.5-7,1.2-11.1c-0.3-0.3-0.4-0.6-0.5-1c0-0.4,0.2-0.7,0.5-0.9c2.3,0,4.7,0,7,0
		C245.8,234.8,251.2,237.6,254.9,241.6z"/>
	<path class="st118" d="M237.8,229.9c-0.1,0.2-0.1,0.4,0.1,0.6c-2,7.7-5.1,14.9-9,21.8c-5.8,7-11.3,14.3-20,18.3
		c-1,0.6-2,0.4-2.1-0.8c-0.1-1.5,0.8-1.9,2.2-1.3c9.6-7,16.3-16.1,21.5-26.8c1.9-3.9,0.9-8.8,4.6-11.9
		C236,228.8,236.9,228.4,237.8,229.9z"/>
	<path class="st119" d="M284,287.5c-4.4,4.6-10.9,4-16.1,6.8c-3.1,1.7-6.9,2.1-10.2,3.4c-3.4,1.4-4.7,0.3-4.6-3.1
		c8.1-2.6,15.2-7.3,22.2-11.9c5.4-3.5,5.2-3.8,7.8,2C283.4,285.6,283.7,286.6,284,287.5z"/>
	<path class="st120" d="M208.9,268.5c-0.7,0.2-1.7,0.2-1.5,1.2c0.1,0.4,0.9,0.6,1.4,0.8c-3.6,2.5-7.5,4.3-11.8,5.1
		c0.6-1.4,0.6-2.8-1.3-3c-2.1-0.2-4.6-0.3-4.2-2.9c0.2-1.9,2.8-1.7,4.5-2.2c4.8,1.7,8,0,12-6c1.4-1.3,1.9-0.6,1.8,0.9
		C209.6,264.5,209.2,266.5,208.9,268.5z"/>
	<path class="st121" d="M245.3,202.2c-0.1,0.8-0.2,1.5-0.3,2.3c-0.6,5.3,0.6,10.3,2.9,15.1c-0.7,1.1-1.8,0.9-2.8,1
		c-4.1-8.1-4.6-16.2,0.3-24.2c0-0.1,0.3,0,0.5,0c0.1,0.1,0.3,0.2,0.4,0.3C245.9,198.6,245.6,200.4,245.3,202.2z"/>
	<path class="st122" d="M237.8,229.9c-0.9,0-1.8-0.1-2.8-0.1c-4-0.4-8.2,0.7-12-1.3c0.4-2.4,2-1.3,3.2-1.2c3.6,0,7.1,0,10.7,0.1
		c0.3,0.4,0.7,0.7,1,1.1C237.9,229,237.8,229.4,237.8,229.9z"/>
	<path class="st123" d="M216,382.5c1.2,7.5,1.9,15.1,2.1,22.7c-0.1,1.2-0.6,2.6-0.1,3.4c3.3,5.9-0.5,5.2-4.2,4.9
		c-8.1-0.8-15.5-4.4-23.4-5.9c-1.3-0.2-3.2-0.6-2-3.2c0.4-0.9-2.3-1.2-3.6-1.8c-3,0.3-5.6-0.4-7.1-3.4c2.5-3.7,5.1-0.2,7.6,0
		c7.1,2,13.3,6.1,20.6,7.6c2.8,1.2,6,4.2,8.6,2.3c3-2.1,0.2-6.1,0.2-9.2c0.2-4.7-1.2-9.2-1-13.8c0-1.1,0.2-2.3,0.9-3.2
		C215,382.3,215.5,382.2,216,382.5z"/>
	<path class="st124" d="M204.4,432.9c3.2,0.8,5.7,0.8,8.1-1.3c0.5-0.5,1.4-0.8,1.7-0.1c1.3,2.6-1.1,4.5-1.7,6.7
		c-0.5,1.7-2.4,1.8-3.6,0.4C207.2,436.8,205.9,434.8,204.4,432.9z"/>
	<path class="st125" d="M178.1,399.3c2.2,1.2,4.1,3,6.7,3.3c-3.8,2-7.9-0.1-11.8,0.8c0-1.7,1.2-2.5,2.5-3.1c-1.3-2-3.3,1.3-4-0.6
		c-0.5-1.3,0.9-2.2,2.4-2.2C175.8,397,177.1,397.7,178.1,399.3z"/>
	<path class="st126" d="M248.1,374.4c-0.8-4.3-1.4-8.7-4-14.2c-0.1,7.7,2.5,13.6,3.6,19.6c0.1,0.8,0.5,1.6,0.7,2.4
		c2.3,7.1,2.3,7.1-4.4,9.2c-1.3,0-3.1,0.1-3.5-1.4c-1.7-6.9-6.5-13.5-3.2-21c4.1-9.4,6.3-18.8,3.1-28.9c-0.1-0.2,0.4-0.5,0.6-0.7
		c3,6.3,6,12.7,9,19c0.8,4,0.9,8.1,1.2,12.2C251.3,372.5,251.6,375.3,248.1,374.4z"/>
	<path class="st127" d="M229.9,327.8c0.4-1.2-0.3-3.2,2-3.1c0.1,0.3,0,0.7,0.2,1c5.7,6.3,1.9,12.2-1.5,17.5c-2.4,3.8-4,7-1.6,11.2
		c0.8,1.4,1.4,3,1.8,4.6c0.9,3.5,3,7.3-3.4,8.2c-2.2,0.3-4,2.9-4.9,5.3c-0.9,2.4-1.9,0.5-2.8,0.2c-2.5-7-1.4-13.7,1.7-20.2
		c2.7-5.5,5.4-11,7.3-16.8C229.7,333,230.2,330.5,229.9,327.8z"/>
	<path class="st128" d="M216,382.5c-0.3,0-0.7,0-1,0c-2.1-0.8-2.1-2.7-2.4-4.5c-0.3-1.5-0.1-2.9-0.3-4.4c-0.5-3.6,0.9-8-4.3-9.5
		c-0.4-2.4-3-3.4-3.5-5.7c1.1-3.2,3.3-0.5,5-1c0.7-2.4-1.8-4.6-0.6-7.1c-3.4-12.4-9.4-23.6-16.9-33.9c0.4-0.5,0.8-0.9,1.1-1.4
		c2.5,0.1,3.1,2.3,4.1,3.8c3.4,5.4,6.5,11,9.8,16.5c0.7,1.2,0.8,3,2.7,3.2c0.4,7.4,3.9,14.1,4.5,21.4c0.4,5.1,1.5,10.2,0.6,15.4
		C214.5,378,216.7,380,216,382.5z"/>
	<path class="st129" d="M227.2,327C227.2,327,227.2,327,227.2,327c-2.8,2.9-3.3,6.6-3.4,10.5c-1.2-3-0.3-6.3-1.6-9.2
		c0.5-0.3-0.4-2.1,0.7-1.2C224.6,328.4,225.8,326.8,227.2,327z"/>
	<path class="st18" d="M201.9,492.6c-2.1-2.8-5-2.6-7.9-2.1C197.2,489,200.4,487.6,201.9,492.6z"/>
	<path class="st130" d="M248.1,374.4c3.6-1.3,1.9-4.2,1.5-6.2c-0.6-3.3-1.1-6.5,0.4-9.6c3.5,2,4.1,5.9,6,9
		c0.2,5.9,2.9,11.3,3.1,17.1c-0.7,1.3-1.4,2.6-2.1,3.9c-5.3,0.2-5.2-4.6-6.9-7.6C249,379,248.7,376.6,248.1,374.4z"/>
	<path class="st131" d="M259.1,384.6c-2.3-5.5-4.7-10.9-3.1-17.1c2,2.4,3.9,4.9,6,7.2c3,3.1,2.8,5.6-1,7.8
		C260.3,383,259.7,383.9,259.1,384.6z"/>
	<path class="st81" d="M208.9,363.3c0,0.2,0,0.4,0.1,0.5c7.1,1.9,3.4,8,4.6,12.1c0.6,2.1,0.4,4.5,1.4,6.6c0,1-0.1,2-0.1,3.1
		c-7.6,3.6-16.1,5.1-23.5,9.5c-2.4,1.5-4.9,2.8-6.4,5.3c-2.4,0.3-4.2-3.6-7-1.1c-1.4-0.6-2.7-1.2-4.1-1.8c0-0.3,0-0.6-0.1-0.9
		c3.5-6.8,12.5-5.5,16.5-11.5c-0.4-1.4-1.3-1-2.3-0.7c-8.4,2.4-16.8,1.4-25-1c-3.8-1.1-2.4-4.3-1.2-6.8c-0.3,2.9,0.8,4,3.9,4.1
		c6.2,0.4,12-1.7,18-2.5c4.8-0.6,6.5-3.5,6.9-7.7c1.9,1.4,1.1,3.6,1.5,5.4c0.5,2.6,0.3,5.7,4.2,6.7c-0.2-1.7-4-0.9-2.3-3.4
		c1.3-0.9,2.8-0.8,4.3-0.8c2.9,0,6,1.8,8.8-0.6c2-1.6,0.8-3.5,0.9-5.4C208.3,369.2,205.2,366,208.9,363.3z"/>
	<path class="st132" d="M208.9,350.4c1.4,2.9,2.4,5.9,2.4,9.1c-2.5,1.1-4-3.8-6.5-0.7c-4,0.3-7,2.1-8.8,5.9c-0.6,1.2-1.6,2.1-3,2.3
		c-2.1-0.8-4.9,1.3-6.6-1.5c-1.1-3.2-1-6.8-2.9-10.3c-1.5,4.6-3.5,8.6-1.1,13.2c0.5,0.7,1.2,1.3,1.6,2.2c-2,1.8-4.4,0.8-6.7,0.9
		c-1.5,0.1-3.5-0.2-3.7-1.8c-0.2-1.6,1.6-1.5,2.9-1.6c2.3-0.3,1.4-2.3,1.4-3.6c0-6.5,2.3-12.3,5.8-17.6c1.2-1.8,2-2.5,4.3-1.1
		C194.4,349.6,201.4,351.2,208.9,350.4z"/>
	<path class="st133" d="M186.9,365.5c1.7,2.1,4.7-1.4,6.3,1.4c-0.2,4.2,1.5,8.2,0.9,12.5c1.1,2.2,3.3,0.7,5.1,1.6
		c-0.4,1.6-0.9,3.2-2.7,3.4c-1.9,0.2-2.6-1.6-3.6-3c-2.4-3.4-1.8-7.2-2.1-11c0.1-1.4,0.3-2.9-1.9-1.7c-1.6,0.8-2.9,2.2-4.9,1.9
		c-0.8-0.1-1.6-0.2-2-1.1C183.2,367.6,184.5,365.8,186.9,365.5z"/>
	<path class="st134" d="M143,284.4c4.3,1.3,8.7,2.6,13,3.9c3.6,2.2,7.7,0.9,11.5,1.2c1.8,0.2,3.6,0,6.1,0c-5.2,2.1-9.9,1.9-14.6,1.8
		c-5.6-0.8-11.1-1.8-16.1-4.9C144.1,285.9,143.1,285.2,143,284.4z"/>
	<path class="st135" d="M177,301.5c-1.4-1.5-4.6-1.3-4.5-4.8c4.1,1,8.1,0.8,12.2,0.9c2.5,0.1,3.5,1.5,3.2,3.9
		C184.3,301.4,180.6,301.5,177,301.5z"/>
	<path class="st136" d="M215.1,200.4c1.1-3.9,5.1-3.4,7.7-5c1.1,0.2,2.2,0.5,2.8,1.7c2.4,5.1-2.8,14.1-8.8,15.2
		C217.4,208.2,218.9,203.9,215.1,200.4z"/>
	<path class="st137" d="M215.1,200.4c5.3,3.1,5.6,5.1,1.7,11.9c-1.4-0.3-2.6,1.3-4,0.3c-1.8-1.8-3.5-3.7-3.8-6.4
		c0.3-0.6,0.6-1.2,0.9-1.7c0.9,0,1.9,0,2.8,0c1.1,0.5,1.3,1.9,2.3,2.9c-0.1-1.7-1.5-2-2.1-3C213.1,202.7,212.5,200.6,215.1,200.4z"
		/>
	<path class="st138" d="M212,222.5c0.7,3.6,0,6.7-3,9.1c-1.3,1.5-2.9,2.5-5,2.2c-0.3-0.4-0.5-0.8-0.5-1.3c0.6-2.5,3.8-2.5,4.7-5
		c-2.7,1.1-4.4,3.5-7.1,4.4c-1.1,0.1-1.8-0.3-2.2-1.4c2.7-2.2,5.4-4.4,8.1-6.7C208.7,223.3,210.4,222.9,212,222.5z"/>
	<path class="st139" d="M226.2,227.3c-1.1,0.3-2.5-0.2-3.2,1.2c-4.4-0.7-7.7-3.5-11.1-6c1.5-1.8,2.6,0,3.8,0.5
		C219.3,224.4,222.8,225.9,226.2,227.3z"/>
	<path class="st140" d="M209.1,206.2c1.4,2,3.6,3.6,3.8,6.4c-0.9,0.7-1.4,2-2.8,1.9c-0.4-0.1-0.9-0.1-1.3-0.2
		c-0.3-0.3-0.6-0.5-0.9-0.8C208.1,211.1,207.1,208.4,209.1,206.2z"/>
	<path class="st141" d="M206.3,222.5c-1.8,1.8-3.2,0.6-4.6-0.7c1.1-2,2.9-1.3,4.5-1.4C206.1,221.2,206.2,221.8,206.3,222.5z"/>
	<path class="st142" d="M209.1,196.9c-0.9-2.9,1.3-5.5,0.7-8.4c5.1-7.9,8.5-7.6,13.2,1.3c-0.3,0.9,0.5,2.3-0.9,2.8
		c-1.2-0.3-1.6-1.6-2.4-2.3c-2.3-1.9-4.2-1.5-5.4,1.3c-1,2.2-1.7,4.6-2.2,7c-0.3,0.6-0.7,1.1-1,1.7
		C209,199.8,210.3,197.6,209.1,196.9z"/>
	<path class="st143" d="M211.9,198.5c-1.4-4.3,0.7-7.6,3.2-10.5c1.8-2.1,5.7,0.6,6.9,4.5C218.7,194.5,215.3,196.5,211.9,198.5z"/>
	<path class="st144" d="M143,271.6c2.7,1.9,0.7,3.1-0.6,4.5c-1.6,1.7-3.7,3.2-0.6,5.4c0,0.6,0.1,1.3,0.1,1.9c-1.9,0-3.3-1.2-5-2
		c-2.4-1.1-3.6-2.9-3-5.5c0.5-2.4,2.3-3.4,4.7-3.5C140.2,272.3,141.6,271.9,143,271.6z"/>
	<path class="st145" d="M192,225.5c1.5,2.4,1.1,4.9,0.1,7.3c-1.9,4.1-4.7,7.2-9.3,8.5c-5.1,2-9.8,5.6-15.7,5.1
		c-3.9,0.9-7.5-3.1-11.2-0.6c1.9-0.3,4-0.4,4.2,2.6c-10.3,0.8-20.2,0.4-27.2-8.9c-2.5-3-1.8-5.6,0.8-8.2c3.2-3.2,6.2-6.3,10.8-7.5
		c6.8,0.9,13.4,2.7,20.3,2.2c7.6,1.6,14.7,0.1,21.4-3.7C189.5,220.6,190.8,221.4,192,225.5z"/>
	<path class="st146" d="M205.8,257.4c-3.2,5.5-8.2,6.4-13.8,5.1c-8.6-2-16.9-4.7-24.2-9.9c0.5-2.6,2.1-2.2,3.8-1.3
		c8.3,0.4,16.7,0.4,25,1.1c0.8,0.3,1.6,0.8,1.7,1.8c-1.5,3-4.5,2.3-7,2.5c-2.5,0.2-4.9-0.4-7-0.5c5.8,1.1,12.1,0.8,18.3,0
		C203.6,256.3,205.5,254.6,205.8,257.4z"/>
	<path class="st147" d="M143.9,224.5c-2.7,2.8-6.2,4.6-8.9,7.4c-2.4,2.4-3.2,4.7-2,7.7c-5-5.3-4.7-10.6,1.1-17.2
		c2.3-1.1,4.7-2.2,7.4-1.7c2,0.1,4.1,0.3,4.9,2.7C145.7,224.3,144.8,224.5,143.9,224.5z"/>
	<path class="st148" d="M196.9,253.4c-8.5,0.2-17.1,1.3-25.3-2c1.2-0.7,2.3-1.4,3.5-2.1c8.3-1.2,16.9-0.2,25.1-3.1
		c1.3-0.5,3.1-0.9,4,0.9c0.8,1.7-0.7,2.7-1.6,3.8C201.1,252.8,199.1,253.2,196.9,253.4z"/>
	<path class="st149" d="M196.9,253.4c2.7-1.7,5.8-2.9,7.4-6.9c-9.9,2.5-19.3,4.4-29.1,2.8c1.8-1.1,4.2-0.7,5.5-2.7
		c8.7,2.6,16.5-0.9,24.4-3.8c1.7-0.6,3.2-1.6,4.8-2.4c1.1-0.4,2.2-0.7,2.2,1.1c-2.3,4.2-6,7.3-9.1,10.9c-1.2,1.7-2.4,3.4-4.9,2.1
		C197.6,254.1,197.3,253.8,196.9,253.4z"/>
	<path class="st150" d="M160.2,248.5c-2-3.4-5.2-0.2-7.9-1.4c5-5,9.9-3.4,14.9-0.6C165.7,250,162.5,247.9,160.2,248.5z"/>
	<path class="st151" d="M182.9,241.3c3.1-2.8,6.2-5.7,9.3-8.5c1.8,1.3,0,2.3-0.5,3.1c-1.8,2.9-3.5,5.8-6.7,7.5
		C185,242,184.1,241.5,182.9,241.3z"/>
	<path class="st152" d="M192.8,217.7c0,1.9,0.1,3.8,0.1,5.7c-0.5,0.2-1,0.2-1.3-0.3c-2.9-6.5-8.2-8.9-15.1-8.7
		c-2.5-0.8-5.4,0.1-7.6-1.8c0-0.3,0-0.6,0-0.9c1.2-1.9,3.7-0.6,5.1-2c0.3-0.6,0.5-1.3,0.8-1.9c2.2,2.6,4.6,4.1,8.4,3.8
		C187.6,211.2,190.6,214.2,192.8,217.7z"/>
	<path class="st153" d="M174.1,209.6c0.1,0.8,0.9,1.9-0.9,1.9c-1.4,0-2.8,0.1-4.2,0.1c-8.3-1.3-16,1.4-23.9,3
		c-3.7-0.9-2.7-3.6-1.9-5.8c2.1-5.7,9-8.9,15.7-7.1c2,0.6,4.1,1.1,6.1,1.8C168.7,204.6,171.3,207.2,174.1,209.6z"/>
	<path class="st154" d="M165,203.5c-3.6-0.3-7.2-1-10.8-0.9c-4.6,0.1-8,2.5-10,6.7c-0.9,1.8-1.3,3.8,0.8,5.3c-2,0.7-4,3.1-5.9,0
		c-0.8-11.8,7.1-18.2,18.3-14.7C160.1,200.8,162.8,201.7,165,203.5z"/>
	<path class="st155" d="M143.9,224.5c0.7-0.4,1.4-0.8,2.1-1.2c4.6-0.8,9.2,0.1,13.2,0.4c-4.3-2.2-5.1-3.8-4.3-9
		c1.3-0.3,2.7,0.8,4-0.2c1.3,0.4,2.5,0.9,3.4,1.9c0.5,0.9,0.3,2.5,1.9,2.2c1.2-0.2,1.2-1.3,1.2-2.3c0-1-0.1-1.9,0.4-2.8
		c0.5,0,0.9,0,1.4,0c4,1.8,2.8,5.2,2.6,8.3c0.1,0.1,0.1,0.3,0.2,0.5c0.7,1.7,4.4,0.6,3.7,2.9c-0.6,2.2-3.4,1.9-5.5,1.8
		c-1.1-0.1-2.3-0.3-3.3,0.4C157.7,227.5,150.7,226.9,143.9,224.5z"/>
	<path class="st156" d="M168,222.6c1.4-3.2,1.5-6.2-0.9-9c0.6-0.4,1.2-0.7,1.8-1.1c2.6,0.9,5.5-0.8,8.1,1c1.2,0.9,2.7,1.3,3.6,2.6
		c1.5,2.1,1.9,4.3-0.1,6.3C178.4,224.7,171.2,224.8,168,222.6z"/>
	<path class="st157" d="M154.8,214.7c0.5,3.8,1.8,7.2,6.5,9.7c-6,0.5-10.8,0.8-15.4-1.1c-1.3-1.2-3.7-0.5-4.6-2.6
		c-0.6-2.3,1.4-2.3,2.6-2.7C147.6,216.8,151.2,215.8,154.8,214.7z"/>
	<path class="st158" d="M165.8,213.6c0.3,1.1,0.8,2.1,1,3.2c0.4,1.4-0.1,2.6-1.4,3.3c-1.2,0.6-2.6,0.8-3.7,0
		c-1.4-1.1-0.3-2.3,0.3-3.5c0-0.8,0.2-1.5,0.8-2.1C163.8,214.2,164.8,213.9,165.8,213.6z"/>
	<path class="st159" d="M162.8,214.5c-0.3,0.7-0.5,1.4-0.8,2.1c-1.6,0.1-3.1,0-3.1-2.1C160.2,213,161.5,213.7,162.8,214.5z"/>
	<path class="st160" d="M168,222.6c3.7,2.2,7.4,0.1,11-0.5c2.4-0.4,2.4-2.9,1.1-4.8c-0.9-1.4-2.1-2.6-3.1-3.8
		c8.3-1.6,12.9,2.9,15.9,9.9c-0.3,0.7-0.6,1.4-1,2.1c-1.3-1.9-2.3-4.3-5.3-2.1c-6,4.4-12.6,5.6-19.9,4.2c-0.6-0.1-1.3-0.1-2-0.1
		c2.7-0.8,5.4-1.5,8.3-2.3c-1.5-1.4-3.1-0.5-4.6-0.7C167,224.2,166.9,223.6,168,222.6z"/>
	<path class="st161" d="M198,254.4c1.6-0.7,3.3-1.4,4.9-2.1c0.3,1.2-2.4,3.9,1.7,3.2c0.8-0.1,3.4-0.4,1.2,1.9
		c-2.2-1.7-4.1,0.2-6,0.6c-6.5,1.4-12.3,0.9-18-2.2C187.3,255,192.8,256.3,198,254.4z"/>
	<path class="st162" d="M203.9,233.3c1.7-0.6,3.4-1.2,5.1-1.7c-0.5,1-1,2-1.5,3c-1.2,2.6-3.6,4.5-6.1,3.7c-2.7-0.8-5.1-3.1-4.7-6.7
		C199.2,231.9,201.7,232.2,203.9,233.3z"/>
	<path class="st163" d="M208,261.5c-0.9,5.1-7,9.3-11.5,8c-1.2-0.4-0.8-1.2-0.5-2C201.2,267.8,204.4,264.3,208,261.5z"/>
	<path class="st164" d="M203.9,233.3c-2.6,0.4-5.2,0.6-7.1-1.8c0.4-1,1.3-1,2.1-1c0.6,0.4,1.2,0.8,1.8,1.2c1.2-0.2,2.4-0.2,3.3,0.9
		C203.9,232.8,203.9,233,203.9,233.3z"/>
	<path class="st165" d="M212,241.5c-0.4-0.9-1.4-0.9-2.2-1.1c1.7-1,3.5-2.1,5.2-3.1C215,239.6,213.7,240.8,212,241.5z"/>
	<path class="st166" d="M197,303.6c1.6-0.1,3.4-0.8,4.2,1.2c0.4,0.9-0.4,1.9-1.2,2.5c-0.9,0.6-1.9,0.4-2.8-0.1
		C195.4,306.1,196.3,304.8,197,303.6C197.1,303.5,197,303.6,197,303.6z"/>
	<path class="st167" d="M164,286.8c-5.6-1-11.3-1.7-16.7-3.9c-0.9-0.4-2.3-0.3-2-1.6c0.2-1,0.7-2.4,2-2.6c1.6-0.2,3.6-0.7,4.9,0
		c3.9,2,8.4,1.5,12.4,3c2.1,0.8,5.6,0.3,5.2,3.3C169.4,288.2,166,285.7,164,286.8z"/>
	<path class="st168" d="M185.1,400.4c-1.3-1.8,0-2.9,1.2-3.6c8.9-5.3,18.2-9.8,28.7-11.2c0,5,1.7,9.9,1.1,14.9
		c-2.1,4.1-5.5,6.3-10,7c-5.1,0-9.5-2.4-14-4.4C189.8,402,187.4,401.3,185.1,400.4z"/>
	<path class="st169" d="M206,407.5c3.3-2.3,7.1-4,10-7c0.1,0.3,0.1,0.7,0.2,1c1,3.2,2.4,7.8-0.1,9.3
		C213,412.5,208.8,410.4,206,407.5z"/>
	<path class="st170" d="M194.1,379.3c-1.4-4.1-3.4-8.1-0.9-12.5c1-1.7,2-3.4,3.1-5c2-3.2,4.5-5.3,8.5-2.9c1.4,1.5,4.3,1.6,4.1,4.5
		c-1.1,3.5-0.3,7.1,0.9,10c1.2,3-0.2,3.7-1.8,5.1c-1.7,0.4-2.8-0.1-3.4-1.7c-0.1-1.1,0.2-2.3-0.1-3.6c-0.5,1.2-0.2,2.5-0.7,3.5
		c-0.9,2.3-3.2,1.9-4.9,2.7C197.3,379.7,195.7,379.9,194.1,379.3z"/>
	<path class="st171" d="M205.1,376.5c0.5,1.3,1.8,1.4,2.9,2c-2.7,3.5-6,1.1-9.1,0.9c1.4-0.9,2.8-1.8,4.2-2.8
		C203.7,375.9,204.4,376,205.1,376.5z"/>
	<path class="st172" d="M186.9,365.5c-1,2.1-2.8,3.2-4.9,4c-2.2-0.5-2.1-2.3-2.1-4c0.1-4.5,1.1-8.8,3.7-13.3
		C185.9,356.7,187.5,360.8,186.9,365.5z"/>
	<path class="st173" d="M212.9,204.3c1,0.1,2,0,2.9,0.4c1.6,0.6,1.2,2.1,1,3.4c-0.1,1-0.9,1.3-1.7,1.4c-1.8,0.1-2.1-1.2-2.2-2.6
		c-0.1-0.8-0.1-1.6-0.2-2.4C212.7,204.4,212.9,204.3,212.9,204.3z"/>
	<path class="st174" d="M204,232.5c-1.1-0.3-2.4,0.3-3.3-0.9c2.8-2.4,5.4-5,9.6-6.4C210.1,229.7,206.5,230.7,204,232.5z"/>
	<path class="st175" d="M205.1,376.5c-0.7,0-1.3,0.1-2,0.1c0-2.1,0-4.2,0-6.8C206.2,371.7,206.7,373.8,205.1,376.5z"/>
</g>
</svg>
