<?xml version="1.0" encoding="utf-8"?>
<!-- Generator: Adobe Illustrator 19.0.0, SVG Export Plug-In . SVG Version: 6.00 Build 0)  -->
<svg version="1.1" id="Laag_1" xmlns="http://www.w3.org/2000/svg" xmlns:xlink="http://www.w3.org/1999/xlink" x="0px" y="0px"
	 viewBox="0 0 403 492" style="enable-background:new 0 0 403 492;" xml:space="preserve">
<style type="text/css">
	.st0{fill:none;}
	.st1{fill:#339833;}
	.st2{fill:#8F5B29;}
	.st3{fill:#339933;}
	.st4{fill:#F3F2E2;}
	.st5{fill:#F3F2E3;}
	.st6{fill:#F9E5BE;}
	.st7{fill:#8D5B2A;}
	.st8{fill:#F1F0E2;}
	.st9{fill:#211A11;}
	.st10{fill:#F1E0BD;}
	.st11{fill:#272F30;}
	.st12{fill:#99161F;}
	.st13{fill:#372B1F;}
	.st14{fill:#281F17;}
	.st15{fill:#9B282C;}
	.st16{fill:#1E1917;}
	.st17{fill:#2D2419;}
	.st18{fill:#464037;}
	.st19{fill:#EDECE0;}
	.st20{fill:#E5E5D8;}
	.st21{fill:#961922;}
	.st22{fill:#8A1D1C;}
	.st23{fill:#191A18;}
	.st24{fill:#3C342D;}
	.st25{fill:#393F41;}
	.st26{fill:#29231C;}
	.st27{fill:#695E54;}
	.st28{fill:#413121;}
	.st29{fill:#6C6255;}
	.st30{fill:#5F3134;}
	.st31{fill:#A39585;}
	.st32{fill:#634022;}
	.st33{fill:#DACDB2;}
	.st34{fill:#665E53;}
	.st35{fill:#5A4F46;}
	.st36{fill:#746D63;}
	.st37{fill:#726B58;}
	.st38{fill:#983743;}
	.st39{fill:#686458;}
	.st40{fill:#545040;}
	.st41{fill:#F0EDE5;}
	.st42{fill:#F8D297;}
	.st43{fill:#724B24;}
	.st44{fill:#573D20;}
	.st45{fill:#1F1913;}
	.st46{fill:#412A15;}
	.st47{fill:#4A3521;}
	.st48{fill:#121515;}
	.st49{fill:#86592A;}
	.st50{fill:#191916;}
	.st51{fill:#1C2627;}
	.st52{fill:#3A3B38;}
	.st53{fill:#3A4745;}
	.st54{fill:#201C15;}
	.st55{fill:#615A53;}
	.st56{fill:#8D2C29;}
	.st57{fill:#322011;}
	.st58{fill:#634121;}
	.st59{fill:#273A40;}
	.st60{fill:#26393F;}
	.st61{fill:#E8E8E8;}
	.st62{fill:#25393E;}
	.st63{fill:#151B19;}
	.st64{fill:#364C51;}
	.st65{fill:#151D1A;}
	.st66{fill:#1C2E31;}
	.st67{fill:#625A40;}
	.st68{fill:#7B7669;}
	.st69{fill:#282F30;}
	.st70{fill:#F9D497;}
	.st71{fill:#654121;}
	.st72{fill:#2B1E11;}
	.st73{fill:#7A5025;}
	.st74{fill:#395960;}
	.st75{fill:#614022;}
	.st76{fill:#192120;}
	.st77{fill:#25373C;}
	.st78{fill:#191F1E;}
	.st79{fill:#4E4536;}
	.st80{fill:#719171;}
	.st81{fill:#25383D;}
	.st82{fill:#EADAB9;}
	.st83{fill:#7D705D;}
	.st84{fill:#FAE4BE;}
	.st85{fill:#4E2115;}
	.st86{fill:#F2E6CB;}
	.st87{fill:#FCFAFA;}
	.st88{fill:#7D6146;}
	.st89{fill:#514940;}
	.st90{fill:#2E221D;}
	.st91{fill:#A56864;}
	.st92{fill:#F1E9E9;}
	.st93{fill:#A75B5C;}
	.st94{fill:#F8D596;}
	.st95{fill:#514A3E;}
	.st96{fill:#111410;}
	.st97{fill:#972022;}
	.st98{fill:#E7DDD5;}
	.st99{fill:#FED698;}
	.st100{fill:#121311;}
	.st101{fill:#221E1B;}
	.st102{fill:#29231A;}
	.st103{fill:#9E4E4A;}
	.st104{fill:#1E1B18;}
	.st105{fill:#282414;}
	.st106{fill:#9E3A34;}
	.st107{fill:#953C31;}
	.st108{fill:#D3BB8E;}
	.st109{fill:#403B2E;}
	.st110{fill:#876B41;}
	.st111{fill:#FCE5BF;}
	.st112{fill:#FBFBFB;}
	.st113{fill:#EEEFE3;}
	.st114{fill:#39585E;}
	.st115{fill:#C8BDA6;}
	.st116{fill:#375055;}
	.st117{fill:#352D26;}
	.st118{fill:#E5DDD1;}
	.st119{fill:#37575E;}
	.st120{fill:#F1D7A1;}
	.st121{fill:#4C4037;}
	.st122{fill:#964A41;}
	.st123{fill:#172020;}
	.st124{fill:#131C1F;}
	.st125{fill:#D5D4D4;}
	.st126{fill:#39575E;}
	.st127{fill:#121516;}
	.st128{fill:#1C2325;}
	.st129{fill:#727475;}
	.st130{fill:#273C41;}
	.st131{fill:#39545D;}
	.st132{fill:#27393E;}
	.st133{fill:#1B2322;}
	.st134{fill:#2C261D;}
	.st135{fill:#375458;}
	.st136{fill:#F2F5F1;}
	.st137{fill:#86876D;}
	.st138{fill:#98815A;}
	.st139{fill:#B76B5E;}
	.st140{fill:#E7D1A8;}
	.st141{fill:#C2AE90;}
	.st142{fill:#E0E1DD;}
	.st143{fill:#F8F5F4;}
	.st144{fill:#5C4023;}
	.st145{fill:#F2E7CB;}
	.st146{fill:#221F17;}
	.st147{fill:#F1D7AB;}
	.st148{fill:#E9E9EA;}
	.st149{fill:#544B41;}
	.st150{fill:#544336;}
	.st151{fill:#A9584D;}
	.st152{fill:#A56D56;}
	.st153{fill:#F9F9F8;}
	.st154{fill:#E3E2DE;}
	.st155{fill:#7C7E5E;}
	.st156{fill:#F5F6F5;}
	.st157{fill:#E0E0DD;}
	.st158{fill:#404338;}
	.st159{fill:#D4B9BA;}
	.st160{fill:#F0DDB1;}
	.st161{fill:#D4BE90;}
	.st162{fill:#F2D7A1;}
	.st163{fill:#8C7C57;}
	.st164{fill:#6D5429;}
	.st165{fill:#7C6C52;}
	.st166{fill:#8F9090;}
	.st167{fill:#379A35;}
	.st168{fill:#395860;}
	.st169{fill:#2D454A;}
	.st170{fill:#F3E1BD;}
	.st171{fill:#848066;}
	.st172{fill:#E2E3D2;}
	.st173{fill:#454226;}
	.st174{fill:#E8CF9E;}
	.st175{fill:#BDAB8B;}
</style>
<g>
	<path class="st0" d="M403,242.5c0,83.5,0,167,0.1,250.4c0,3.2-0.3,4.2-4,4.2C264,497,128.8,497-6.3,497.1c-3.2,0-3.8-0.8-3.8-3.9
		C-10,326.1-10,159-10.1-8.1c0-3.7,1.2-3.9,4.3-3.9c135,0.1,269.9,0.1,404.9,0c3.5,0,4.1,0.8,4.1,4.1C403,75.5,403,159,403,242.5z"
		/>
	<path class="st1" d="M242.3,155.1c2.6,0.6,4.7-1.3,7.2-1.3c3.8-0.1,5.6,0.9,5.6,5.3c-0.3,17.8-0.1,35.7-0.1,53.5c0,7,0,7,6.8,7
		c42,0,84,0.1,126,0c4.5,0,5.6,1.4,6.4,5.7c3.3,17.6,4.2,35.3,2.8,53c-1.6,19.9-6.1,39.1-14,57.5c-7.7,18-17.2,34.7-29.8,49.7
		c-12.3,14.7-26.2,27.4-42.1,38.1c-16.1,10.8-33.4,18.7-51.8,24.6c-21.5,6.9-43.5,9-65.9,8.6c-7.4-0.1-14.8-1.2-22.2-2
		c-2.3-0.3-4.6-1.1-5.2-3.8c-4-3.5-3.5-8.4-4.1-12.9c-1.9-13.8,1-27.4,2.6-41.1c0.7-6.5,0.2-13,0.3-19.5c0-4.5,0.8-8.7,2.2-13.1
		c3.6-10.7,5.9-21.9,6.6-33.1c1-16.2,1.2-32.5-2.5-48.6c-1.3-5.5,0-7,5.4-8.6c2.1-0.6,4.2-1.7,6.3-1.4c7.4,1,12.5-2.7,17.5-7.6
		c7.9-7.7,8.1-7.5,2.3-16.5c-6.1-9.5-12.7-18.7-18.4-28.5c-2.6-4.5-4.9-9.1-6.9-13.8c-1.9-4.6-1.1-6.5,3.8-7.5
		c8.6-1.8,16.5-5.1,24.1-9.3c8.5-4.7,15.9-10.8,21.5-19c0.7-1.1,1.8-2.2,1.8-3.5C228.8,158.2,235.1,156.2,242.3,155.1z"/>
	<path class="st1" d="M114,428c-0.1,0.5-0.3,1-0.4,1.4c-1.6,5.6-1.7,5.5-7.2,2.7c-15-7.8-28.7-17.9-40.5-29.6
		c-13.1-12.9-24.5-27.7-33.8-44.1c-8.7-15.4-15.2-31.5-19.9-48.4C7.2,291.8,6.5,273,6.6,254c0-15.7,2.7-30.9,6.9-45.7
		c6.1-21.1,15.4-41,28.4-59c1.7-2.4,3.5-2.8,5.9-2.3c1.8,0.7,3,2.1,4.1,3.5c11.3,14.2,27,19.2,44.2,20.9c4.2,0.4,7.9,0.3,9.6,5.2
		c0.7,2.1,3.2,2.8,4.9,4.1c4.9,3.6,5.9,6.9,2.6,11.9c-2.8,4.3-4.6,8.3-3.1,13.5c0.7,2.5-1.1,4.8-1.5,7.2c-2,14.3-7.9,27.4-12.8,40.8
		c-2.1,5.9-0.8,9.4,5.3,10.9c4.2,1,5.3,3.3,5.2,7.1c-0.1,2.7-0.4,5.3-1,7.9c-3.6,20.8,2.4,39.2,13.5,56.5
		c4.8,7.4,7.7,15.8,10.4,24.1c0.8,2.5,0.4,4.9-1.1,7.1c-1.4,2.1-2.4,4.3-3.3,6.7c-4.2,10-6,20.6-6.5,31.4
		c-0.3,6.3-1.9,12.4-2.3,18.7C116,426.1,115.2,427.2,114,428z"/>
	<path class="st1" d="M196.1,72.8c-3.2-6.9-3.2-6.7,4-6.9c11.8-0.3,23.4,1.7,35,2.8c5.4,0.5,10.9,2.3,16.4,3.6
		c3.3,0.8,3.5,2.9,3.5,5.5c-0.1,11.3-0.1,22.6-0.1,33.9c-0.9,4.7-1.2,9.8-7.5,10.7c-0.3,0-0.8,0.2-0.9,0.4c-2,5.2-7.6,8-9.4,13.3
		c-2.1,6-5.7,10.8-10.3,15c-1.2,1-2.7,2-4.1,1.3c-3.6-1.9-6.1,0.3-8.5,2.1c-9.7,7.2-20.5,12.5-31.8,16.4c-8.1,2.8-16.6,3.2-25.1,3
		c-3.4-0.1-4.9-2.1-4.2-5.3c0.9-4.2-1.3-5.2-4.8-5.7c-4-0.5-7.9-1-11.9-1.1c-1.7,0-3.5-0.2-3.9-2.3c-0.4-2.1,1.4-2.8,2.9-3.5
		c2.9-1.4,6.1-1.6,9-2.8c8.6-3.5,15.5-9.1,21.4-16c2.6-3,5.2-4.1,9.1-3.2c16.5,3.6,32,0.3,46.8-7.5c1.3-0.7,3-1.3,2.8-3.1
		c-0.3-1.8-2.3-1.6-3.7-2c-10.3-3.1-20-7.3-27.2-15.8c-2.4-2.8-4-5.9-1.8-9C197.1,89.5,197.7,81.4,196.1,72.8z"/>
	<path class="st2" d="M52.2,31.1c2.1,0,1.9-1.7,2.1-3c2.8-0.8,5.1-1.8,5.2-5.4c0.2-3.9,4.1-3.1,6.2-4.4c6.9-7.9,16.4-9.2,26-10.7
		c9.2-1.5,18,0.7,27,1.5c4.1,1.2,8.3,1.4,12.4,2.6c1.7,0.5,3.5,0.8,4.9,2.2c0.1,4.1-3.3,5.1-6,6.3c-12.6,5.5-25.5,9.5-38.3,8.9
		c2-0.1,5.1,0,8.2,0c1.5,0,3.5-0.4,3.8,1.4c0.3,1.8-1.8,2-3.1,2.6c-7.2,1.6-14.4,1.3-21.6,0.1c-4.5-2.6-7.7,1.1-11.6,2.1
		c0.4,1.7,1.7,2.4,2.6,3.2c4.5,4.2,7,9.1,6.2,15.5c-0.2,1.8,0.1,3.6,0.6,5.4c0.5,4-0.4,7.5-2.9,10.7c-1.5-0.1-2,0.8-2.6,2.1
		c-1.1,2.5-2.3,5-3.9,7.3c-2,3.1-4,6.3-6.5,9.1c-1.1,1.2-1.8,2.8-3.8,2.6C53.5,87,58,83.5,58.1,80c-1.1,2.8-2.1,6-3.8,8.8
		c-0.6,1-1.4,2-2.8,1.5c-1.3-0.5-1.4-1.7-1.4-2.9c0-2.1,1.3-3.9,1.3-5.5c-2.4,4-0.8,8.9-1.1,13.6c-0.1,1.5-0.1,3.3-1.8,3.8
		c-2.2,0.5-2.6-1.6-3.2-3.1c-4.8-12.1-4.4-24.4-1.4-36.8c-1.1,0.9-1.3,2.2-2,3.2c-4.3,8.1-6.2,16.8-5.4,25.9
		c0.1,2.3,1.8,4.3,1.7,6.7c-0.2,3.2-1.8,4.2-4.5,2.6c-4.3-2.5-6.9-6.5-9.1-10.8c-0.2-0.5-0.4-1-0.5-1.5c-1.3-9.1,3.2-16.5,6.7-24.2
		c2.2-4.3,5-8.2,8.2-11.8c1.6-1.7,2.7-3.3,2.2-6.1c-0.6-3.2,2.9-3.6,5.1-4.3C50.2,37.7,52.4,35.4,52.2,31.1z"/>
	<path class="st3" d="M147.8,371.3c-1.9,10.7-0.7,21.5,0.6,32.1c1.8,14.2,3.2,28.3,2.5,42.6c-0.2,3-1.7,3.4-3.8,2.9
		c-6.4-1.4-12.7-3.5-18.7-6c-2.9-1.2-2.6-4-2.2-6.5c1.8-11.2,3.2-22.6,6.5-33.5c0.3-0.9,0.2-2,0.3-2.9c0.2-4.9,2.3-9.2,3.9-13.7
		c1.4-4,3.3-7.9,4.9-11.9C142.8,372,144.1,369,147.8,371.3z"/>
	<path class="st4" d="M196.1,72.8c4.2,7.7,3,15.1-1.7,21.9c-3.2,4.7-2.3,7.9,1.3,11.7c7.6,8,17,12.2,27.4,14.4
		c1.7,0.4,3.3,0.5,3.8,2.5c0.5,2.1-1.3,3.1-2.6,3.8c-5.8,2.8-11.5,6.3-17.6,7.7c-10.3,2.3-20.8,4.2-31.4,1c-3.7-1.1-6-0.2-8.8,3.1
		c-8,9.5-18.1,16.3-30.7,18.8c-1.1,0.2-3.1-0.2-2.8,1.9c0.2,2,2.1,1.4,3.2,1.3c4.3-0.4,8.5,0.7,12.8,1.1c4.9,0.6,6.2,2.1,5.1,7
		c-0.9,3.8,1.1,3.9,4.1,4c21.4,0.8,39.4-8,56.3-19.9c2.6-1.8,4.8-4.2,8.8-1.5c2.3,1.6,4.4-2.1,5.6-3.8c3-4.2,7.2-7.9,7.1-13.8
		c0-0.5,0.2-1.3,0.5-1.3c5.1-1.5,6.1-6.2,8.3-10.1c0.2-0.4,0.8-0.9,1.2-0.9c6.9,0.3,6.4-6.2,9.1-9.8c0.4,0.7,1,1,1.8,1.1
		c1.3,2-0.5,3.5-0.9,5.3c-0.8,2-1.6,3.9-2.5,5.8c-0.7,1.6-1.8,2.9-3.7,2.3c-2.8-0.9-3.4,1-3.9,3c-0.2,0.5-0.2,1.1-0.6,1.4
		c-6.7,4.1-7.2,12.3-11.9,17.7c-3,3.5-5.8,7.4-11.2,7.3c-3-1.2-5.1,0.5-7.3,2c-8.6,5.8-17.8,10.4-27.2,14.6
		c-7.3,3.2-15.1,3.9-22.8,4.7c-0.5,0.2-1.1,0.2-1.6,0.3c-3.8,0.1-7.6,0.1-11.4,0c-3.3-0.1-5.1-1.4-3.8-5c2.8-6,2.3-6.8-4.3-6.9
		c-4.3,0-8.6-0.2-12.9-1c-1.9-0.3-4.3,0.1-5.1-2.3c-0.8-2.5,1-4,2.6-5.5c2.5-1.7,5.3-2.7,8.2-3.3c11.6-2.6,20.8-8.9,28.2-18
		c1.2-1.5,2.3-3.3,4.2-4.2c2.3-0.8,4.6,0,6.9,0.4c11.2,1.8,22.4,2,33.3-2.1c0.5-0.2,1-0.4,1.4-0.5c2.6-0.6,5.1-1.4,7.4-2.7
		c0.3-0.8,3.8-0.3,0.9-2.2c-1.7-1.1-3.7-1.8-5.9-2c-10.7-4.3-19.8-10.7-25.4-21.1c-0.2-2.2,1.2-3.8,2.2-5.5c4-5.8,6.7-12,4.4-19.3
		c-0.2-0.8-0.2-1.6,0.5-2.2C195.1,73.9,195.8,73.6,196.1,72.8z"/>
	<path class="st5" d="M242.3,155.1c-2.6,1.4-5.4,2.3-7.9,3.8c-2.9,1.7-4,3.5-4.3,7c-0.6,6.3-5.6,10.3-9.9,14.3
		c-10.8,10.2-23.7,16.5-38.2,19.7c-3.3,0.7-5.6,1.5-3.6,6.1c5.9,13.5,14.6,25.3,22.5,37.7c2.1,3.3,4.1,6.7,6.8,9.7
		c2.2,2.4,1.8,5.1-0.8,7.5c-4,3.6-8,7.3-11.9,11c-1.6,1.5-3.4,2-5.5,1.9c-4.2-0.1-8.2,0.4-12.3,1.5c-5.7,1.5-6.4,1.9-4.8,8
		c2.9,10.5,3.2,21.4,3.3,32.1c0.1,11.7-0.8,23.6-3.7,35c-1.6,6.3-1.8,13.1-5.7,18.7c-0.4,0.6-0.4,1.6-0.3,2.4
		c1.2,16.2-1.1,32.1-3.1,48.1c-1.3,10.6-0.1,21.1,2.9,31.4c-0.8,0.3-1.7,0.7-2.5,1c-0.9-0.4-1.2-1.2-1.5-2c-1-4.8-2.4-9.5-2.2-14.5
		c-0.3-11.2-0.1-22.3,2-33.3c0.6-7.2,1.4-14.5,1-21.7c-0.1-2.2-0.1-4.3-0.9-6.3c-0.6-2.2-1.3-4.4-0.4-6.6c0.6-1.3,2-1.7,2.8-2.7
		c2.7-7.6,4.8-15.4,5.6-23.5c3.2-21.7,3.3-43.2-3.2-64.4c-0.1-0.6-0.1-1.1,0.1-1.7c1.5-2.4,4.2-2.2,6.5-3.1
		c4.7-1.4,9.7-1.6,14.6-2.3c3.3-0.5,6-1.4,8-4.1c1.7-2.3,4.1-3.9,6.3-5.7c2.6-2.1,2.7-4,0.8-6.8c-6.2-9.3-12.5-18.5-18.4-28
		c-1.8-3-3.5-6-5.2-9.1c-2.5-4.3-4.1-8.9-6.6-13.2c-1.2-2.1-0.8-3.7,1.5-4.7c2.6-0.8,5.2-1.3,7.8-2.1c12.2-3.5,23.7-8.3,33.4-16.8
		c6.1-4.2,11.1-9.1,11-17.3c0.5-1.8,2-2.6,3.2-3.8c2.9-1.9,5.4-5,9.5-4C239.9,155.2,241.2,154.9,242.3,155.1z"/>
	<path class="st6" d="M162.9,402c-1.5,11.3-2.4,22.7-2,34.1c-2.6-3.2-1.6-7-1.6-10.5c0-2.3,0.2-4.5,0-6.8c-0.3-0.7-0.8,0.3-0.2-0.1
		c-0.2,11.2,0.9,22.3,3.2,33.2c0.9,6.4,4,12.3,3.5,19c-1.2,4.7-4.7,5.5-8.8,5.5c-7.1-0.2-7.7-0.7-7.9-6.2c-0.3-2.9,0.3-5.6,1.7-8.2
		c2-3.2,1.7-7,2.7-10.5c-0.2-3.4,0.5-6.6,1-9.9c1.6-10.5-0.8-20.8-2-31.1c-0.4-3.8-0.5-7.6-1.3-11.3c-0.2-1.2-0.2-2.4,0.5-3.4
		c0.7-0.7,1.7-1,2.7-1.3c6.9-2.4,7.6-1.9,7.6,5.6c-0.1,1.3-0.4,2.7-0.6,3.6c-0.3,1,0.5,0.6,0.4,0.5C161.5,403.2,161,401.9,162.9,402
		z"/>
	<path class="st7" d="M190,6.8c2.3-0.1,2.8,0.3,1.6,1.8c-2.1,2.9-4.5,5.5-6.8,8.2c-1,1.1-0.3,1.7,0.7,2.3c1,0.6,2,1.3,2.1,2.6
		c-2,4.6-5.4,1.2-8.2,1.9c1.6,2,0.6,3.2-1.9,3.5c-2.8,0.3-5.6,0.1-8.4,1c-11.2,1.8-22.4,3.1-33.7,4c-3.6,1.4-7.4,1.4-11.1,1.2
		c-1.4-0.2-2.9-0.3-3.4-2c1-2.2,3.2-2.8,5.2-3.5c6.7-2.4,12.8-5.6,18.2-10.1c2.8-2.3,6.1-3.1,9.8-3c8.8,0.1,17.6,0,26.3-1.6
		C184.4,12.2,188,10.9,190,6.8z"/>
	<path class="st8" d="M104.3,280c-0.4-1,0.4-1.9,0.4-2.8c0.2-2.6,0.4-5.3,0.2-7.9c-0.3-3.8-3.9-2.1-5.9-3.1c-5.5-2.8-7-5.7-4.8-11.4
		c5.8-14.8,11.8-29.6,14-45.3c1-7.1,0.5-14,5-20.2c2.2-3.1-0.6-5.6-3.2-7.3c-2.9-1.9-6.1-3.4-6.9-7.3c-0.5-2.4-2.6-1.4-4.1-1.5
		c-13.3-0.9-26.1-4-37.3-11.6c-5.6-3.8-10.3-8.7-13.9-14.6c0.8-0.1,1.7-0.1,2.5-0.2c2.1-0.1,3.2,1.5,4.2,2.9
		c2.6,3.6,5.8,6.6,9.6,8.9c10.3,6.4,21.5,9.3,33.5,9.9c4.2,0.6,8.8-1.5,12.7,1.6c-3.5,5.9,0.5,8.6,4.9,11.2c1.1,0.7,2.1,1.6,2.6,2.9
		c0.8,4.2-1.3,7.5-3.2,10.9c-0.8,1.4-2.1,2.5-2.4,4.2c-0.2,4.1,0.7,8.2-0.2,12.3c-3.4,14.4-7.6,28.5-13.3,42.2
		c-2.5,6-1.4,7.5,5.9,9.3c3.1,0.8,7.2,0.6,5.6,5.9c-0.9,1.5-1.7,3-0.8,4.8c0.1,1.6-0.7,3-1.4,4.4c-0.5,0.8-1,1.5-1.8,2
		C105.5,280.6,104.8,280.6,104.3,280z"/>
	<path class="st9" d="M190,6.8c0.1,4.2-3,5.5-6.2,6.3c-9.3,2.4-18.9,3.3-28.5,2.8c-4.6-0.2-8.2,0.9-11.8,3.9
		C137,25.3,129.1,28.4,121,31c-3.7,3-8.3,2.8-12.7,3.4c-1.5-0.1-2.8,0.5-4.2,0.8c-8,0.3-16,1-23.9-0.5c-1.3-0.2-2.9-0.2-3.6-1.4
		c-1-1.7,0-1.9,1.5-1.3c7.7,0.6,15.3,1.4,23-0.1c14.3-3.7,28.8-6.7,41.9-15.4c-2.8-0.5-5.4-0.2-7-2.3c-5.6-1.4-11.3-2.8-16.9-4.2
		c0-2,1.2-1.4,2.2-1.1c7.9,0.9,15.8,1.8,23.8,2.6c11.3,1.1,22.5,2.7,33.9,0.8C183.3,11.5,186.5,9.1,190,6.8z"/>
	<path class="st10" d="M230,159.2c-1,1-2.1,2-3.1,3c-0.5,0.2-0.9,0.1-1.4-0.1c-1.2-0.9-1.9-2.2-2.2-3.7c-0.1-2.3,1.9-3,3.3-4
		c6.2-4.1,10.1-10,12.2-17c0.5-1.7,1-3,2.9-3.6c1.5-0.6,3-1.5,3.3-3.4c0.9-1.4,0.8-4.3,3.3-3.6c2.4,0.7,1.9,3.2,1.6,5.1
		c-0.3,1.9-1.5,3.8-0.5,5.8c0,3.6-2.7,4.4-5.6,5.1c2,0.2,4.1-0.4,5.6,1.5c0.2,0.4,0.3,0.8,0.4,1.2c0.9,1.6,2.4,0.4,3.6,0.7
		c1,0.3,2,0.6,1.9,1.8c0,1.2-0.9,1.7-1.9,1.8c-2.1,0.3-4.3,0.2-6.3,1c-1.2,0.2-2.4,0.1-3.6,0.2l0-0.1c-2.8,2.1-6.4,2.5-9.3,4.4
		C232.5,156.4,230.6,157.1,230,159.2z"/>
	<path class="st11" d="M255,117.9c0.6-1.6,1.2-3.3,1.8-4.9c6.2-11.8,12.2-23.7,19.1-35.1c1.7-0.2,2.6,0.4,2.2,2.2
		c-5.9,12.5-12.5,24.7-17.5,37.5c-0.7,1.7-1.2,3.4-1.7,5.1c-0.2,0.7-0.2,1.4-0.6,2c-1.2,1.5-2.8,2-2.8-0.5
		C255.4,122.2,256.1,120,255,117.9z"/>
	<path class="st12" d="M107.7,484.1c-4.3-2-4.5-6-4-9.8c0.4-3.4,1.6-6.7,2.5-10.1c2.6,0,1.8,2.3,2.4,3.5c0.1,0.5,0.1,0.9,0.1,1.4
		c0.7,5.3,1.8,6.2,7.1,5.5c0.1,0,0.2-0.2,0.3-0.3c0-0.2-0.1-0.3-0.1-0.5c0.9-2,2.1-3.7,4.7-3.3c2.6,4.4,2.2,8.9-0.8,12.5
		C116.4,487.2,111.8,485.2,107.7,484.1z"/>
	<path class="st13" d="M186.9,21.2c-1.2-1.3-3.6-0.8-4.2-2.9c-0.2-0.7-0.9-1.6,0.3-1.9c0.5-0.1,1.2,0.3,1.8,0.5
		c5.1,3,10.1,6.4,11.6,12.4c3.4,13.8,2.6,26.7-9,37c0,0.6-0.3,0.9-0.9,0.9c-3-3.4,0.2-5.9,1.6-8.2c2.8-4.4,4.9-8.9,5.9-14
		c0.8-4,0.5-7.5-1.8-10.8c-1.4-3.1-6-5.1-3.4-9.8C189.2,23.9,187.9,22.1,186.9,21.2z"/>
	<path class="st14" d="M121.2,8.9c-0.9,0.1-1.7,0.2-2.2,1.1c-8.8-0.6-17.6-2.6-26.5-1c-9.8,1.6-19.8,2.3-26.6,11.1
		c-2.2-0.1-2.6-0.6-3.1-4.3c0.3-1.2,1.5-2.6,2.2-2.3c4.4,1.9,6.9-1.7,10-3.3c10-4.8,20.4-5.5,31.1-3.8C111.2,7.1,116.2,8,121.2,8.9z
		"/>
	<path class="st15" d="M186.8,66.7c0.1-0.3,0.3-0.5,0.6-0.4c1.9,2.9,5.2,4.5,6.9,7.7c3.2,8.3,1.5,15.7-4.1,22.4
		c-0.8-0.2-1.3-0.7-1.6-1.5c0.5-4.5,3.7-8.4,3.1-13.2c0-1.1-0.1-2.2-0.8-3.1c-1.5-2.4-2.2-5.5-5.1-6.8c-3.2-0.7-6.4-0.2-9.6-0.4
		c-1,0-2.1,0-3.1,0c-2.7-0.1-5.2,0.8-7.9,0.8c-2.3-0.5-5.1-0.7-1.7-3.8c2.7-1.7,5.6-2.6,8.7-3.3c0.8-0.2,1.5-0.3,2.3-0.4
		C178.7,64.6,183,64.2,186.8,66.7z"/>
	<path class="st16" d="M63,159.1c-5.4-2.8-8.6-8-12.7-12.2c-4.2-8.7-8.4-17.5-12.6-26.2c-0.1-0.6,0.1-1,0.6-1.2
		c2.8-0.9,3.8,1.3,4.9,3.1c3,5.3,6.3,10.5,8.8,16.1c2.7,5.9,6.2,11.3,10.2,16.4C63,156.1,65.8,157.3,63,159.1z"/>
	<path class="st17" d="M52.2,31.1c1.7,3.2,2.2,5.9-2.1,7.4c-2.8,1-5.5,2.3-8.8,3.7c2.7,1.9,2.8,3.4,0.6,5.7c-3.8,3.9-7.5,8-9.9,13.1
		c-1.6,0.1-1.7-0.7-1-1.9c1.6-3.5,3.6-6.6,5.9-9.7c0.7-1,2.7-2.5-0.7-3.2c-2.7-0.5-0.8-2.2,0-3.2c2.6-3.2,6.5-4.6,10.1-5.9
		c4.8-1.7,4.6-3.2,0.4-5.3c-0.3-0.1-0.4-0.5-0.6-0.7c-0.1-0.1,0-0.3,0-0.6C48.3,29.5,50.2,30.5,52.2,31.1z"/>
	<path class="st18" d="M131.3,400c-3.9,11.3-5.3,23.2-7.4,34.9c-2.8-0.7-1.9-3.1-2.3-4.9c0.6-11.6,3.8-22.7,7.3-33.7
		c2.5-7,4.8-14.2,7.8-21c0.9-2,1.4-4.1,3.3-5.5c0.8-0.4,1.5-0.4,2.3,0.1c1.4,1.9,0.1,3.5-0.5,5.1c-2.7,6.9-5.9,13.7-8,20.8
		C133.3,397.4,132.8,399.1,131.3,400z"/>
	<path class="st19" d="M114,428c1.6-12.6,3-25.3,4.7-37.9c0.8-5.7,2.1-11.3,5.1-16.4c1.3-0.1,2.7-0.4,2.8,1.6
		c-4,12.2-6.3,24.8-6.7,37.7c-0.9,4.8-1,9.7-2.5,14.4c-0.5,1.5-0.2,3.4-2.5,3.7C114.8,430,115.2,428.8,114,428z"/>
	<path class="st20" d="M131.3,400c2.2-8.6,6-16.6,9.2-24.9c0.6-1.7,1.6-3.2,1.6-5.1c-0.2-2.9,0-6,3.3-6.7c2.8-0.5,5.6,0.4,6.2,4
		c-0.1,1.2-0.6,2.1-1.7,2.7c-0.9,0-1.7,0.3-2.1,1.2c-4.4-1.2-4.4,2.7-5.3,5c-2.7,6.5-4.9,13.3-7.4,19.9c-0.5,1.4-1.4,2.6-2.1,3.9
		C132.5,400,131.9,400,131.3,400z"/>
	<path class="st21" d="M149.2,470.2c0.9,4.1,3.5,5.7,7.6,4.9c2.9,1.2,4.9,3.1,4,6.5c-1,3.6-4,3.4-6.9,3.4c-1,0-2-0.4-3-0.2
		C145.5,480.5,147,475.4,149.2,470.2z"/>
	<path class="st22" d="M28.8,114.1c-2-2.9-0.7-5.1,1.4-7.1c0.5-1.5,1.7-2.1,3.1-2.6c6.1-3.4,12.7-1.3,19.1-1.8
		c1.4,0,2.8,0.1,4.1,0.6c1.7,0.8,2.2,2.2,1.7,4c-0.3,1-0.7,1.9-1.9,2.2c-1.9-0.4-3.8-0.5-5.7-0.1c-4.8,0.3-9.6,0.1-14.4,0.2
		c-1,0-1.9,0.1-2.8,0.5C30.6,110,31.9,114.4,28.8,114.1z"/>
	<path class="st23" d="M150.9,484.8c1.1-0.9,2.5-0.6,3.8-0.6c2,0,3.8,0,4.8-2.3c1.1-2.4-0.4-3.6-1.6-5.1c-0.4-0.5-0.7-1.1-1.1-1.6
		c3.1-0.6,7,0.3,8.1-4.2c1.5-0.3-0.4-3.3,2.2-2.9c2.8,11.9-2.7,19.1-13.5,18C152.4,485.9,151.7,485.4,150.9,484.8z"/>
	<path class="st24" d="M151.9,399c1.8,14.5,5,28.9,3.4,43.7c-0.4,3.4-0.9,6.8-1.4,10.2c-1,0.1-1.4-0.3-1.1-1.3
		c2.9-17.3-0.9-34.3-2-51.4C150.4,399.2,150.9,398.9,151.9,399z"/>
	<path class="st25" d="M278.1,80.2c-0.5-1-1.1-1.9-2.2-2.2c5-8.7,9.6-17.6,17-24.8C288.7,62.6,283.5,71.4,278.1,80.2z"/>
	<path class="st26" d="M33,105.8c-0.9,0.4-1.8,0.8-2.7,1.1c-1.2-5.6-4.5-10.3-7-15.3c-2.3-4.4-2.4-8.4-0.2-12.7
		c1.5-0.2,1.4,0.9,1.5,1.8c0.2,1.7-0.5,3.6,0.5,5.2l0,0c1.6,5.3,4.8,9.7,7.5,14.5C33.4,102.2,34.7,103.9,33,105.8z"/>
	<path class="st27" d="M122.9,429.8c0.6,1.7-0.5,3.7,1,5.1c-0.5,6.6-1.2,13.1-1.5,19.7c-0.3,5.1-0.2,10.2-0.3,15.4
		c-2.4-0.2-2.4-2.3-3.1-3.8c-1.1-11.2,0.6-22.3,1.8-33.4C120.9,431.5,121.2,430.1,122.9,429.8z"/>
	<path class="st28" d="M62.8,15.6c1.8,0.9,1.2,3.5,3.1,4.3c-0.5,0.6-1.5,1.7-1.6,1.6c-4.6-3.3-3.8,1.7-4.2,3.1
		c-1.2,5.1-1,5.1-5.9,3.5c-1-3.1-1-6.1,0.1-9.1c2.4,0.4,2,2.6,3.1,3.8C59.2,20.3,60.3,17.4,62.8,15.6z"/>
	<path class="st29" d="M246.7,149.9c2.4-1.6,5.7,0,8.7-2c-2.7-1.2-4.6,0.6-6.7,0.2c-0.6-0.1-1.5-0.2-1.2-1c0.1-0.4,1-0.7,1.5-1
		c1.1-1.3,2.8-1.7,4.3-2.2c1.3-0.5,2.5-0.5,1.9-3c-0.7-2.9,2.1-4,4.7-4.4c0.7,0.2,1.3,0.6,1,1.5c-0.6,4.4-1.1,8.9-5,12.1
		C252.9,150.4,249.8,151.8,246.7,149.9z"/>
	<path class="st30" d="M120,467c0.7,1,1.3,2,2,3c0.3,1.9,0.8,3.9,0.9,5.8c0.4,4.3-0.9,7.9-4.8,10.1c-3.9,2.1-7.3,0.9-10.4-1.8
		c2.3,0,4.6-0.2,6.9,0c2.8,0.2,4.9-0.6,5.6-3.5c0.7-3.3,2.6-6.8-1.1-9.6C118.3,469.4,118.8,468.1,120,467z"/>
	<path class="st31" d="M107.8,468.3c-1.5-1-0.3-3-1.7-4c2-10.1,4.9-19.9,8.6-29.4c0.9,0.1,1.5,0.7,1.9,1.5c0.4,1.1,0.3,2.3-0.1,3.4
		c-3.5,8.7-6.5,17.6-7.6,27C108.9,467.4,108.4,467.9,107.8,468.3z"/>
	<path class="st32" d="M25,86c-2.3-1.9,0.2-5.1-2-7c1.4-7.2,4-13.8,8-19.9c0.1,0.7,0.2,1.5,1,1.9C28.1,68.9,23.8,76.7,25,86z"/>
	<path class="st33" d="M258.1,124c0.3-0.4,0.5-0.8,0.8-1.2c1.8,0.8,3.6,1.6,5.4,2.3c-0.9,4.4-5.8,8.2-10.9,8.3
		c-2.1-3.4,0.6-5.2,2.7-6.7C257.2,126,257.8,125.3,258.1,124z"/>
	<path class="st34" d="M167,468c-1.4,0.4-0.5,2.6-2.2,2.9c0.5-6.4-3.2-12.2-3-18.5c-0.1-1-0.9-2.3,1.1-2.3c0.1,0.7,0.3,1.3,0.4,2
		C164.9,457.3,166.7,462.5,167,468z"/>
	<path class="st35" d="M151.9,399c-0.4,0.4-0.7,0.8-1.1,1.2c-1.6-6.9-1.3-13.8-1-20.8c0.1-3.2,0.1-6.3,0.1-9.5
		c0.3-0.7,0.6-1.4,0.9-2.1c1.8,1.5,1.5,3.7,1.9,5.6c-0.2,5.9-0.7,11.9,0.3,17.8c0.3,1.7,0.3,3.3-0.8,4.7
		C152.1,397,152,398,151.9,399z"/>
	<path class="st36" d="M116,436c-0.4-0.4-0.8-0.8-1.3-1.2c0.1-1.2,0.2-2.5,0.3-3.7c2.4-5.9,2.4-12.2,3.8-18.3
		c2.1,1.6,1.3,4.1,2.1,6.1C120.9,425.1,119.7,430.9,116,436z"/>
	<path class="st37" d="M253.3,132.7c4.6-1.1,8.4-3.3,10.9-7.6c3.8,1,1,2.8,0.1,3.6c-1.9,1.6-3.3,2.6-1.4,5.3
		c0.9,1.3-0.2,3.1-1.9,3.9c-0.4-0.3-0.8-0.7-1.1-1c-0.4-2-1-3.4-3.5-2c-0.8,0.5-1.8,0.7-2.8,0.2C253,134.4,252.2,133.7,253.3,132.7z
		"/>
	<path class="st38" d="M28.8,114.1c2.4-0.8-0.5-5.7,3.8-5c0.4,0.2,0.6,0.5,0.6,1c-1.5,2.4-0.5,3.9,1.8,4.9c0.6,0.3,1,0.8,1.3,1.3
		c0.5,1.2,3.2,1.5,1.7,3.6c0,0.3-0.1,0.5-0.3,0.7C34.4,119.1,30,118.7,28.8,114.1z"/>
	<path class="st39" d="M230,159.2c1.2-5.1,6-5.6,9.8-7.4c1.1-0.5,2.5-0.6,3.8-0.9c-0.6,2.3-3,2.1-4.5,3.2
		C235.6,155.1,232.8,157.2,230,159.2z"/>
	<path class="st39" d="M246.7,149.9c3.1,0.1,6.2,0.1,9.4,0.2c-4,1.9-8.2,2.6-12.5,1C244.2,149.7,245.5,149.8,246.7,149.9z"/>
	<path class="st40" d="M152.8,451.6c0.4,0.4,0.7,0.9,1.1,1.3c-0.7,3.3-1.4,6.6-2,9.9c0,0.1-0.2,0.2-0.3,0.2c-0.2-0.3-0.5-0.7-0.7-1
		C151.5,458.6,152.1,455.1,152.8,451.6z"/>
	<path class="st41" d="M125.8,374c-0.7,0.3-1.5,1-2-0.2c0-0.3-0.1-0.8,0.1-1c6.9-7.5,3.3-14.7,0.2-22.4c-4-9.7-10.5-18-14.5-27.6
		c-5.7-13.8-8.7-27.9-5.3-42.8c0.5,0,1,0,1.4,0c1.7,1.1,1.5,2.9,1.6,4.6c-1.5,18.4,3.4,35,13.4,50.5c4.9,7.5,8.3,15.9,11,24.5
		c0.6,2.1,1.5,4.1,0.4,6.3C130,368.5,129.2,372.3,125.8,374z"/>
	<path class="st42" d="M171.9,66.2c-2.6,0.9-5.3,1.8-7.9,2.7c-3.6-1.6-1.4-5.4-3-7.8c-3.5-6.2-7.7-6.4-11.7-0.4
		c-0.6,1-1.1,2-1.5,3.1c-1.6,4.4-1.6,8.8-0.5,13.2c0.3,4.8-2.7,9.1-2,13.9c-0.6,0.6-1.3,0.8-2.1,0.7c-6.2-1.9-7-4.4-2.5-8.8
		c2.2-2.1,2.4-4,1.3-6.6c-2.5-5.6-1.2-11.4,0.5-16.6c1.1-3.4,4.6-6.3,8.4-7.9c2.4-1.1,5.1-1.5,8.3-3.7c-3.7,0.9-6.1,0.5-8.7-0.5
		c-4.6-1.8-6.7-0.5-7.9,4.4c-0.4,1.8-0.5,3.7-1.6,5.2c-1,1.4-2.2,2.8-4.1,2.4c-2.1-0.4-2.1-2.4-2.1-4c-0.1-5.4-2.1-10.7-0.8-16.7
		c-3.2,1.8-6.3,1.5-9.4,1.5c-10.8-0.2-21.5,1.4-32.4,0.9c-2.7-0.1-5.3-0.9-7.9-0.5c-3.1,0.4-4.7,1.5-4.4,5.2
		c1.1,10,2.9,10.8,12.2,5.8c5.5-3,11.6-3.9,17.7-1.3c2.2,0.9,4,2.1,3.6,4.7c-0.4,2.6-2.7,2.6-4.7,2.5c-1.2-0.6-1.4-1.7-1.6-2.9
		c0,1.2,0.8,2.1,1.2,3.1c-2.1,3.2-4.8,4.3-8.9,3.7c-5.5-0.9-10,2.6-15,4.7c1.4,2.9,3.8,2.8,6.1,2.6c3.1-0.3,6,0.1,8.3,2.3
		c1.6,1.5,3.7,1.2,5.6,1.5c4,0.8,5,3.5,2.6,7.1c-4.8-0.4-8.9-3.2-13.4-4.6c-5.1-1.6-9.8-2.9-14.3,1.3c-4.6,4.3-5.9,9.3-3.5,15.2
		c0.2,0.5,0.2,1,0.3,1.4c0.4,4.1-3.3,4.9-5.6,6.8c-1.6,0.9-2.8,2.3-4.1,3.6c-3.5,3.6-5.2,3.6-9-0.1c-0.5-2.1,0.5-3.9,1.5-5.6
		c3-5.3,5-11.1,8.1-16.3c2.9-3.3,2.9-8.2,6.2-11.3c1.7-3.4,3.1-7,3-11c-0.5-1.3-0.2-2.7,0-3.9c1.2-6.6-0.4-12.1-5.6-16.5
		c-1-0.9-3-1.7-2.3-3.5c0.7-1.8,2.6-0.8,4-0.8c10.6,0.1,21.1,1.5,31.8,1.1c2.2-0.1,4.3,0,6.4-0.7c8.8-0.4,17.4-1.7,26.2-2.3
		c1.6,0.1,3.3,0.1,4.6,1.4c0.3,3.8-3.5,6.4-3,9.9c1.9-5,6.4-4.3,10.6-3.9c1.9,0.2,3.2,0.5,2.8-2.1c0.3-1.1,1.1-1.5,2.2-1.4
		c5.1,3.6,9.2,8,12.2,13.5c1.7,3.6,3.6,7.1,5.2,10.7C171.9,62.3,173.2,64.1,171.9,66.2z"/>
	<path class="st32" d="M33,105.8c-0.4-4.7-3.8-7.9-5.7-11.9c-1.2-2.6-2.4-5.1-2.3-8c2.8,3.6,4.7,7.9,8.8,10.3
		c0.8,0.5,1.4,1.7,2.5,1.1c1.2-0.7,0.6-2.1,0.7-3.2c0.1-2-2.6-3.1-1.9-5.4c0.3-9.3,3.2-18.1,5.8-27c0.6-2.7,1.9-4.9,5.2-6.7
		c-3.9,15-5.1,29.4,2.2,43.4c1.1-6.5-0.3-13.4,3.3-19.4c1.6,3.3-1.5,6.8,0,10.9c4.3-4.3,4.1-10.3,7.9-15c0.9,3.9-0.4,6.7-1.6,9.5
		c-1,2.2-1.6,4.3,0.2,6.4c0.9,5.3-3.2,8.6-5,12.9c-3.6,0-7.2,0.1-10.8,0.1C39,103.9,35.8,103.8,33,105.8z"/>
	<path class="st43" d="M135.9,14.1c3.1,0.4,6.1,0.9,10.7,1.5c-14.6,9.6-29.3,15-45.6,16.2c0.7-0.4,1.3-0.9,2.6-1.8
		c-6.3,0-12,0-18.2,0c1.6-2.9,3.7-2.1,5.4-2c9.8,0.1,19.5-1.6,28.5-5.3C125,20.5,132,20.1,135.9,14.1z"/>
	<path class="st44" d="M110.3,36.2c-7.2,1.5-14.5,0.9-21.8,0.6c-6.6-0.3-13.2-0.9-21-1.5c10.3,6,12.1,14.1,8.6,23.8
		c-1.7-1.4-1.3-3.4-1-5.1c1.2-7.2-2.7-11.9-7.5-16.2c-1.1-1-2.1-1.9-3.1-3.5c4.9,0.9,8.2-5.8,13.5-2.4c-0.2,0-0.3,0.1-0.5,0.1
		c-0.5,0.2-0.8,0.7-0.1,0.8c5.3,1.2,10.8,1.2,16.2,1.1c3.8,0,7.6-0.1,11.4-0.1c0.6-0.3,1.2-0.6,1.7,0c0.6,0.8,0,1.2-0.6,1.4
		c-1.3,0.3-2.6,0.1-4.7,0.1C104.9,36.2,107.7,34,110.3,36.2z"/>
	<path class="st45" d="M53,103.9c-0.1-5,4.1-8.3,5-12.9c2.9-4.1,5.9-8.2,8.8-12.2c2.3,0.3,1.8,1.6,1.1,3
		c-3.4,7.1-6.7,14.2-10.1,21.3c-0.1,0.5-0.5,0.8-1,0.9C55.6,103.9,54.3,103.9,53,103.9z"/>
	<path class="st46" d="M40.9,61.9c0.3,0.4,0.8,0.9,0.8,1.2c-2.2,8.6-4.4,17.2-6.6,25.8C34.4,79.3,35.7,70.2,40.9,61.9z"/>
	<path class="st47" d="M68,81.8c-0.1-1.1,0.1-2.3-1.1-3c1.5-3.1,2.9-6.3,4.5-9.3c0.9-1.7,1.4-0.3,1.7,0.6
		C71.8,74.1,70.7,78.3,68,81.8z"/>
	<path class="st48" d="M216,180c-6.3,6.7-14.5,10.4-22.8,13.7c-3.5,1.4-7.1,2.9-10.9,3.4c-3.1,0.5-6.2,0.9-9.1,2
		c-2.4,1.3-4.5,0.6-6.4-1.1c-5.9-5.3-12.8-9.4-18.5-15c-6.1-3.5-6.1-8.4-2-14.1c-6.8,1.6-7.8,4.8-4,10.2c-0.1,1.2-1,1.6-2,1.7
		c-0.5,0-1-0.1-1.4-0.2c-6.3-3.2-11.9-7.1-14.8-13.9c-1.6-3.7-5.4-4.1-8.3-5.8c-2-1.7-4.5-0.8-6.7-1.3c-3.4-1.5-7-1.8-10.6-2.7
		c-1.9-0.5-4.6-0.3-4.9-3.3c0.6-1.6,2.1-1.8,3.5-2c9.6,1.2,19.1,3.6,28.9,3c1.4,0.4,3.2,0.4,3,2.6c-0.7,0.7-1.3,1.5-2,2.2
		c-0.8,0.9-1.6,1.8-1,3.1c0.6,1.1,1.7,0.8,2.7,0.8c5.7,0.3,11.3,0.3,17,0.8c7.4,0.7,7.8,1.7,3.2,7.9c-2.3,4.3-2.3,4.6,2.5,4.5
		c4.2-0.1,8.4,0.7,12.5-0.6c0.2-0.3,0.5-0.3,0.7,0c2.4-0.5,4.8-0.6,7.2,0c0.5,2.7-1.9,2.2-3.2,2.7c-2.1,0.9-3.6,1.8-2.7,4.4
		c3.7,8.2,9,10.8,17.5,8.8c10.5-2.5,19.5-8.1,28.9-13.1c0.7-0.4,1.4-0.9,2.1-1.3c1-0.5,2.3-1.5,3.1-0.3
		C218.7,178.6,216.9,179.2,216,180z"/>
	<path class="st49" d="M213.2,121c3.4,0.1,6,2.4,9.3,3.2c-1,1.9-2.6,2.4-4.4,2.8c-2.4-0.2-4.3,1.4-6.5,1.9
		c-7.7-0.2-13.2-5.1-19.3-8.9c-4.3-4.1-9.8-7.3-10.4-14.1c0.2-1.6,0.9-2.9,2.7-3.2c2.2,0.4,3.2,2.2,4.4,3.8
		c6,7.5,13.9,12.2,22.8,15.6C213.2,122.5,212.8,121.3,213.2,121z"/>
	<path class="st50" d="M210,130c-12,5.4-24.4,5.3-36.9,2.4c-1.6-0.4-3.2-1.1-4.8-0.2c-1.6,0.4-1.9-0.7-2.2-1.8
		c1.3-6.2,5.3-11.2,7-17.2c0.6-2.1,0.5-4.8,3.5-5.4c2.7,2.2,1.6,4.8,0.9,7.3c-3.2,11.1-1.5,13.6,10.1,14.4c6.5,0.4,13,0,19.4-0.7
		C208,129,209.2,129,210,130z"/>
	<path class="st51" d="M172,176.9c-2.2-1.8-4.9-0.3-7.3-1c19.9-1.3,36.7-10.3,52.6-21.6c1.9-1.3,3.5-2,4.7,0.8
		c2.2,0.5,1,2.8,2.1,3.8c0.6,1,1.3,2.1,1.9,3.1c0.2,0.6,0.1,1.3,0.2,2c0.1,1.5,0.2,3.3-1.4,3.9c-1.7,0.6-2.5-1.1-3.4-2.3
		c-3.3-6.7-3.2-6.6-9.5-3c-6.7,3.8-13.1,8.4-20.6,10.8c-2.5,2-5.8,1.6-8.5,2.8C179.2,177.2,175.8,179.8,172,176.9z"/>
	<path class="st52" d="M166.9,129.8c0.2,1,0.4,2,1.5,2.4c-7.9,11.9-18.7,19.6-32.7,22.7c-2.3,0.5-4.4,1.2-6.5,2.4
		c-0.7-1.5-2.2-1-3.3-1.3c1.8-3.7,5.9-2.2,8.6-3.7c4.2-1,8.2-2.7,11.8-5c6.7-3.6,11.7-9.1,16.7-14.7
		C164.1,131.4,164.8,129.7,166.9,129.8z"/>
	<path class="st53" d="M253.3,132.7c0.2,0.7,0.4,1.4,0.6,2.1c-0.5,2.3-2.1,3.7-4.3,4.4c-0.8-0.2-1.3-0.6-0.9-1.5
		c-0.9-0.9-3.6-0.9-1.1-3.4c1.8-1.9,2.3-4.6,0.8-7.5c-1.8,1-1.7,2.9-2.5,4.1c-2,0-1.1-1.3-1-2.3c0.5-2.6,0.3-6.5,4.7-3.2
		c1.5,1.1,1.9,0.3,2.4-0.9c1-2.2,2-4.4,3-6.6c0.9,0.2,1.8,0.3,3,0.5c-0.5,1.6-1.2,3.5-1.8,5.5c-0.1,0.4-0.4,1.5,0.8,1
		c0.4-0.2,0.8-0.6,1.1-0.9c1,0.8,1.5,1.4-0.1,2.4C255.6,127.8,253.7,129.8,253.3,132.7z"/>
	<path class="st54" d="M213.2,121c1.8,2.4,0.2,2.2-1.4,1.7c-9.6-2.5-17.3-7.8-23.6-15.4c-1.1-1.4-2.1-2.9-3.2-4.4
		c-0.2-2.3,0.9-2.8,2.9-2.2C194.4,109.9,202.5,117.1,213.2,121z"/>
	<path class="st55" d="M244.8,128.6c0.3,0.8,0.7,1.5,1,2.3c-4.8,3.7-6.6,9.2-9.1,14.4c-2.2,4.5-6.1,7.7-10.2,10.6
		c-1.1,0.8-3,1-2.4,3.1c-1.5-0.9-1.2-2.7-2.1-3.8c7.9-2.2,11.6-8.6,14.9-15.3c1.5-3.1,1.3-7.2,6-8
		C243.6,131.7,244.1,129.7,244.8,128.6z"/>
	<path class="st56" d="M187.9,100.8c-1.3,0.3-2.3,0.9-2.9,2.2c-1.4,0.5-2.1,1.5-2.1,3c-1.9,1.6-4,1.5-6.2,1
		c-0.8-0.1-1.5-0.5-1.9-1.2c-0.3-0.8,0.1-1.4,0.6-2c0.8-0.8,1.7-1.6,2.6-2.3c1.6-1.2,4.2-1.1,4.8-3.6c0.8-0.8,1.8-1.1,2.7-1.6
		c1.1-0.6,1.9-1.8,3.4-1.3c0.4,0.5,0.8,0.9,1.3,1.4C189.4,97.8,188.7,99.3,187.9,100.8z"/>
	<path class="st57" d="M210,130c-1,0-2,0-3,0c-3.4-1.7-7.4-1.7-10.6-4c-2-1.5-4.1-2.9-5.2-5.2c-0.6-1.3-0.7-2.9,1.7-1.6
		c6.1,3.5,11.6,8.3,19.1,8.9c0.6,1.1-0.3,1.4-0.9,1.8C210.7,129.9,210.4,130,210,130z"/>
	<path class="st51" d="M164,175.9c-5.2,2.3-10.7,0.8-16.1,0.9c-2.3,0-2.1-1.5,1.1-4.8c-1.6,3.1-0.9,4.2,2.7,4
		C155.8,175.7,159.9,175.9,164,175.9z"/>
	<path class="st58" d="M211.1,129.9c0.3-0.6,0.6-1.2,0.9-1.8c2-0.5,3.7-3.3,6.2-1C216,128.5,213.7,129.7,211.1,129.9z"/>
	<path class="st59" d="M106,285c-0.1-1.7-0.2-3.3-0.3-5c0.5-0.6,1-1.2,1.5-1.8c1.9,0,2.7,3.1,5.1,1.8c3.4-0.6,6.9,0,10.4-0.6
		c2,0.3,4.7-0.1,4.4,3.2c-0.1,1.1,0.7,1,1.1,1.1c9,1.8,17.5,6.1,27.2,6.1c0.2-2.4-1.3-4.7,0.3-6.8c0.7-0.4,1.3-0.2,1.7,0.4
		c1.3,1.9,2.9,2.4,5,1.3c2.1-1.1,3.2-2.6,2.9-5.1c-0.2-1.5-0.9-3.4,1.6-3.8c4.1,9.1,5.4,18.8,5.9,28.6c0.6,12.6,0.5,25.2-2,37.7
		c-0.8,0.9,0.1,2.4-2.5,3.6c0.5-17.8,3.5-35.1,0.3-50.4c0.2,6,2,13.8,1.3,21.7c-1.3,13.8-0.6,27.9-4.3,41.5
		c-0.7,2.6-0.4,5.2-0.7,7.7c-0.7,1.1-1.9,0.9-2.9,1.2c-0.7-1.5-2.1-1.5-3.4-1.7c-4.9-0.4-9.5-1.4-13.5-4.4c-2-1.5-4.5-0.8-6.8-0.4
		c-3.9,0.7-6.4-0.8-7.8-4.5c-4.6-12.2-11-23.4-17.1-34.9c-5.5-10.3-7.3-21.6-7.1-33.2C106.6,287.1,107.2,285.9,106,285z"/>
	<path class="st60" d="M167,197c1.7,1.3,3.5,2.5,5.9,1.8c0.5-0.3,1-0.2,1.3,0.3c-1.8,0.9-1.6,1.8-0.6,3.4c2.4,4.4,4.4,8.9,6.5,13.4
		c-0.1,0.7-0.2,1.4-0.2,2.2c2.8,9.4,1.2,18.3-2.5,27.2c-3.6,8.8-0.4,16.4,4.8,23.5c0.2,1.9-1.3,2.1-2.6,2.1c-2.3,0-4.5,0.7-6.8,1.2
		c0,0-1.1-0.3-0.4,0.4c0.2,0.2,0.6,0.3,0.8,0.6c-2,0.7-4.1,1.5-6.1,2.2c-2.1-0.1-2.7-1.8-3.1-3.3c-1.8-6.3-4.1-12.5-6.4-18.6
		c-0.4-0.9-0.4-1.9,0-2.9c0.8-0.7,2.2,0,2.8-1.9c0.7-2.5,2.9-4.7,5.5-5.3c3-0.7,3.1-2.2,2.4-4.7c-0.6-2.2-1.2-4.5-2.3-6.5
		c-2.3-4.2-1.5-7.9,1.4-11.5c0.5-0.6,1-1.3,1.4-2c2.5-5.2,4.6-10.4,0.2-15.6c-0.6-1.5-2-2.6-2.6-4.1
		C165.9,198.1,165.2,196.9,167,197z"/>
	<path class="st61" d="M157.8,250.1c3.3,8.3,5.4,17.1,9.2,25.2c0,0,0,0.5,0,0.5c-1.3,0.8-1.2,2-0.7,3c1.7,3.5,0,5.5-3,7
		c-4.9,2.5-5.9,2.2-7.2-3c-2.7-4.4-1.7-9.4-2.4-14.2c-0.4-2.7-0.3-5.5-1-8.2c-2.1-7.4-0.3-15.1-1.8-22.7c-1-4.9-1.8-9.7-3.2-14.5
		c-0.6-2.1-1.2-4.1-0.5-6.3c4.6-3.5,8.7-7.6,13.3-11.1c3,2.4,0.1,5.4,1.1,7.8c0.2-3.2-0.4-7.1,3.5-9.2c1.1-0.4,2.1-0.4,3.1,0.2
		c1.9,2.4,1.1,5.1,0.4,7.6c-1.4,5-3.6,9.7-5.9,14.3c-3.2,6.5-5.9,13.1-4.3,20.6C158.5,248.1,158.1,249.1,157.8,250.1z"/>
	<path class="st62" d="M183,175.1c2.4-1.9,5.9-0.6,8.1-3c1.8,2.1,3.8,1.9,6.3,1.1c8.2-2.7,16.3-5.8,24.6-8.2
		c0.7,0.8,1.5,1.6,2.5,2.7c0.8-2,0.2-4.1,1.5-5.6c0.3,0,0.6,0,0.9,0.2c1.8,3.8-0.3,6.8-2.2,9.5c-2.3,3.2-4.6,6.8-8.6,8.3
		c0.5-0.8,0.9-1.6,1.7-3c-9.2,5.5-17.8,10.6-27.2,14c-3.5,1.3-7.2,2.4-11,2.9c-6.3,0.9-12.5-4-14.6-10.9c3.5-1.3,6.8,0.6,10.2,0.7
		c7.4,0.2,7.7,0,7.5-7.2C182.6,176,182.8,175.5,183,175.1z"/>
	<path class="st63" d="M106,285c1-0.3,2-0.8,1.8,1c-1.4,13.5,1.8,25.9,8.4,37.5c5.8,10.2,11.2,20.6,15.3,31.6c1.4,3.8,3,5.4,7.4,4.1
		c3.1-0.9,6.2-1,9.3,2.1c3.2,3.2,8.7,2.5,13.3,3.3c3,0.5,0.6,1.6,0.7,2.5c0,2-0.2,4,0.9,5.8c-0.5,0.5-1.2,0.8-1.9,0.8
		c-3-0.7-6-1.6-9.2-0.8c-1.7-1.4-0.4-3.5-1.1-5.1c-0.2-3.6-3.4-3.3-5.4-3.7c-2-0.4-1.6,2.4-2.4,3.7c-0.4,0.7-0.7,1.5-1,2.2
		c-0.7,0-1.5,0-2.2,0.1c-0.2-0.1-0.4-0.2-0.6-0.3c-1.9-2-4.2-1.7-6.6-1.4c-0.5,0.1-0.9,0-1.3-0.1c-0.9-0.6-1.3-1.3-0.4-2.2
		c0.4-1,1.3-1.7,0.7-3.1c-4.1-11.2-8.7-22.1-15-32.3C108.1,316.7,104.4,301.4,106,285z"/>
	<path class="st64" d="M165,366.1c-2.1-2.8-1.4-5.8-0.6-8.8c4.2-16.1,4.5-32.7,4.4-49.2c-0.1-5.6-0.9-11.2-0.5-16.8
		c1.6,5.5,2.5,11.2,2.6,16.9c0,5.9,0.3,11.9-0.6,17.9c-0.9,5.8-0.5,11.9-1.7,17.8c1.8,0.2,1.2-1.7,2.2-1.8
		C170,350.3,168.3,358.4,165,366.1z"/>
	<path class="st65" d="M179,217c0.4-0.3,0.7-0.7,1.1-1c8.3,12.8,16.5,25.6,24.9,38.3c1.5,2.2,1.7,3.7-0.6,5.4c-2.6,2-5,4.2-7.5,6.3
		c-0.6,0.6-1.2,0.7-2,0.2c-0.7-1.9,0.5-3.2,1.3-4.6c5.5-6.2,5.5-6.2-0.4-12.5c-1-1.1-2.1-2.1-2.8-3.5c-1.7-3.3-3.2-6.7-5.9-9.3
		C184,230,179.9,224.2,179,217z"/>
	<path class="st66" d="M195,266c0.6,0,1.2,0,1.9,0c-2,3.5-4.9,4.9-8.9,5.2c-5,0.4-9.9,1.2-14.8,1.9c-1-0.1-2-0.1-3-0.2
		c3.2-3.9,8.2-1.8,11.8-3.9c0.2-0.6,0.6-1.3,1.2-1.5c3.8-0.9,3.4-3.2,2.3-6.1c-1.8-5-2.8-10.3-4.1-15.5c-0.2-1-0.5-2-0.5-2.9
		c-0.1-1.8-0.7-4.3,1.4-4.8c1.9-0.4,2.2,2.1,2.7,3.6c1.2,3,1.4,6.2,2.2,9.2C188.6,256.7,190,262.3,195,266z"/>
	<path class="st67" d="M160.8,373.1c0.7,0,1.5-0.1,2.2-0.1c2,9.7,0.6,19.3-0.1,29c-1.2,0.7-0.8,2-1.5,3.3c-0.1-1.7-0.2-2.9-0.2-4.1
		c0.7-7.8-1.5-15.4-0.8-23.2C160.6,376.4,160.1,374.7,160.8,373.1z"/>
	<path class="st68" d="M162.9,450c-0.4,0.8-0.7,1.5-1.1,2.3c-2.9-11.3-4.3-22.6-2.3-34.2c1.3,5.9-0.4,12.1,1.4,18
		C161.6,440.7,162.2,445.4,162.9,450z"/>
	<path class="st69" d="M174.2,199.1c-0.4-0.1-0.9-0.2-1.3-0.3c3-1.2,6-2.3,9.4-1.7C179.7,198.3,177,198.9,174.2,199.1z"/>
	<path class="st70" d="M160.8,373.1c1.7,9.3,1.7,18.7,0.3,28.1c-0.1-0.8-0.2-1.6-0.2-2.4c0.1-3.3,0.2-6.4-4.6-3.3
		c-1.1,0.7-2.8,0.3-4.3,0.5c-0.9-7.7-2.2-15.3-0.3-23C154.9,369.9,157.9,371.5,160.8,373.1z"/>
	<path class="st71" d="M186.8,66.7c-4.2-1-8.4-0.7-12.7-0.7c-1.5-2.8,2.9-4.1,1.6-6.9c0.1-1.8-0.2-3.8,0.8-5.4
		c2.6-4.3,0.6-7.1-2.8-9.7c-2-1.5-3.9-3-5.8-4.7c-1-0.9-2.5-1.8-1.8-3.2c0.9-1.7,2.6-0.7,4-0.2c0.5,0.2,1.1,0.4,1.6,0.6
		c-5.4-2.5-11.1-3.2-16.9-3.9c-4.7-0.7-9.5-0.1-14.3-0.4c-1.9-0.1-4,0.3-5.5-1.4c0.4-0.3,0.8-0.8,1.2-0.8
		c11.4,0.6,22.5-2.9,33.8-3.2c7.8-0.9,15.4-1.1,21.2,5.7c0.5,0.6,1.1,0.7,1.8,0.4c6.5,9.5,1.1,17.5-3.2,25.6
		C188.5,61.2,185.5,63.2,186.8,66.7z"/>
	<path class="st72" d="M135,31c7,0.6,14.1-1.1,21.1,0.9c-1.5,1.6-3.8,1.6-5.6,2.6c-4.6,0.6-9.1-1.5-13.7-0.6
		c-8.8,0.5-17.6,2.4-26.5,2.3c-3.1,0-6.2,0-9.9,0c2-1.8,3.7-0.9,5.2-1.3c0.1,0,0.2-0.2,0.3-0.2c-0.3-0.2-0.6-0.5-0.9-0.7
		c0.8-1.1,1.9-0.9,3-0.9c1.9,0.9,3.9,0.6,5.8,0c3.3-1.1,6.8-0.3,10.2-1C127.7,32,131.4,32.1,135,31z"/>
	<path class="st73" d="M193,33.1c-0.3,2.3-1.8,1.2-2.4,0.5c-5.6-6.2-13.1-6.5-20.6-6.6c2.8-2.2,6.1-0.1,9.1-1.3
		c0.2-2.4-3.5-1.6-3.6-4.3c2.4,0.5,4.7,1,7.1,1.4c1.6,0.2,3.7,1.3,4.4-1.5c1.5,0.4,2.4,1.7,3.4,2.8c0.6,0.7,1.9,1.4,1,2.4
		c-0.4,0.4-1.7,0.1-3.1,0.1C190,28.8,191.5,31,193,33.1z"/>
	<path class="st44" d="M124,32.1c-5.3,0.9-10.5,2.9-16,0.9c4.5,0.3,8.6-1.7,12.9-2C121.7,32.2,123,31.9,124,32.1z"/>
	<path class="st74" d="M110.9,211.9c0.9-4.4-0.4-8.8-0.1-13.2c8.9,3,13.2,9.7,14.5,17.4c-0.5-5.2-3.2-10.5-8.3-14.5
		c-1.5-1.2-4.1-1.8-3.3-4.3c0.8-2.7,2.5-5.1,5.5-5.9c3.3-0.9,6.6-0.8,9.9-0.1c1,0.4,1.7,1.1,2.2,2.1c6.2,9.5,12.5,19,15.4,30.2
		c0.4,1.6,1.2,3.1,0.4,4.8c-6.1,2.4-11.7,0.4-17.4-1.8c-6.6-2.6-7.2-2.4-10,4.2c-1.4,3.4-2.6,6.8-2.5,10.6c0.1,2.3,0,4.7-3.1,6
		c3.1,0.7,5.6,0.7,8-0.2c1.3-0.3,2.4-1,3.6-1.5c3.4-1.5,4.5-0.2,4.1,3.2c-0.1,5.1-3.1,7.3-7.7,8.2c-6,1.2-11.9,3-18.2,2.5
		c-3-0.3-5.2-1.3-5.1-4.7c1.1-6.6,4.5-12.4,6.5-18.7C107.7,228.1,110.4,220.3,110.9,211.9z"/>
	<path class="st75" d="M38,120c0.9-2-2.6-1.1-2-3c1.4-1.5,0.5-3-0.2-4.5c-0.6-1.4-2.2-2.6-0.9-4.4c5.7,0,11.3-0.1,17-0.1
		c1.2,5.1,0.8,10.4,1.2,15.6c1.7,18.7,10.1,32.3,27.9,39.5c5,2.7,10.8,3,15.8,5.5c0.4,0.4,0.5,0.9,0.1,1.4c-12.1-1.2-24-3.2-34-10.9
		c0.7-2.7-2-3.5-3.1-5c-6.6-8.6-10.1-18.9-16-27.8C42.4,123.9,42.4,119.9,38,120z"/>
	<path class="st76" d="M110.9,211.9c2,4.2,0,8.3-0.8,12.3c-2.1,10.4-7.3,19.7-10.1,29.8c-1.4,3.8,0.1,5.3,3.9,6.2
		c6.9,1.7,13.8,2,20.8,0.8c1.6-0.3,3.5-1,4.4,1.1c0.7,1.7-0.9,2.7-2,3.6c-1.2,1.1-2.6,2.3-4.1,2.7c-3.9,1.1-7.1,3.4-9.8,6.3
		c-0.5,0.1-1,0-1.4-0.1c-1.3-1.4-2.9-2.7-2.8-4.9c1.3-2.5,1.1-3.9-2.1-4.7c-12.5-3.2-12.5-3.4-7.7-15.2
		C104,237.4,107.4,224.7,110.9,211.9z"/>
	<path class="st77" d="M129,192c-2.7,0-5.3,0-8,0.1c-3.3,0.1-5.2,2.4-6.3,5c-1.2,3,2.2,2.6,3.5,3.7c4.8,4.1,9.5,11.5,7.1,19
		c-1.7-9.7-6.9-16.3-14.6-21c2.9-4.5,6.3-8.9,6.2-14.7c1-1.5-0.8-1.6-1.2-2.4c-0.7-1.3-1.8-2.5,0.4-3.5c3.1-0.7,6.3-0.8,9.4,0.2
		C127.3,182.7,129.6,186.9,129,192z"/>
	<path class="st78" d="M115,179c0.9,2.5,4,3.4,4.7,6.2c-1.7,1.2-1.7-1.2-2.8-1.1c-2.3-1.6-4.6-3.2-6.8-4.8c-4.6-3.4-4.6-3.4-0.2-7.3
		c3.5-4,8.2-3.9,13-3.7c4.3,2.8,7.9,5.9,6.6,11.9c-0.4,1.6-0.1,3.3,0,4.9c0.3,2.8,2.6,4.9,2.2,7.9c-0.3,0.8-0.7,1.3-1.6,1.1
		c-0.3-0.7-0.7-1.4-1-2c-0.9-4.4-4.2-8.2-3.2-13c-3.3-4.3-8.2-1.8-12.4-3C113.4,177.3,115.7,177.4,115,179z"/>
	<path class="st79" d="M123.1,169c-4.6,0.2-8.9,1.2-13.2,3c-0.1-2.5-1.9-1.6-3.2-1.7c-3.2-0.2-6.5,0.6-9.7-0.3c0-0.3,0-0.7,0-1
		c4.1-2,8.5-0.3,12.6-1.7c-3.8,0.9-7.6,0.7-11.4,0.7c-1.6,0-3.4,0.5-4.4-1.4c1.1-2.3,3.3-1.8,5.2-1.8c4.6-0.2,9.2,0.1,13.9-0.3
		c-0.3-2.3-3.7-2.7-2.8-5.4c2.1-0.7,4.3-1.4,5.9,1c1.1,2.2,3.9,2.2,5.3,4.2C122.2,165.7,123.7,166.9,123.1,169z"/>
	<path class="st80" d="M111.1,273.8c0.2,0.2,0.5,0.2,0.8,0.3c0.4,0.2,0.5,0.6,0.4,1c2.7,2.6,1.2,4.3-1.3,5.8
		c-2.3,0.2-2.3,0.2-3.7-2.7c0.1-1.5,0.7-2.7,1.6-3.9C109.4,273.4,110.2,273.3,111.1,273.8z"/>
	<path class="st81" d="M111.1,273.8c-0.8,0.2-1.5,0.3-2.3,0.5c-1.8-1.5-2.3-3.1,0-4.6C109.3,271.2,113.2,270.8,111.1,273.8z"/>
	<path class="st82" d="M249.8,138.8c1.4-1.3,2.8-2.7,4.1-4c1-0.4,2-0.9,3.1-1.3c1.1-0.4,2.2-1.6,3.4-0.3c1.5,1.5,0.3,2.6-0.6,3.7
		c-1.1,0.7-2.3,1.4-3.3,2.2c-0.4,0.4-1,1.1-0.9,1.5c0.9,3.5,1,3.5-2.8,4.6c-1.3,0.4-2.6,0.5-3.9,0.8c0-0.4,0-0.7,0-1.1
		C249.9,143,247,140.5,249.8,138.8z"/>
	<path class="st83" d="M249.8,138.8c-0.4,1.4-0.7,2.7,0.6,4.1c1.3,1.4-0.1,1.9-1.4,2c-2.3-2.1-5.2-0.3-8-0.8
		c1.4-3.9,7.3-1.7,7.7-6.3C249.1,138.1,249.5,138.5,249.8,138.8z"/>
	<path class="st84" d="M116,436c1.3-5.7,3.8-11.1,4-17c-0.1-7.7,0.3-15.4,1.7-23c1.7-1.8,4.1-1.9,6.3-2.4c1.9-0.4,2.9,0.4,2.1,2.5
		c-2.9,11.1-6.4,22.1-7.2,33.7c-2.3,12.3-2.9,24.7-2.9,37.2c-0.3,1.3-0.6,2.7-0.9,4c-1.1,1.3-2.2,2.6-3.2,3.9
		c-5.1,0.8-6.6-0.3-8.1-5.9c0.1-0.2,0.1-0.4,0.1-0.7c0.2-9.7,3.3-18.7,6.9-27.5C115.3,439.2,116.2,437.7,116,436z"/>
	<path class="st85" d="M107.7,468.9c1.8,3.2,4,5.9,8.1,5.9c-1.8,1.2-5,1.8-5.9,0.7C108.3,473.8,106,471.9,107.7,468.9z"/>
	<path class="st86" d="M176,103.9c-0.4,0.3-0.7,0.7-1.1,1c-2.9,2.4-6.3,1.2-9.6,1.2c-5.1-1.1-9.5-3.9-14.5-5.3
		c-0.4,0.1-0.9,0.2-1.3,0.3c-1.5,0.5-3.1,1.1-4.7,0.3c-0.6-0.4-1.1-0.9-1.4-1.6c-0.2-0.7-0.1-1.4,0.2-2c2.6-1.1,2.9-3.6,3.7-5.8
		c0.8-1.1,1.8-1.9,3-2.4c1.5-0.2,2.9-0.5,4.4-0.6c7.2-3.5,9.5-9.7,5.8-16.2c0.7-2.5,3.1-0.6,4.3-1.6c2.7,0.2,5.1-2,7.9-1.1
		c4.8,6.8,4.8,14.9,5.3,22.7C178.5,96.5,179.6,100.7,176,103.9z"/>
	<path class="st87" d="M188.9,95c-1,0.7-2,1.4-3,2.1c-4-3-5.3-9.4-3.2-15.3c3.3-1.4,6.6-3.5,10.1-0.5
		C193.7,86.5,191.3,90.7,188.9,95z"/>
	<path class="st88" d="M183.1,98.1c0.1,3.6-2.7,3.6-5.1,3.9c0.2-9.4-0.1-18.7-2.7-27.8c-0.4-1.5-0.4-2.9,0.7-4.2
		c3.6,0.4,7.4-1,10.9,0.9c-0.1,1.7-1.3,2.8-2.5,3.9c-3.8,5.8-4.1,12-1.9,18.5C183.1,94.8,183.9,96.4,183.1,98.1z"/>
	<path class="st89" d="M176,70c1.1,8.9,3.6,17.6,3,26.7c-0.1,1.8,0,3.6-1,5.3c-0.1,1.2-0.7,2-2,1.9c2.2-9.7,0.6-19.1-1.7-28.5
		c-0.4-1.8-0.9-3.5-1.3-5.3C174,70,175,70,176,70z"/>
	<path class="st90" d="M176.9,59c1.4,3.3-1.8,4.7-2.8,7c-0.7,0.1-1.5,0.1-2.2,0.2c-1.4-5.8-5.1-10.6-7-16.2
		c5.3,0.8,8.6,4.5,10.5,11.9C175.7,60.8,174.6,59,176.9,59z"/>
	<path class="st91" d="M165,71.2c-1.4,0.6-2.8,1.1-4.2,1.7c-1.3,3.2-5.4,2.7-7.2,5.2c-1.2,1-1.6,2.4-2.2,3.8
		c-0.3,0.4-0.6,0.6-1.1,0.8c-1,0.2-1.9,0.1-2.7-0.5c-0.8-1.5-0.2-2.8,0.2-4.2c0.3-0.9,0.9-1.7,1.5-2.4c2.8-2.7,6.5-3.9,9.5-6.2
		c0.8-0.8,1-1.9,1.3-3c0.7-2-0.1-4.4,1.6-6.1c2.2,2.5,0.2,6.1,2.1,8.7C161.9,70.8,163.5,71,165,71.2z"/>
	<path class="st92" d="M184.2,74.2c1.1-1,1-2.8,2.7-3.3c2.9,1.5,3.8,4.4,4.9,7.1c-1.3,2.2-5.1,3-9.2,2
		C181.8,77.7,183.2,76,184.2,74.2z"/>
	<path class="st93" d="M183.3,79.7c2.8-0.6,6.1,1,8.5-1.7c1.4,0.8,1,2,0.9,3.2c-3.3-0.6-6.5,0.3-9.8,0.7
		C182.5,81.2,182.4,80.4,183.3,79.7z"/>
	<path class="st94" d="M130.1,396.1c-0.3-0.9-0.6-2.5-1.7-1.5c-1.7,1.5-3.8,0.6-5.5,1.3c-1.4-2-0.8-4.1-0.4-6.2
		c1.1-5.5,2.7-10.9,4.9-16.1c1-2.3,1.9-4.7,4.7-5.5l0,0c3-0.7,6.1-1.5,7.9,2.1c0,0,0,0,0,0C136.6,378.8,133.4,387.4,130.1,396.1z"/>
	<path class="st95" d="M132,368c-6.1,8.3-8.2,17.9-9.2,27.9c-1.5,7.6-0.9,15.5-2.9,23.1c-1.9-1.8-0.4-4.2-1.2-6.2
		c0.1-13.3,2.5-26.2,7-38.7c2-2.5,2.6-5.8,5.2-7.9C131.4,366.7,131.7,367.4,132,368z"/>
	<path class="st96" d="M81,164.1c-13.5-4-21.9-13.5-26.3-26.3c-3.3-9.5-4.6-19.7-2.7-29.9c1.6-1,3.1-1.1,4.3,0.7
		c1.3,1.5,1.3,3.4,1.1,5.2c-1.1,11.1,4.9,18.5,12.7,25.1c3.3,2.8,7.4,4.5,10.5,7.5c0.6,0.8,1.1,1.6,0.8,2.6
		c-1.1,1.4-2.7,1.7-4.3,2.1c-1.7,0.4-3.1,1.1-3.3,3.1c-0.2,1.9,1.1,3,2.5,3.9c1.2,0.8,2.6,1.3,3.9,2.1c0.6,0.4,1.1,0.9,1.6,1.4
		C81.8,162.6,83.4,163.9,81,164.1z"/>
	<path class="st97" d="M56.9,103.9c0.3-0.3,0.6-0.6,1-0.9c2.8,2.6,5.3,3.3,7.6-0.8c0.9-1.6,2.1-3.3,4.4-3.4c1.1-0.5,1.9-0.4,2.4,0.8
		c-0.2,2.1-1.6,3.6-2.4,5.4c-2.1,4.5-1.7,8.4,2.2,11.7c6.9,8.3,16.2,8.4,25.7,8c2.4-0.1,5,0.4,7.1-1.3c5.7-0.7,10.5-4.3,16.1-5.3
		c1.5,0.2,2.5,0.8,2.7,2.4c-0.2,2.4-2.1,3.2-3.8,4.2c-1.8,1.7-4.1,2.5-6.4,3.2c-1.2,0.6-2.3,1.3-3.6,1.6c-1.9-0.2-3.4,0.8-5.1,1.3
		c-13.1,1.5-25.5,0-36.5-7.8c-3-3.2-5.5-6.8-5.6-11.3c-0.1-3.9-4-2.8-5.7-4.6C57.6,106,57.6,104.9,56.9,103.9z"/>
	<path class="st42" d="M57,107c4.7-0.7,7.5,0.3,7.1,6c-0.2,3.6,2.9,6.1,4.7,9c-0.6,4.5-0.4,8.9,1.2,13.3c0.6,1.5,1,3.2-0.1,4.8
		c-11.3-7.5-15.9-18-13.8-31.4C56.5,108.1,56.7,107.6,57,107z"/>
	<path class="st16" d="M34.9,108.1c1.1,2,2.1,4.1,3.2,6.1c1.3,2.4,0.1,2.9-2,2.8c-0.3-0.3-0.6-0.7-0.9-1c-1.7-1.6-3.3-3.2-2.5-5.8
		c0-0.4,0-0.7,0-1.1C33.2,108.2,34,108,34.9,108.1z"/>
	<path class="st98" d="M32.7,110.2c0.8,1.9,1.6,3.9,2.5,5.8c-2.6,0.5-3.4-1.4-3.9-3.3C30.9,111.6,30.3,109.9,32.7,110.2z"/>
	<path class="st99" d="M106.9,79.3c1.1-4.4-0.1-6-4.2-5.6c-1.2,0.1-2.5,0.7-3.3-0.3c-3-4.2-7.3-3.8-11.6-3.4c-2.3,0.3-3.7-1.1-5-2.7
		c-1.1-1.4-1.3-3,1-3.2c4.4-0.3,7.9-3.4,12.1-4.2c0.7-0.1,1.4-0.7,2.2-0.3c4.1,1.9,7,0.1,9.7-2.8l0,0.1c1.2-1.5,4.4,0.5,4.5-2.6
		c0.1-3.3-2.8-2.2-4.4-3.2c-2.5-1.5-4.4-3.3-6.4,0.2c-0.1,0.2-0.7,0.5-0.8,0.4C94.2,48.2,90.4,55,85,55.9c-2.9,0.5-5.1,0.8-5.3-3.2
		c-0.2-3.1-1.3-6.1-1.5-9.2c-0.3-4.2,3.6-3.8,6-4.3c3.5-0.7,7.4-0.1,10.7,0.3c11.2,1.4,22.1-1.8,33.1-0.4c2.8,0.3,4.6-1.1,6.2-4.6
		c0.7,4.1,1.5,6.8,0.8,10.3c-0.7,4.1,1.3,8.5,1.2,12.9c0,1.3,1.3,1.1,2.2,0.4c1.6-1.3,2.4-2.9,2.6-5.1c0.8-7.9,3.9-9.7,10.8-6.4
		c2.2,1.1,3.8,1.4,5.8-0.3c1.1-0.9,2.6-1.1,3.1,0.8c0.4,1.4,0.1,2.5-1.7,3c-1.8,0.4-3.4,1.4-5.1,1.8c-11.8,2.9-14.2,17-10.2,25.2
		c1.1,2.1,1.3,3.4-0.4,5.2c-4.7,5-4.7,5-0.4,8.8c-2.6,2-5.5,3.3-8.5,4.5c-1.4,0-2.8,0.1-4.2-0.2c-3.4-3-6.9-5.5-11.8-5.2
		c-2.8,0.2-4.4-2-6-3.8C110.4,84.1,107.3,82.8,106.9,79.3z"/>
	<path class="st100" d="M176.9,59c-1.2,0.7-0.6,2.1-1.5,3.4c-2.9-4.8-5-10.1-10.5-12.3c-3.1-4.8-7.3-8.8-11.2-13
		c-0.7-1.2-3.6-0.7-2.7-3.2c0.8-3.1,3.4-1.3,5-1.9c6.3-0.2,12,1.5,17.8,5.4c-3,0.8-4.9-1.8-7.6-0.8c3.7,3.2,7.2,6.2,10.7,9.1
		c2.3,1.9,3.3,4,1.4,6.8C177,54.3,176.9,56.6,176.9,59z"/>
	<path class="st101" d="M106.9,79.3c2,2,4,4,6,5.9c1,1.1,0.4,1.7-0.7,2.2c-4.1-0.5-6.1-4.6-9.8-5.7c-2.6-1-5.2-2.2-7.8-3.1
		c-8.4-2.8-15.2,1.5-16.3,10.4c-0.1,1,0,2-0.1,3c-0.2,1.1-0.2,2.4-1.4,2.8c-1.4,0.5-1.1-1.2-1.8-1.6c-2.8-6.5-2.7-12.5,2.8-17.7
		c4-3.9,8.6-4.8,13.7-2.9C96.7,74.7,102.1,76.2,106.9,79.3z"/>
	<path class="st102" d="M151.8,38.3c0.6,1.4,2,2.5,1.8,4.4c-10-3.6-12.8-2.7-16,4.3c-1.2-5.2-0.5-8.1,3.3-12
		C146,32.5,149.2,33.5,151.8,38.3z"/>
	<path class="st103" d="M75,93.3c1.8,1.7,2.1,0.5,2.2-1.1c2.4-0.1,4.8-0.2,6.9-1.4c7.2-2,14.4-4,22-2.6c0.5,0.2,0.9,0.5,1.2,1
		c0.2,1.2-0.5,1.9-1.4,2.5c-0.4,0.2-0.9,0.4-1.3,0.6c-1.1,0.4-2.2,0.7-3.3,0.6c-1.4-0.2-2.8-0.7-4.2,0.1c-1.4,0.7-2.9,0.4-4.4,0.5
		c-4.4,1.4-9.2,1.7-12.9,5.1c-2.5,1.1-5.1,1.8-7.8,1.4c-0.7-0.4-1.4-0.8-2.1-1.1C71,96.5,75.5,97.1,75,93.3z"/>
	<path class="st104" d="M161.9,60.2c-0.6,2.3,1.3,4.9-0.9,7c-0.6-0.2-1.1-0.6-1.6-1.1c-4.9-5.4-5-5.4-10.3-0.6
		c-0.5,0.5-1.1,0.7-1.8,0.6c-1.2-1-0.9-2.1-0.4-3.3c0.4-1.9,1.6-3.3,2.7-4.7C154.2,52.8,159.3,53.6,161.9,60.2z"/>
	<path class="st105" d="M79.6,63c5.8-5.3,12.7-7.8,20-9.6c1.5-0.4,3-0.5,4.2,0.6c1.2,1.1,1.7,2.5-0.4,2.7
		C95.1,57.7,87.3,60.1,79.6,63z"/>
	<path class="st106" d="M134.2,95.2c2.5-2.3,5.2-4.1,8.8-4.3c0.8,0,1.6,0.1,2.3,0.1c0.4-0.3,0.8-0.4,1.3-0.3
		c0.7,0.5,0.7,1.2,0.4,1.9c-1.8,2.7-10,5.7-12.7,4.5C133.4,96.8,133.4,95.9,134.2,95.2z"/>
	<path class="st107" d="M145.8,91c0,0-0.4,0-0.4,0c-1.8-2.7-1.9-5.6-0.3-8.4c1-1.8,1.2-3.7,1.2-5.6c0.6-1-0.2-2.4,0.8-3.2
		c2.5,0.4,1.4,2.5,1.9,3.9c-0.4,1.4-0.7,2.9-1.1,4.3c0.2,1,0,2-0.2,2.9C147,86.9,147.9,89.5,145.8,91z"/>
	<path class="st108" d="M151.8,38.3c-3.1-2.8-6.4-5-10.9-3.3c-1.1-1.4-2.8-0.6-4.2-1c4.8-1.2,9.5-1.9,14.3-0.1
		c0.9,1.1,1.8,2.2,2.7,3.2C152.9,37.1,152.2,37.5,151.8,38.3z"/>
	<path class="st99" d="M70.1,91.1c-0.6,1,0.9,3.7-1.7,3.5c-1.8-0.2-2.1-2.7-2.7-4.2c-0.4-1.1,0.7-2.4,2.4-2.4
		C69.9,88.1,70.8,89,70.1,91.1z"/>
	<path class="st109" d="M147.1,74.4c-0.3,0.9-0.6,1.8-0.8,2.7c-1.4-4.8-1.8-9.5,0.7-14.1c0.3,1-0.2,2.3,0.9,3.1
		C150.2,69,148.6,71.7,147.1,74.4z"/>
	<path class="st110" d="M107.9,56.9c-2.3-0.9-2.7-2.8-2.8-5.7C108.1,52.6,108.2,54.7,107.9,56.9C107.9,56.9,107.9,56.9,107.9,56.9z"
		/>
	<path class="st111" d="M134.2,95.2c0.1,0.6,0.3,1.7,0.9,1.3c2.4-1.4,4.7-1.8,7.4-1.2c2.4,0.5,2.9-2.1,4.1-3.5
		c0.5-0.3,0.9-0.3,1.3,0.2c-0.7,2.4,0.9,6.3-3.9,6c-0.5,0.6-1.3,0.9-2,1.3c0.6,0.6,1.4,0.6,2.1,0.8c0.3,0.4,0.5,0.8,0.8,1.3
		c-0.8,4.1-4.7,5-7.3,7.1c-0.7,0.4-1.4,0.8-1.6,1.6c3.2,5.7,5.5,5.8,9,0.3c0.4-0.7,0.8-1.5,1.3-2.2c2.6-2.1,1.7-5.8,3.7-8.2L150,100
		c4.3,1.1,7.6,4.3,12,5.1c3.4,1.8,7.2,0.1,10.7,1.3c1.3,2.8,0.2,5.9-0.8,8c-5.8,12.3-11.4,24.9-24.2,31.9c-2.7-1-0.1-4.2-2.1-5.4
		c-3.2,2.9-6.7,5.3-11.2,5.4c-1,0.2-2.3,0.1-2.5,1.2c-0.3,1,1,1.1,1.7,1.4c1.8,0.9,4.2,1.5,1.7,4.1c-3.1,0.9-6.1,1.9-9.2,2.8
		c-9.8,1-19.2-1.6-28.7-3.1C91,152.4,85,151.2,80,147c-3.3-2.3-7.3-3.8-10-7c-0.9-5.6-3.9-10.9-2.4-16.9c0.2-0.8,0.6-1,1.2-1.1
		c10.4,6.4,21.5,9.1,33.7,7.5c1.1-0.1,2.2,0.4,3.3,0.7c4.6,0.5,8.1,3.6,12.3,5c5.4,1.8,10.6,3.7,16.4,3.5c3-0.1,5.6-0.9,7.3-3.5
		c-1.5-1.6-4.3-2.8-1.8-5.7c2.8-4,6.5-7.1,9.1-11.2c0.4-0.3,0.8-0.5,1.2-0.7c-0.4-0.1-0.7,0.3-1,0.4c-0.7,0.3-1.3,0.9-1.9,1.4
		c-7.3,4.1-15.1,6.4-23.5,6.8c-2,0.1-4.4,0.6-5.4-2.2c1.4-1,2.9-2.1,4.3-3.1c1.9-4,6.4-6.4,6.6-11.3c0.1-2.2,0-4.5-0.3-6.7
		c0-1,0.3-1.9,0.3-2.8c0.2-1.7-0.1-3.5,1.2-4.9C132,93.7,133.1,93.8,134.2,95.2z"/>
	<path class="st112" d="M131.2,192.6c-0.9-2.2-1.9-4.4-2.8-6.6c0.3-6.1,0.3-6.1,5.5-5.9c1.4,0.5,1.3,2.5,3.1,3
		c-0.1-1.6-2.4-1.4-2.2-3c1.3-1.4,2.7-0.9,4-0.2c0.3,0.1,0.6,0.1,0.9,0.1c10.1,3.8,18.3,10.3,25.2,18.5c1.3,1.6,2.8,3.5,0.7,5.7
		c-1.7,1.3-3.6,1.5-5.6,1.4c-3,4.8-6.3,9.2-12.4,10.4c-2,1-2.8-0.6-3.4-1.8C140.4,206.8,135.9,199.6,131.2,192.6z"/>
	<path class="st113" d="M81,161.9c-0.3-0.3-0.7-0.7-1-1c-0.6-0.7-0.9-1.4-0.9-2.3c2.3-7,8.5-8.8,14.8-4.3c3.5,1.6,7.3,1.7,11,2.3
		c2.1,0.4,3.6,1.4,5.3,2.3c1.9,1.5,3.8,3.1,6.8,5.5c-8.6,2.8-15.8,1.6-22.9,1.5C89.1,166.7,84.8,165,81,161.9z"/>
	<path class="st114" d="M183,175.1c3.3,9.4,2.9,10-7,10c-3.8,0-7.4-0.8-11-2c-1.9-2.6-0.9-4.1,1.8-5.1c1.7-0.6,3.4-1.1,5.2-1
		C175.9,177.7,179.3,175.7,183,175.1z"/>
	<path class="st69" d="M165.2,204.5c2.6-3.3-0.8-4.9-2.2-6.5c-5-5.8-11.1-10.5-17.7-14.3c-1.9-1.1-3.6-2.4-5.4-3.6
		c0.7-0.3,1.4-0.7,2.1-1c1.4-1.3,2.2-0.1,3.2,0.6c1.2,0.9,1.7,2.8,3.7,2.4c6,5,12.1,9.9,18.1,14.9c-0.9,2.8,2.9,2.9,2.9,5.2
		c-1.1,0.8-0.6,2.6-2,3.1C167,205,166.1,204.7,165.2,204.5C165.2,204.4,165.2,204.5,165.2,204.5z"/>
	<path class="st115" d="M135.1,181c-3.9-0.6-6.5,0.7-6.7,5c-0.2-1.3-0.8-2.7-0.4-3.8c1.7-5.7-1.2-9.6-4.9-13.2
		c-0.9-4.2-5.6-5.3-7.1-9c5.5,1.4,9.2,4.8,11.3,9.9c2.2,5.2,7.9,6.5,11.6,10.1C137.7,180.5,136,179.7,135.1,181L135.1,181z"/>
	<path class="st116" d="M148.9,182.1c-3.4,1.6-3.9-3.7-7-3c-1.4-1.5-5-2.1-4.4-4.1c1-3,3-5.9,5.9-7.7c1.2-0.7,2.6-0.6,3.7,0.5
		c1.2,1.2,0.1,2-0.4,3C143.2,177.2,143.2,177.2,148.9,182.1z"/>
	<path class="st117" d="M93.8,154.3c-3.4-0.6-6.8-2.7-10.4-0.2c-1.8,1.3-3.5,2.4-3.6,4.9c-3.6-0.6-2.6-2.8-1.4-4.7
		c1.1-1.7,2.4-3.2,2.6-5.2c-0.3-0.7-0.7-1.4-1-2.1c5.7,2,11.5,3.9,17.2,5.9C96,153.2,94.5,152.9,93.8,154.3z"/>
	<path class="st58" d="M192.9,119.1c-1.8,0-1.3,0.8-0.6,1.7c3,3.7,7,5.7,11.5,7c1.3,0.4,3.1,0,3.2,2.2c-8.4,1.2-16.7,1.8-25.2,0
		c-7.5-1.6-8.6-3.5-7.2-11c0.7-3.6,4.5-7,1.2-11.1c-0.3-0.3-0.4-0.6-0.5-1c0-0.4,0.2-0.7,0.5-0.9c2.3,0,4.7,0,7,0
		C183.8,112.3,189.2,115.1,192.9,119.1z"/>
	<path class="st118" d="M175.8,107.4c-0.1,0.2-0.1,0.4,0.1,0.6c-2,7.7-5.1,14.9-9,21.8c-5.8,7-11.3,14.3-20,18.3
		c-1,0.6-2,0.4-2.1-0.8c-0.1-1.5,0.8-1.9,2.2-1.3c9.6-7,16.3-16.1,21.5-26.8c1.9-3.9,0.9-8.8,4.6-11.9
		C174,106.3,174.9,105.9,175.8,107.4z"/>
	<path class="st119" d="M222,165c-4.4,4.6-10.9,4-16.1,6.8c-3.1,1.7-6.9,2.1-10.2,3.4c-3.4,1.4-4.7,0.3-4.6-3.1
		c8.1-2.6,15.2-7.3,22.2-11.9c5.4-3.5,5.2-3.8,7.8,2C221.4,163.1,221.7,164.1,222,165z"/>
	<path class="st120" d="M146.9,146c-0.7,0.2-1.7,0.2-1.5,1.2c0.1,0.4,0.9,0.6,1.4,0.8c-3.6,2.5-7.5,4.3-11.8,5.1
		c0.6-1.4,0.6-2.8-1.3-3c-2.1-0.2-4.6-0.3-4.2-2.9c0.2-1.9,2.8-1.7,4.5-2.2c4.8,1.7,8,0,12-6c1.4-1.3,1.9-0.6,1.8,0.9
		C147.6,142,147.2,144,146.9,146z"/>
	<path class="st121" d="M183.3,79.7c-0.1,0.8-0.2,1.5-0.3,2.3c-0.6,5.3,0.6,10.3,2.9,15.1c-0.7,1.1-1.8,0.9-2.8,1
		c-4.1-8.1-4.6-16.2,0.3-24.2c0-0.1,0.3,0,0.5,0c0.1,0.1,0.3,0.2,0.4,0.3C183.9,76.1,183.6,77.9,183.3,79.7z"/>
	<path class="st122" d="M175.8,107.4c-0.9,0-1.8-0.1-2.8-0.1c-4-0.4-8.2,0.7-12-1.3c0.4-2.4,2-1.3,3.2-1.2c3.6,0,7.1,0,10.7,0.1
		c0.3,0.4,0.7,0.7,1,1.1C175.9,106.5,175.8,106.9,175.8,107.4z"/>
	<path class="st123" d="M154,260c1.2,7.5,1.9,15.1,2.1,22.7c-0.1,1.2-0.6,2.6-0.1,3.4c3.3,5.9-0.5,5.2-4.2,4.9
		c-8.1-0.8-15.5-4.4-23.4-5.9c-1.3-0.2-3.2-0.6-2-3.2c0.4-0.9-2.3-1.2-3.6-1.8c-3,0.3-5.6-0.4-7.1-3.4c2.5-3.7,5.1-0.2,7.6,0
		c7.1,2,13.3,6.1,20.6,7.6c2.8,1.2,6,4.2,8.6,2.3c3-2.1,0.2-6.1,0.2-9.2c0.2-4.7-1.2-9.2-1-13.8c0-1.1,0.2-2.3,0.9-3.2
		C153,259.8,153.5,259.7,154,260z"/>
	<path class="st124" d="M142.4,310.4c3.2,0.8,5.7,0.8,8.1-1.3c0.5-0.5,1.4-0.8,1.7-0.1c1.3,2.6-1.1,4.5-1.7,6.7
		c-0.5,1.7-2.4,1.8-3.6,0.4C145.2,314.3,143.9,312.3,142.4,310.4z"/>
	<path class="st125" d="M116.1,276.8c2.2,1.2,4.1,3,6.7,3.3c-3.8,2-7.9-0.1-11.8,0.8c0-1.7,1.2-2.5,2.5-3.1c-1.3-2-3.3,1.3-4-0.6
		c-0.5-1.3,0.9-2.2,2.4-2.2C113.8,274.5,115.1,275.2,116.1,276.8z"/>
	<path class="st126" d="M186.1,251.9c-0.8-4.3-1.4-8.7-4-14.2c-0.1,7.7,2.5,13.6,3.6,19.6c0.1,0.8,0.5,1.6,0.7,2.4
		c2.3,7.1,2.3,7.1-4.4,9.2c-1.3,0-3.1,0.1-3.5-1.4c-1.7-6.9-6.5-13.5-3.2-21c4.1-9.4,6.3-18.8,3.1-28.9c-0.1-0.2,0.4-0.5,0.6-0.7
		c3,6.3,6,12.7,9,19c0.8,4,0.9,8.1,1.2,12.2C189.3,250,189.6,252.8,186.1,251.9z"/>
	<path class="st127" d="M167.9,205.3c0.4-1.2-0.3-3.2,2-3.1c0.1,0.3,0,0.7,0.2,1c5.7,6.3,1.9,12.2-1.5,17.5c-2.4,3.8-4,7-1.6,11.2
		c0.8,1.4,1.4,3,1.8,4.6c0.9,3.5,3,7.3-3.4,8.2c-2.2,0.3-4,2.9-4.9,5.3c-0.9,2.4-1.9,0.5-2.8,0.2c-2.5-7-1.4-13.7,1.7-20.2
		c2.7-5.5,5.4-11,7.3-16.8C167.7,210.5,168.2,208,167.9,205.3z"/>
	<path class="st128" d="M154,260c-0.3,0-0.7,0-1,0c-2.1-0.8-2.1-2.7-2.4-4.5c-0.3-1.5-0.1-2.9-0.3-4.4c-0.5-3.6,0.9-8-4.3-9.5
		c-0.4-2.4-3-3.4-3.5-5.7c1.1-3.2,3.3-0.5,5-1c0.7-2.4-1.8-4.6-0.6-7.1c-3.4-12.4-9.4-23.6-16.9-33.9c0.4-0.5,0.8-0.9,1.1-1.4
		c2.5,0.1,3.1,2.3,4.1,3.8c3.4,5.4,6.5,11,9.8,16.5c0.7,1.2,0.8,3,2.7,3.2c0.4,7.4,3.9,14.1,4.5,21.4c0.4,5.1,1.5,10.2,0.6,15.4
		C152.5,255.5,154.7,257.5,154,260z"/>
	<path class="st129" d="M165.2,204.5C165.2,204.5,165.2,204.5,165.2,204.5c-2.8,2.9-3.3,6.6-3.4,10.5c-1.2-3-0.3-6.3-1.6-9.2
		c0.5-0.3-0.4-2.1,0.7-1.2C162.6,205.9,163.8,204.3,165.2,204.5z"/>
	<path class="st18" d="M139.9,370.1c-2.1-2.8-5-2.6-7.9-2.1C135.2,366.5,138.4,365.1,139.9,370.1z"/>
	<path class="st130" d="M186.1,251.9c3.6-1.3,1.9-4.2,1.5-6.2c-0.6-3.3-1.1-6.5,0.4-9.6c3.5,2,4.1,5.9,6,9
		c0.2,5.9,2.9,11.3,3.1,17.1c-0.7,1.3-1.4,2.6-2.1,3.9c-5.3,0.2-5.2-4.6-6.9-7.6C187,256.5,186.7,254.1,186.1,251.9z"/>
	<path class="st131" d="M197.1,262.1c-2.3-5.5-4.7-10.9-3.1-17.1c2,2.4,3.9,4.9,6,7.2c3,3.1,2.8,5.6-1,7.8
		C198.3,260.5,197.7,261.4,197.1,262.1z"/>
	<path class="st81" d="M146.9,240.8c0,0.2,0,0.4,0.1,0.5c7.1,1.9,3.4,8,4.6,12.1c0.6,2.1,0.4,4.5,1.4,6.6c0,1-0.1,2-0.1,3.1
		c-7.6,3.6-16.1,5.1-23.5,9.5c-2.4,1.5-4.9,2.8-6.4,5.3c-2.4,0.3-4.2-3.6-7-1.1c-1.4-0.6-2.7-1.2-4.1-1.8c0-0.3,0-0.6-0.1-0.9
		c3.5-6.8,12.5-5.5,16.5-11.5c-0.4-1.4-1.3-1-2.3-0.7c-8.4,2.4-16.8,1.4-25-1c-3.8-1.1-2.4-4.3-1.2-6.8c-0.3,2.9,0.8,4,3.9,4.1
		c6.2,0.4,12-1.7,18-2.5c4.8-0.6,6.5-3.5,6.9-7.7c1.9,1.4,1.1,3.6,1.5,5.4c0.5,2.6,0.3,5.7,4.2,6.7c-0.2-1.7-4-0.9-2.3-3.4
		c1.3-0.9,2.8-0.8,4.3-0.8c2.9,0,6,1.8,8.8-0.6c2-1.6,0.8-3.5,0.9-5.4C146.3,246.7,143.2,243.5,146.9,240.8z"/>
	<path class="st132" d="M146.9,227.9c1.4,2.9,2.4,5.9,2.4,9.1c-2.5,1.1-4-3.8-6.5-0.7c-4,0.3-7,2.1-8.8,5.9c-0.6,1.2-1.6,2.1-3,2.3
		c-2.1-0.8-4.9,1.3-6.6-1.5c-1.1-3.2-1-6.8-2.9-10.3c-1.5,4.6-3.5,8.6-1.1,13.2c0.5,0.7,1.2,1.3,1.6,2.2c-2,1.8-4.4,0.8-6.7,0.9
		c-1.5,0.1-3.5-0.2-3.7-1.8c-0.2-1.6,1.6-1.5,2.9-1.6c2.3-0.3,1.4-2.3,1.4-3.6c0-6.5,2.3-12.3,5.8-17.6c1.2-1.8,2-2.5,4.3-1.1
		C132.4,227.1,139.4,228.7,146.9,227.9z"/>
	<path class="st133" d="M124.9,243c1.7,2.1,4.7-1.4,6.3,1.4c-0.2,4.2,1.5,8.2,0.9,12.5c1.1,2.2,3.3,0.7,5.1,1.6
		c-0.4,1.6-0.9,3.2-2.7,3.4c-1.9,0.2-2.6-1.6-3.6-3c-2.4-3.4-1.8-7.2-2.1-11c0.1-1.4,0.3-2.9-1.9-1.7c-1.6,0.8-2.9,2.2-4.9,1.9
		c-0.8-0.1-1.6-0.2-2-1.1C121.2,245.1,122.5,243.3,124.9,243z"/>
	<path class="st134" d="M81,161.9c4.3,1.3,8.7,2.6,13,3.9c3.6,2.2,7.7,0.9,11.5,1.2c1.8,0.2,3.6,0,6.1,0c-5.2,2.1-9.9,1.9-14.6,1.8
		c-5.6-0.8-11.1-1.8-16.1-4.9C82.1,163.4,81.1,162.7,81,161.9z"/>
	<path class="st135" d="M115,179c-1.4-1.5-4.6-1.3-4.5-4.8c4.1,1,8.1,0.8,12.2,0.9c2.5,0.1,3.5,1.5,3.2,3.9
		C122.3,178.9,118.6,179,115,179z"/>
	<path class="st136" d="M153.1,77.9c1.1-3.9,5.1-3.4,7.7-5c1.1,0.2,2.2,0.5,2.8,1.7c2.4,5.1-2.8,14.1-8.8,15.2
		C155.4,85.7,156.9,81.4,153.1,77.9z"/>
	<path class="st137" d="M153.1,77.9c5.3,3.1,5.6,5.1,1.7,11.9c-1.4-0.3-2.6,1.3-4,0.3c-1.8-1.8-3.5-3.7-3.8-6.4
		c0.3-0.6,0.6-1.2,0.9-1.7c0.9,0,1.9,0,2.8,0c1.1,0.5,1.3,1.9,2.3,2.9c-0.1-1.7-1.5-2-2.1-3C151.1,80.2,150.5,78.1,153.1,77.9z"/>
	<path class="st138" d="M150,100c0.7,3.6,0,6.7-3,9.1c-1.3,1.5-2.9,2.5-5,2.2c-0.3-0.4-0.5-0.8-0.5-1.3c0.6-2.5,3.8-2.5,4.7-5
		c-2.7,1.1-4.4,3.5-7.1,4.4c-1.1,0.1-1.8-0.3-2.2-1.4c2.7-2.2,5.4-4.4,8.1-6.7C146.7,100.8,148.4,100.4,150,100z"/>
	<path class="st139" d="M164.2,104.8c-1.1,0.3-2.5-0.2-3.2,1.2c-4.4-0.7-7.7-3.5-11.1-6c1.5-1.8,2.6,0,3.8,0.5
		C157.3,101.9,160.8,103.4,164.2,104.8z"/>
	<path class="st140" d="M147.1,83.7c1.4,2,3.6,3.6,3.8,6.4c-0.9,0.7-1.4,2-2.8,1.9c-0.4-0.1-0.9-0.1-1.3-0.2
		c-0.3-0.3-0.6-0.5-0.9-0.8C146.1,88.6,145.1,85.9,147.1,83.7z"/>
	<path class="st141" d="M144.3,100c-1.8,1.8-3.2,0.6-4.6-0.7c1.1-2,2.9-1.3,4.5-1.4C144.1,98.7,144.2,99.3,144.3,100z"/>
	<path class="st142" d="M147.1,74.4c-0.9-2.9,1.3-5.5,0.7-8.4c5.1-7.9,8.5-7.6,13.2,1.3c-0.3,0.9,0.5,2.3-0.9,2.8
		c-1.2-0.3-1.6-1.6-2.4-2.3c-2.3-1.9-4.2-1.5-5.4,1.3c-1,2.2-1.7,4.6-2.2,7c-0.3,0.6-0.7,1.1-1,1.7C147,77.3,148.3,75.1,147.1,74.4z
		"/>
	<path class="st143" d="M149.9,76c-1.4-4.3,0.7-7.6,3.2-10.5c1.8-2.1,5.7,0.6,6.9,4.5C156.7,72,153.3,74,149.9,76z"/>
	<path class="st144" d="M81,149.1c2.7,1.9,0.7,3.1-0.6,4.5c-1.6,1.7-3.7,3.2-0.6,5.4c0,0.6,0.1,1.3,0.1,1.9c-1.9,0-3.3-1.2-5-2
		c-2.4-1.1-3.6-2.9-3-5.5c0.5-2.4,2.3-3.4,4.7-3.5C78.2,149.8,79.6,149.4,81,149.1z"/>
	<path class="st145" d="M130,103c1.5,2.4,1.1,4.9,0.1,7.3c-1.9,4.1-4.7,7.2-9.3,8.5c-5.1,2-9.8,5.6-15.7,5.1
		c-3.9,0.9-7.5-3.1-11.2-0.6c1.9-0.3,4-0.4,4.2,2.6c-10.3,0.8-20.2,0.4-27.2-8.9c-2.5-3-1.8-5.6,0.8-8.2c3.2-3.2,6.2-6.3,10.8-7.5
		c6.8,0.9,13.4,2.7,20.3,2.2c7.6,1.6,14.7,0.1,21.4-3.7C127.5,98.1,128.8,98.9,130,103z"/>
	<path class="st146" d="M143.8,134.9c-3.2,5.5-8.2,6.4-13.8,5.1c-8.6-2-16.9-4.7-24.2-9.9c0.5-2.6,2.1-2.2,3.8-1.3
		c8.3,0.4,16.7,0.4,25,1.1c0.8,0.3,1.6,0.8,1.7,1.8c-1.5,3-4.5,2.3-7,2.5c-2.5,0.2-4.9-0.4-7-0.5c5.8,1.1,12.1,0.8,18.3,0
		C141.6,133.8,143.5,132.1,143.8,134.9z"/>
	<path class="st147" d="M81.9,102c-2.7,2.8-6.2,4.6-8.9,7.4c-2.4,2.4-3.2,4.7-2,7.7c-5-5.3-4.7-10.6,1.1-17.2
		c2.3-1.1,4.7-2.2,7.4-1.7c2,0.1,4.1,0.3,4.9,2.7C83.7,101.8,82.8,102,81.9,102z"/>
	<path class="st148" d="M134.9,130.9c-8.5,0.2-17.1,1.3-25.3-2c1.2-0.7,2.3-1.4,3.5-2.1c8.3-1.2,16.9-0.2,25.1-3.1
		c1.3-0.5,3.1-0.9,4,0.9c0.8,1.7-0.7,2.7-1.6,3.8C139.1,130.3,137.1,130.7,134.9,130.9z"/>
	<path class="st149" d="M134.9,130.9c2.7-1.7,5.8-2.9,7.4-6.9c-9.9,2.5-19.3,4.4-29.1,2.8c1.8-1.1,4.2-0.7,5.5-2.7
		c8.7,2.6,16.5-0.9,24.4-3.8c1.7-0.6,3.2-1.6,4.8-2.4c1.1-0.4,2.2-0.7,2.2,1.1c-2.3,4.2-6,7.3-9.1,10.9c-1.2,1.7-2.4,3.4-4.9,2.1
		C135.6,131.6,135.3,131.3,134.9,130.9z"/>
	<path class="st150" d="M98.2,126c-2-3.4-5.2-0.2-7.9-1.4c5-5,9.9-3.4,14.9-0.6C103.7,127.5,100.5,125.4,98.2,126z"/>
	<path class="st151" d="M120.9,118.8c3.1-2.8,6.2-5.7,9.3-8.5c1.8,1.3,0,2.3-0.5,3.1c-1.8,2.9-3.5,5.8-6.7,7.5
		C123,119.5,122.1,119,120.9,118.8z"/>
	<path class="st152" d="M130.8,95.2c0,1.9,0.1,3.8,0.1,5.7c-0.5,0.2-1,0.2-1.3-0.3c-2.9-6.5-8.2-8.9-15.1-8.7
		c-2.5-0.8-5.4,0.1-7.6-1.8c0-0.3,0-0.6,0-0.9c1.2-1.9,3.7-0.6,5.1-2c0.3-0.6,0.5-1.3,0.8-1.9c2.2,2.6,4.6,4.1,8.4,3.8
		C125.6,88.7,128.6,91.7,130.8,95.2z"/>
	<path class="st153" d="M112.1,87.1c0.1,0.8,0.9,1.9-0.9,1.9c-1.4,0-2.8,0.1-4.2,0.1c-8.3-1.3-16,1.4-23.9,3
		c-3.7-0.9-2.7-3.6-1.9-5.8c2.1-5.7,9-8.9,15.7-7.1c2,0.6,4.1,1.1,6.1,1.8C106.7,82.1,109.3,84.7,112.1,87.1z"/>
	<path class="st154" d="M103,81c-3.6-0.3-7.2-1-10.8-0.9c-4.6,0.1-8,2.5-10,6.7c-0.9,1.8-1.3,3.8,0.8,5.3c-2,0.7-4,3.1-5.9,0
		C76.3,80.4,84.3,74,95.4,77.5C98.1,78.3,100.8,79.2,103,81z"/>
	<path class="st155" d="M81.9,102c0.7-0.4,1.4-0.8,2.1-1.2c4.6-0.8,9.2,0.1,13.2,0.4c-4.3-2.2-5.1-3.8-4.3-9c1.3-0.3,2.7,0.8,4-0.2
		c1.3,0.4,2.5,0.9,3.4,1.9c0.5,0.9,0.3,2.5,1.9,2.2c1.2-0.2,1.2-1.3,1.2-2.3c0-1-0.1-1.9,0.4-2.8c0.5,0,0.9,0,1.4,0
		c4,1.8,2.8,5.2,2.6,8.3c0.1,0.1,0.1,0.3,0.2,0.5c0.7,1.7,4.4,0.6,3.7,2.9c-0.6,2.2-3.4,1.9-5.5,1.8c-1.1-0.1-2.3-0.3-3.3,0.4
		C95.7,105,88.7,104.4,81.9,102z"/>
	<path class="st156" d="M106,100.1c1.4-3.2,1.5-6.2-0.9-9c0.6-0.4,1.2-0.7,1.8-1.1c2.6,0.9,5.5-0.8,8.1,1c1.2,0.9,2.7,1.3,3.6,2.6
		c1.5,2.1,1.9,4.3-0.1,6.3C116.4,102.2,109.2,102.3,106,100.1z"/>
	<path class="st157" d="M92.8,92.2c0.5,3.8,1.8,7.2,6.5,9.7c-6,0.5-10.8,0.8-15.4-1.1c-1.3-1.2-3.7-0.5-4.6-2.6
		c-0.6-2.3,1.4-2.3,2.6-2.7C85.6,94.3,89.2,93.3,92.8,92.2z"/>
	<path class="st158" d="M103.8,91.1c0.3,1.1,0.8,2.1,1,3.2c0.4,1.4-0.1,2.6-1.4,3.3c-1.2,0.6-2.6,0.8-3.7,0
		c-1.4-1.1-0.3-2.3,0.3-3.5c0-0.8,0.2-1.5,0.8-2.1C101.8,91.7,102.8,91.4,103.8,91.1z"/>
	<path class="st159" d="M100.8,92c-0.3,0.7-0.5,1.4-0.8,2.1c-1.6,0.1-3.1,0-3.1-2.1C98.2,90.5,99.5,91.2,100.8,92z"/>
	<path class="st160" d="M106,100.1c3.7,2.2,7.4,0.1,11-0.5c2.4-0.4,2.4-2.9,1.1-4.8c-0.9-1.4-2.1-2.6-3.1-3.8
		c8.3-1.6,12.9,2.9,15.9,9.9c-0.3,0.7-0.6,1.4-1,2.1c-1.3-1.9-2.3-4.3-5.3-2.1c-6,4.4-12.6,5.6-19.9,4.2c-0.6-0.1-1.3-0.1-2-0.1
		c2.7-0.8,5.4-1.5,8.3-2.3c-1.5-1.4-3.1-0.5-4.6-0.7C105,101.7,104.9,101.1,106,100.1z"/>
	<path class="st161" d="M136,131.9c1.6-0.7,3.3-1.4,4.9-2.1c0.3,1.2-2.4,3.9,1.7,3.2c0.8-0.1,3.4-0.4,1.2,1.9
		c-2.2-1.7-4.1,0.2-6,0.6c-6.5,1.4-12.3,0.9-18-2.2C125.3,132.5,130.8,133.8,136,131.9z"/>
	<path class="st162" d="M141.9,110.8c1.7-0.6,3.4-1.2,5.1-1.7c-0.5,1-1,2-1.5,3c-1.2,2.6-3.6,4.5-6.1,3.7c-2.7-0.8-5.1-3.1-4.7-6.7
		C137.2,109.4,139.7,109.7,141.9,110.8z"/>
	<path class="st163" d="M146,139c-0.9,5.1-7,9.3-11.5,8c-1.2-0.4-0.8-1.2-0.5-2C139.2,145.3,142.4,141.8,146,139z"/>
	<path class="st164" d="M141.9,110.8c-2.6,0.4-5.2,0.6-7.1-1.8c0.4-1,1.3-1,2.1-1c0.6,0.4,1.2,0.8,1.8,1.2c1.2-0.2,2.4-0.2,3.3,0.9
		C141.9,110.3,141.9,110.5,141.9,110.8z"/>
	<path class="st165" d="M150,119c-0.4-0.9-1.4-0.9-2.2-1.1c1.7-1,3.5-2.1,5.2-3.1C153,117.1,151.7,118.3,150,119z"/>
	<path class="st166" d="M135,181.1c1.6-0.1,3.4-0.8,4.2,1.2c0.4,0.9-0.4,1.9-1.2,2.5c-0.9,0.6-1.9,0.4-2.8-0.1
		C133.4,183.6,134.3,182.3,135,181.1C135.1,181,135,181.1,135,181.1z"/>
	<path class="st167" d="M102,164.3c-5.6-1-11.3-1.7-16.7-3.9c-0.9-0.4-2.3-0.3-2-1.6c0.2-1,0.7-2.4,2-2.6c1.6-0.2,3.6-0.7,4.9,0
		c3.9,2,8.4,1.5,12.4,3c2.1,0.8,5.6,0.3,5.2,3.3C107.4,165.7,104,163.2,102,164.3z"/>
	<path class="st168" d="M123.1,277.9c-1.3-1.8,0-2.9,1.2-3.6c8.9-5.3,18.2-9.8,28.7-11.2c0,5,1.7,9.9,1.1,14.9
		c-2.1,4.1-5.5,6.3-10,7c-5.1,0-9.5-2.4-14-4.4C127.8,279.5,125.4,278.8,123.1,277.9z"/>
	<path class="st169" d="M144,285c3.3-2.3,7.1-4,10-7c0.1,0.3,0.1,0.7,0.2,1c1,3.2,2.4,7.8-0.1,9.3C151,290,146.8,287.9,144,285z"/>
	<path class="st170" d="M132.1,256.8c-1.4-4.1-3.4-8.1-0.9-12.5c1-1.7,2-3.4,3.1-5c2-3.2,4.5-5.3,8.5-2.9c1.4,1.5,4.3,1.6,4.1,4.5
		c-1.1,3.5-0.3,7.1,0.9,10c1.2,3-0.2,3.7-1.8,5.1c-1.7,0.4-2.8-0.1-3.4-1.7c-0.1-1.1,0.2-2.3-0.1-3.6c-0.5,1.2-0.2,2.5-0.7,3.5
		c-0.9,2.3-3.2,1.9-4.9,2.7C135.3,257.2,133.7,257.4,132.1,256.8z"/>
	<path class="st171" d="M143.1,254c0.5,1.3,1.8,1.4,2.9,2c-2.7,3.5-6,1.1-9.1,0.9c1.4-0.9,2.8-1.8,4.2-2.8
		C141.7,253.4,142.4,253.5,143.1,254z"/>
	<path class="st172" d="M124.9,243c-1,2.1-2.8,3.2-4.9,4c-2.2-0.5-2.1-2.3-2.1-4c0.1-4.5,1.1-8.8,3.7-13.3
		C123.9,234.2,125.5,238.3,124.9,243z"/>
	<path class="st173" d="M150.9,81.8c1,0.1,2,0,2.9,0.4c1.6,0.6,1.2,2.1,1,3.4c-0.1,1-0.9,1.3-1.7,1.4c-1.8,0.1-2.1-1.2-2.2-2.6
		c-0.1-0.8-0.1-1.6-0.2-2.4C150.7,81.9,150.9,81.8,150.9,81.8z"/>
	<path class="st174" d="M142,110c-1.1-0.3-2.4,0.3-3.3-0.9c2.8-2.4,5.4-5,9.6-6.4C148.1,107.2,144.5,108.2,142,110z"/>
	<path class="st175" d="M143.1,254c-0.7,0-1.3,0.1-2,0.1c0-2.1,0-4.2,0-6.8C144.2,249.2,144.7,251.3,143.1,254z"/>
</g>
</svg>
